<?xml version="1.0" encoding="UTF-8" standalone="no"?>
<svg
   xmlns:dc="http://purl.org/dc/elements/1.1/"
   xmlns:cc="http://creativecommons.org/ns#"
   xmlns:rdf="http://www.w3.org/1999/02/22-rdf-syntax-ns#"
   xmlns:svg="http://www.w3.org/2000/svg"
   xmlns="http://www.w3.org/2000/svg"
   viewBox="0 0 155.155 127.34014"
   height="127.34013"
   width="155.155"
   xml:space="preserve"
   id="svg2"
   version="1.1"><metadata
     id="metadata8"><rdf:RDF><cc:Work
         rdf:about=""><dc:format>image/svg+xml</dc:format><dc:type
           rdf:resource="http://purl.org/dc/dcmitype/StillImage" /><dc:title></dc:title></cc:Work></rdf:RDF></metadata><defs
     id="defs6" /><g
     transform="matrix(1.3333333,0,0,-1.3333333,-1.0839255,141.56933)"
     id="g10"><path
       d="m 1.02891,59.5656 17.63789,20.7465 16.7707,10.4262 20.9605,0.3933 7.0469,-6.975"
       style="fill:none;stroke:#231f20;stroke-width:0.56693;stroke-linecap:butt;stroke-linejoin:miter;stroke-miterlimit:22.92560005;stroke-dasharray:none;stroke-opacity:1"
       id="path14" /><path
       d="M 68.8207,66.9074 68.3316,56.2395 50.9184,20.0445 15.6043,22.4758 7.26602,30.6676"
       style="fill:none;stroke:#231f20;stroke-width:0.56693;stroke-linecap:butt;stroke-linejoin:miter;stroke-miterlimit:22.92560005;stroke-dasharray:none;stroke-opacity:1"
       id="path16" /><path
       d="M 74.094044,76.775494 C 100.42024,76.775494 98.95277,123.38291 116,56.2395 122.47849,30.722878 92.496884,70.757853 66.170684,70.757853 39.844584,70.757853 61.481011,4.94271 20.6637,56.2395 4.2718738,76.839781 47.767944,76.775494 74.094044,76.775494 Z"
       style="fill:none;stroke:#231f20;stroke-width:0.56693;stroke-linecap:butt;stroke-linejoin:miter;stroke-miterlimit:22.92560005;stroke-dasharray:none;stroke-opacity:1"
       id="path20" /><path
       d="m 57.6723,91.0887 c 0,-0.6797 -0.5508,-1.2309 -1.2305,-1.2309 -0.6797,0 -1.2309,0.5512 -1.2309,1.2309 0,0.6797 0.5512,1.2304 1.2309,1.2304 0.6797,0 1.2305,-0.5507 1.2305,-1.2304"
       style="fill:#231f20;fill-opacity:1;fill-rule:nonzero;stroke:none;stroke-width:0.1"
       id="path24" /><path
       d="m 57.6723,91.0887 c 0,-0.6797 -0.5508,-1.2309 -1.2305,-1.2309 -0.6797,0 -1.2309,0.5512 -1.2309,1.2309 0,0.6797 0.5512,1.2304 1.2309,1.2304 0.6797,0 1.2305,-0.5507 1.2305,-1.2304 z"
       style="fill:none;stroke:#171414;stroke-width:0.71969998;stroke-linecap:round;stroke-linejoin:round;stroke-miterlimit:10;stroke-dasharray:none;stroke-opacity:1"
       id="path26" /><path
       d="m 69.5621,56.2398 c 0,-0.68 -0.5508,-1.2308 -1.2301,-1.2308 -0.6797,0 -1.2308,0.5508 -1.2308,1.2308 0,0.6793 0.5511,1.2301 1.2308,1.2301 0.6793,0 1.2301,-0.5508 1.2301,-1.2301"
       style="fill:#231f20;fill-opacity:1;fill-rule:nonzero;stroke:none;stroke-width:0.1"
       id="path28" /><path
       d="m 69.5621,56.2398 c 0,-0.68 -0.5508,-1.2308 -1.2301,-1.2308 -0.6797,0 -1.2308,0.5508 -1.2308,1.2308 0,0.6793 0.5511,1.2301 1.2308,1.2301 0.6793,0 1.2301,-0.5508 1.2301,-1.2301 z"
       style="fill:none;stroke:#171414;stroke-width:0.71969998;stroke-linecap:round;stroke-linejoin:round;stroke-miterlimit:10;stroke-dasharray:none;stroke-opacity:1"
       id="path30" /><path
       d="m 36.6684,90.7387 c 0,-0.6797 -0.5508,-1.2309 -1.2305,-1.2309 -0.6797,0 -1.2309,0.5512 -1.2309,1.2309 0,0.6797 0.5512,1.2304 1.2309,1.2304 0.6797,0 1.2305,-0.5507 1.2305,-1.2304"
       style="fill:#231f20;fill-opacity:1;fill-rule:nonzero;stroke:none;stroke-width:0.1"
       id="path32" /><path
       d="m 36.6684,90.7387 c 0,-0.6797 -0.5508,-1.2309 -1.2305,-1.2309 -0.6797,0 -1.2309,0.5512 -1.2309,1.2309 0,0.6797 0.5512,1.2304 1.2309,1.2304 0.6797,0 1.2305,-0.5507 1.2305,-1.2304 z"
       style="fill:none;stroke:#171414;stroke-width:0.71969998;stroke-linecap:round;stroke-linejoin:round;stroke-miterlimit:10;stroke-dasharray:none;stroke-opacity:1"
       id="path34" /><path
       d="m 16.8348,22.4758 c 0,-0.6797 -0.5508,-1.2309 -1.2301,-1.2309 -0.6801,0 -1.2309,0.5512 -1.2309,1.2309 0,0.6797 0.5508,1.2305 1.2309,1.2305 0.6793,0 1.2301,-0.5508 1.2301,-1.2305"
       style="fill:#231f20;fill-opacity:1;fill-rule:nonzero;stroke:none;stroke-width:0.1"
       id="path36" /><path
       d="m 16.8348,22.4758 c 0,-0.6797 -0.5508,-1.2309 -1.2301,-1.2309 -0.6801,0 -1.2309,0.5512 -1.2309,1.2309 0,0.6797 0.5508,1.2305 1.2309,1.2305 0.6793,0 1.2301,-0.5508 1.2301,-1.2305 z"
       style="fill:none;stroke:#171414;stroke-width:0.71969998;stroke-linecap:round;stroke-linejoin:round;stroke-miterlimit:10;stroke-dasharray:none;stroke-opacity:1"
       id="path38" /><path
       d="m 19.8973,80.3125 c 0,-0.6801 -0.5508,-1.2309 -1.2301,-1.2309 -0.6797,0 -1.2309,0.5508 -1.2309,1.2309 0,0.6793 0.5512,1.2301 1.2309,1.2301 0.6793,0 1.2301,-0.5508 1.2301,-1.2301"
       style="fill:#231f20;fill-opacity:1;fill-rule:nonzero;stroke:none;stroke-width:0.1"
       id="path40" /><path
       d="m 19.8973,80.3125 c 0,-0.6801 -0.5508,-1.2309 -1.2301,-1.2309 -0.6797,0 -1.2309,0.5508 -1.2309,1.2309 0,0.6793 0.5512,1.2301 1.2309,1.2301 0.6793,0 1.2301,-0.5508 1.2301,-1.2301 z"
       style="fill:none;stroke:#171414;stroke-width:0.71969998;stroke-linecap:round;stroke-linejoin:round;stroke-miterlimit:10;stroke-dasharray:none;stroke-opacity:1"
       id="path42" /><path
       d="m 52.1492,20.0449 c 0,-0.6797 -0.5508,-1.2308 -1.2304,-1.2308 -0.6797,0 -1.2309,0.5511 -1.2309,1.2308 0,0.6793 0.5512,1.2301 1.2309,1.2301 0.6796,0 1.2304,-0.5508 1.2304,-1.2301"
       style="fill:#231f20;fill-opacity:1;fill-rule:nonzero;stroke:none;stroke-width:0.1"
       id="path44" /><path
       d="m 52.1492,20.0449 c 0,-0.6797 -0.5508,-1.2308 -1.2304,-1.2308 -0.6797,0 -1.2309,0.5511 -1.2309,1.2308 0,0.6793 0.5512,1.2301 1.2309,1.2301 0.6796,0 1.2304,-0.5508 1.2304,-1.2301 z"
       style="fill:none;stroke:#171414;stroke-width:0.71969998;stroke-linecap:round;stroke-linejoin:round;stroke-miterlimit:10;stroke-dasharray:none;stroke-opacity:1"
       id="path46" /><path
       d="m 80.1203,55.8207 c 0,2.0324 -1.0879,2.977 -2.7621,2.977 -2.4504,0 -4.9852,-2.8692 -4.9852,-5.4399 0,-2.0324 1.3989,-2.9887 2.7618,-2.9887 2.4507,0 4.9855,2.8813 4.9855,5.4516 z m -1.2676,0.4066 c 0,-2.2359 -1.6496,-5.4394 -3.6578,-5.4394 -1.0761,0 -1.5543,0.9562 -1.5543,2.1637 0,2.2355 1.5543,5.4156 3.5867,5.4156 1.1473,0 1.6254,-0.9324 1.6254,-2.1399"
       style="fill:#000000;fill-opacity:1;fill-rule:nonzero;stroke:none;stroke-width:0.1"
       id="path48" /><path
       d="M 15.1316,17.9355 H 11.4137 L 10.8996,16.393 h 0.2391 c 0.2988,0.7293 0.5859,0.7414 1.0164,0.7414 h 1.9484 l -4.1242,-4.6625 0.1434,-0.1434 c 0.1914,0.1317 0.2867,0.2031 0.5378,0.2031 0.7055,0 1.1598,-0.6097 2.0922,-0.8847 0.2871,-0.0836 0.6336,-0.1434 0.9805,-0.1434 0.275,0 0.5617,0.036 0.8246,0.1317 0.4184,0.1433 0.5621,0.4421 0.5621,0.6933 0,0.2988 -0.2152,0.5738 -0.5859,0.5738 -0.2629,0 -0.4422,-0.1437 -0.4422,-0.3585 0,-0.2633 0.2988,-0.3829 0.2988,-0.5383 0,-0.1672 -0.2273,-0.3106 -0.4543,-0.3106 -1.1476,0 -1.2312,1.4106 -2.8812,1.6379 l 4.0765,4.6027"
       style="fill:#000000;fill-opacity:1;fill-rule:nonzero;stroke:none;stroke-width:0.1"
       id="path50" /><path
       d="m 19.8703,10.6719 v 0.223 c -0.6058,0 -0.789,-0.0078 -0.789,0.9645 0,0.0082 0,4.1926 0,4.1926 H 18.882 l -1.5461,-0.6618 0.0875,-0.2152 c 0.3586,0.1355 0.4305,0.1594 0.5422,0.1594 0.2387,0 0.2551,-0.191 0.2551,-0.4223 v -3.0527 c 0,-0.9723 -0.1914,-0.9567 -0.7894,-0.9645 v -0.223 h 2.439"
       style="fill:#000000;fill-opacity:1;fill-rule:nonzero;stroke:none;stroke-width:0.1"
       id="path52" /><path
       d="m 60.2297,21.0742 h -3.718 l -0.514,-1.5422 h 0.239 c 0.2988,0.7293 0.586,0.741 1.0164,0.741 h 1.9485 l -4.1243,-4.6625 0.1434,-0.1433 c 0.1914,0.1316 0.2867,0.2035 0.5379,0.2035 0.7055,0 1.1598,-0.6098 2.0922,-0.8848 0.2871,-0.0836 0.6336,-0.1437 0.9805,-0.1437 0.275,0 0.5617,0.0359 0.8246,0.1316 0.4187,0.1434 0.5621,0.4422 0.5621,0.6934 0,0.2988 -0.2153,0.5738 -0.5856,0.5738 -0.2633,0 -0.4426,-0.1433 -0.4426,-0.3586 0,-0.2629 0.2989,-0.3828 0.2989,-0.5379 0,-0.1672 -0.2274,-0.3109 -0.4543,-0.3109 -1.1477,0 -1.2313,1.4105 -2.8813,1.6379 l 4.0766,4.6027"
       style="fill:#000000;fill-opacity:1;fill-rule:nonzero;stroke:none;stroke-width:0.1"
       id="path56" /><path
       d="m 65.6059,16.4566 c 0,1.4348 -0.6532,2.734 -1.9047,2.734 -1.2672,0 -1.9207,-1.2992 -1.9207,-2.734 0,-1.4586 0.6293,-2.7414 1.9207,-2.7414 1.2113,0 1.9047,1.2828 1.9047,2.7414 z m -0.9879,0 c 0,-1.1156 -0.2789,-2.4308 -0.9328,-2.4308 -0.8207,0 -0.9164,1.3152 -0.9164,2.4308 0,0.9247 0.0554,2.4231 0.9324,2.4231 0.8609,0 0.9168,-1.4984 0.9168,-2.4231"
       style="fill:#000000;fill-opacity:1;fill-rule:nonzero;stroke:none;stroke-width:0.1"
       id="path58" /><path
       d="m 78.7563,19.4961 v 0.6695 h -7.986 v -0.6695 z m 0,-2.4148 v 0.6691 h -7.986 v -0.6691 h 7.986"
       style="fill:#000000;fill-opacity:1;fill-rule:nonzero;stroke:none;stroke-width:0.1"
       id="path60" /><path
       d="m 88.0828,20.118 c 0,0.4543 -0.3465,0.9562 -1.1832,0.9562 -1.7574,0 -3.4312,-1.9965 -3.4312,-3.7539 0,-1.2676 0.7769,-1.8531 1.6738,-1.8531 1.1355,0 1.8769,0.7891 2.3191,1.3512 l -0.1793,0.1191 c -0.3226,-0.3941 -0.9203,-1.016 -1.6976,-1.016 -0.6934,0 -1.0996,0.5621 -1.0996,1.4703 0,1.1359 0.8843,3.4434 2.4148,3.4434 0.227,0 0.4543,-0.1079 0.4543,-0.311 0,-0.2031 -0.2988,-0.3465 -0.2988,-0.6695 0,-0.2629 0.1793,-0.4422 0.4422,-0.4422 0.3707,0 0.5855,0.3348 0.5855,0.7055"
       style="fill:#000000;fill-opacity:1;fill-rule:nonzero;stroke:none;stroke-width:0.1"
       id="path62" /><path
       d="m 27.6906,102.948 h -2.3074 l -0.0355,-0.203 c 0.2148,0 0.5734,-0.036 0.5734,-0.215 0,-0.203 -0.4422,-0.61 -0.7648,-0.86 0,0 -1.5305,-1.196 -1.7219,-1.363 l 1.5422,5.87 c 0,0 -1.6141,-0.288 -1.9364,-0.311 v -0.216 c 0.4661,0 0.777,-0.048 0.777,-0.418 0,-0.227 -0.1438,-0.789 -0.2274,-1.088 l -1.7691,-6.5393 h 0.9086 l 0.5977,2.2113 0.6933,0.55 c 0.3828,-1.0039 0.7531,-1.9844 0.7531,-1.9844 0.275,-0.7171 0.6215,-0.9207 0.861,-0.9207 0.5976,0 1.2672,0.861 1.5543,1.375 l -0.1797,0.1317 c -0.3707,-0.5621 -0.6574,-0.8731 -0.9082,-0.8731 -0.1797,0 -0.3473,0.2035 -0.4906,0.5621 0,0 -0.4782,1.327 -0.8848,2.2714 l 0.5742,0.478 c 0.9445,0.789 1.6977,1.303 2.3551,1.303 l 0.0359,0.239"
       style="fill:#000000;fill-opacity:1;fill-rule:nonzero;stroke:none;stroke-width:0.1"
       id="path66" /><path
       d="m 31.2617,100.977 c 0,0.207 -0.1754,0.446 -0.4461,0.446 -0.2234,0 -0.4226,-0.183 -0.4226,-0.446 0,-0.263 0.1992,-0.438 0.4304,-0.438 0.2629,0 0.4383,0.231 0.4383,0.438 z m -0.3508,-1.2594 c 0,0 -1.2589,-0.2149 -1.5379,-0.2309 v -0.2629 c 0.3504,0 0.5657,0 0.5657,-0.223 0,-0.1598 -0.1035,-0.5582 -0.1594,-0.7414 l -0.6137,-2.184 c -0.1117,-0.3824 -0.3984,-1.5859 -0.9644,-1.5859 -0.0797,0 -0.1594,0.016 -0.1594,0.0875 0,0.0878 0.1434,0.0957 0.1434,0.2632 0,0.1594 -0.1594,0.2469 -0.3184,0.2469 -0.2555,0 -0.359,-0.1992 -0.359,-0.3426 0,-0.2871 0.311,-0.4465 0.6774,-0.4465 1.0683,0 1.4984,0.9723 1.7695,1.9688 l 0.9562,3.4508"
       style="fill:#000000;fill-opacity:1;fill-rule:nonzero;stroke:none;stroke-width:0.1"
       id="path68" /><path
       d="m 38.8371,97.8609 v 0.4938 H 36.175 v 2.6623 h -0.4945 v -2.6623 h -2.6617 v -0.4938 h 2.6617 v -2.6621 h 0.4945 v 2.6621 h 2.6621"
       style="fill:#000000;fill-opacity:1;fill-rule:nonzero;stroke:none;stroke-width:0.1"
       id="path70" /><path
       d="m 43.1121,95.8047 v 0.223 c -0.6058,0 -0.7894,-0.0082 -0.7894,0.9641 0,0.0082 0,4.1922 0,4.1922 h -0.1993 l -1.5461,-0.661 0.0879,-0.215 c 0.3582,0.135 0.4301,0.159 0.5418,0.159 0.2391,0 0.2551,-0.191 0.2551,-0.422 v -3.0532 c 0,-0.9723 -0.1914,-0.9563 -0.7891,-0.9641 v -0.223 h 2.4391"
       style="fill:#000000;fill-opacity:1;fill-rule:nonzero;stroke:none;stroke-width:0.1"
       id="path72" /><path
       d="M 10.2879,88.1098 H 6.56992 L 6.05586,86.5676 h 0.23906 c 0.29883,0.7293 0.58555,0.7414 1.01641,0.7414 H 9.25977 L 5.13516,82.6465 5.27891,82.5031 c 0.19101,0.1313 0.28672,0.2032 0.53789,0.2032 0.70508,0 1.15976,-0.6098 2.09179,-0.8848 0.28711,-0.0836 0.63399,-0.1434 0.98047,-0.1434 0.275,0 0.56211,0.0356 0.825,0.1317 0.41834,0.1433 0.56174,0.4422 0.56174,0.6933 0,0.2985 -0.2149,0.5735 -0.58557,0.5735 -0.26289,0 -0.44257,-0.1434 -0.44257,-0.3586 0,-0.2629 0.29882,-0.3825 0.29882,-0.5379 0,-0.1672 -0.22695,-0.3106 -0.4539,-0.3106 -1.14805,0 -1.23164,1.4106 -2.88125,1.6379 l 4.07657,4.6024"
       style="fill:#000000;fill-opacity:1;fill-rule:nonzero;stroke:none;stroke-width:0.1"
       id="path74" /><path
       d="m 14.6961,86.0191 c 0,0.2071 -0.175,0.4461 -0.4461,0.4461 -0.2234,0 -0.4223,-0.1832 -0.4223,-0.4461 0,-0.2632 0.1989,-0.4386 0.4305,-0.4386 0.2629,0 0.4379,0.2312 0.4379,0.4386 z m -0.3504,-1.2593 c 0,0 -1.2594,-0.2153 -1.5383,-0.2313 v -0.2629 c 0.3508,0 0.566,0 0.566,-0.223 0,-0.1598 -0.1039,-0.5578 -0.1593,-0.7414 l -0.6137,-2.184 c -0.1117,-0.3824 -0.3984,-1.5859 -0.9649,-1.5859 -0.0792,0 -0.1589,0.016 -0.1589,0.0878 0,0.0875 0.1433,0.0954 0.1433,0.2629 0,0.1594 -0.1594,0.2469 -0.3187,0.2469 -0.2551,0 -0.359,-0.1988 -0.359,-0.3426 0,-0.2871 0.3113,-0.4461 0.6777,-0.4461 1.068,0 1.4985,0.9723 1.7692,1.9684 l 0.9566,3.4512"
       style="fill:#000000;fill-opacity:1;fill-rule:nonzero;stroke:none;stroke-width:0.1"
       id="path76" /></g></svg>