<?xml version="1.0" encoding="UTF-8" standalone="no"?>
<svg
   xmlns:ns0="http://www.iki.fi/pav/software/textext/"
   xmlns:dc="http://purl.org/dc/elements/1.1/"
   xmlns:cc="http://creativecommons.org/ns#"
   xmlns:rdf="http://www.w3.org/1999/02/22-rdf-syntax-ns#"
   xmlns:svg="http://www.w3.org/2000/svg"
   xmlns="http://www.w3.org/2000/svg"
   id="svg103"
   version="1.2"
   viewBox="0 0 163.24052 147.9561"
   height="147.9561pt"
   width="163.24052pt">
  <metadata
     id="metadata107">
    <rdf:RDF>
      <cc:Work
         rdf:about="">
        <dc:format>image/svg+xml</dc:format>
        <dc:type
           rdf:resource="http://purl.org/dc/dcmitype/StillImage" />
        <dc:title></dc:title>
      </cc:Work>
    </rdf:RDF>
  </metadata>
  <defs
     id="defs8">
    <clipPath
       id="clip1">
      <path
         d="m 56,0 h 2 v 188.46875 h -2 z m 0,0"
         id="path2" />
    </clipPath>
    <clipPath
       id="clip2">
      <path
         d="M 0,15.601562 H 180.96484 V 172.85937 H 0 Z m 0,0"
         id="path5" />
    </clipPath>
  </defs>
  <path
     id="path18"
     d="m 50.030665,98.066058 h 1.167969"
     style="fill:none;stroke:#cacaff;stroke-width:0.38992;stroke-linecap:butt;stroke-linejoin:miter;stroke-miterlimit:10;stroke-opacity:1" />
  <path
     id="path20"
     d="m 50.030665,81.687147 h 1.167969"
     style="fill:none;stroke:#cacaff;stroke-width:0.38992;stroke-linecap:butt;stroke-linejoin:miter;stroke-miterlimit:10;stroke-opacity:1" />
  <path
     id="path22"
     d="m 50.030665,65.698866 h 1.167969"
     style="fill:none;stroke:#cacaff;stroke-width:0.38992;stroke-linecap:butt;stroke-linejoin:miter;stroke-miterlimit:10;stroke-opacity:1" />
  <path
     id="path26"
     d="m 50.030665,32.948866 h 1.167969"
     style="fill:none;stroke:#cacaff;stroke-width:0.38992;stroke-linecap:butt;stroke-linejoin:miter;stroke-miterlimit:10;stroke-opacity:1" />
  <path
     id="path28"
     d="m 50.030665,16.56996 h 1.167969"
     style="fill:none;stroke:#cacaff;stroke-width:0.38992;stroke-linecap:butt;stroke-linejoin:miter;stroke-miterlimit:10;stroke-opacity:1" />
  <path
     id="path30"
     d="m 50.030665,0.19496 h 1.167969"
     style="fill:none;stroke:#cacaff;stroke-width:0.38992;stroke-linecap:butt;stroke-linejoin:miter;stroke-miterlimit:10;stroke-opacity:1" />
  <path
     id="path32"
     d="m 127.64785,84.886366 c 0,34.597664 -28.480461,62.644534 -63.609372,62.644534 -35.132813,0 -63.61328114,-28.04687 -63.61328114,-62.644534 0,-34.597656 28.48046814,-62.644531 63.61328114,-62.644531 35.128911,0 63.609372,28.046875 63.609372,62.644531 z m 0,0"
     style="fill:none;stroke:#000000;stroke-width:0.85039371;stroke-linecap:round;stroke-linejoin:round;stroke-miterlimit:10;stroke-dasharray:none;stroke-opacity:1" />
  <path
     id="path34"
     d="m 92.98379,29.105116 -3.761719,7.253906 7.363278,3.707032 3.765631,-7.253907 -7.36719,-3.707031"
     style="fill:#000000;fill-opacity:0.09803922;fill-rule:evenodd;stroke:#000000;stroke-width:1.16976094;stroke-linecap:round;stroke-linejoin:round;stroke-miterlimit:10;stroke-opacity:1" />
  <g
     transform="translate(-5.7232411,-18.269884)"
     id="g38"
     clip-path="url(#clip2)"
     style="clip-rule:nonzero;stroke-width:0.85039371;stroke-miterlimit:10;stroke-dasharray:none">
    <path
       id="path36"
       d="M 44.266345,19.97481 147.64216,72.001399"
       style="fill:none;stroke:#000000;stroke-width:0.85039371;stroke-linecap:round;stroke-linejoin:round;stroke-miterlimit:10;stroke-dasharray:none;stroke-opacity:1" />
  </g>
  <path
     id="path40"
     d="M 64.038478,84.886366 90.292384,34.296522"
     style="fill:none;stroke:#000000;stroke-width:0.85039371;stroke-linecap:round;stroke-linejoin:round;stroke-miterlimit:10;stroke-dasharray:none;stroke-opacity:1" />
  <path
     id="path42"
     d="m 92.98379,29.105116 -1.394531,5.863281 -2.597656,-1.34375 z m 0,0"
     style="fill:#000000;fill-opacity:1;fill-rule:evenodd;stroke:none" />
  <path
     id="path44"
     d="m 65.206447,84.886366 c 0,0.64844 -0.523438,1.16797 -1.167969,1.16797 -0.648438,0 -1.171875,-0.51953 -1.171875,-1.16797 0,-0.64453 0.523437,-1.17187 1.171875,-1.17187 0.644531,0 1.167969,0.52734 1.167969,1.17187 z m 0,0"
     style="fill:#000000;fill-opacity:1;fill-rule:nonzero;stroke:#000000;stroke-width:0.38992;stroke-linecap:round;stroke-linejoin:round;stroke-miterlimit:10;stroke-opacity:1" />
  <path
     id="path60"
     d="m 31.82754,31.562147 c 0,0.644531 -0.523437,1.167969 -1.171875,1.167969 -0.644531,0 -1.167968,-0.523438 -1.167968,-1.167969 0,-0.648437 0.523437,-1.171875 1.167968,-1.171875 0.648438,0 1.171875,0.523438 1.171875,1.171875 z m 0,0"
     style="fill:#000000;fill-opacity:1;fill-rule:nonzero;stroke:#000000;stroke-width:0.38992;stroke-linecap:round;stroke-linejoin:round;stroke-miterlimit:10;stroke-opacity:1" />
  <path
     id="path76"
     d="m 94.151759,29.105116 c 0,0.648438 -0.519531,1.171875 -1.167969,1.171875 -0.644531,0 -1.167969,-0.523437 -1.167969,-1.171875 0,-0.644531 0.523438,-1.167969 1.167969,-1.167969 0.648438,0 1.167969,0.523438 1.167969,1.167969 z m 0,0"
     style="fill:#000000;fill-opacity:1;fill-rule:nonzero;stroke:#000000;stroke-width:0.38992;stroke-linecap:round;stroke-linejoin:round;stroke-miterlimit:10;stroke-opacity:1" />
  <path
     id="path98"
     d="m 49.026759,6.394178 c 0,0.644532 -0.527344,1.167969 -1.171875,1.167969 -0.644531,0 -1.167969,-0.523437 -1.167969,-1.167969 0,-0.648437 0.523438,-1.171874 1.167969,-1.171874 0.644531,0 1.171875,0.523437 1.171875,1.171874 z m 0,0"
     style="fill:#000000;fill-opacity:1;fill-rule:nonzero;stroke:#000000;stroke-width:0.38992;stroke-linecap:round;stroke-linejoin:round;stroke-miterlimit:10;stroke-opacity:1" />
  <g
     style="font-style:normal;font-variant:normal;font-weight:normal;font-stretch:normal;letter-spacing:normal;word-spacing:normal;text-anchor:start;fill:none;fill-opacity:1;fill-rule:evenodd;stroke:#000000;stroke-linecap:butt;stroke-linejoin:miter;stroke-miterlimit:10.43299961;stroke-dasharray:none;stroke-dashoffset:0;stroke-opacity:1"
     id="content"
     transform="matrix(1,0,0,-1,-52.169469,681.65516)"
     xml:space="preserve"
     stroke-miterlimit="10.433"
     font-style="normal"
     font-variant="normal"
     font-weight="normal"
     font-stretch="normal"
     font-size-adjust="none"
     letter-spacing="normal"
     word-spacing="normal"
     ns0:version="0.11.0"
     ns0:texconverter="pdflatex"
     ns0:pdfconverter="pstoedit"
     ns0:text="$P_0=(x_0,y_0)$\t\t\t\t\t\t\t\t"
     ns0:preamble="/home/r7/M\xc3\xbasica/default_packages.tex"
     ns0:scale="1.00000002835"
     ns0:alignment="middle center"
     ns0:jacobian_sqrt="1.0">
<path
   style="fill:#000000;stroke-width:0"
   d="m 157.23,663.39 v 0.09 l -0.01,0.08 -0.01,0.09 -0.01,0.08 -0.02,0.09 -0.02,0.08 -0.03,0.09 -0.03,0.08 -0.04,0.08 -0.04,0.08 -0.04,0.08 -0.05,0.08 -0.06,0.07 -0.07,0.08 -0.06,0.07 -0.08,0.07 -0.08,0.06 -0.09,0.06 -0.09,0.07 -0.11,0.05 -0.1,0.06 -0.12,0.05 -0.12,0.04 -0.13,0.04 -0.14,0.04 -0.15,0.03 -0.15,0.03 -0.17,0.03 -0.08,0.01 -0.09,0.01 h -0.09 l -0.09,0.01 h -0.09 l -0.1,0.01 h -0.09 -0.1 l -0.11,-0.34 c 1.17,0 1.64,-0.49 1.64,-1.44 v 0 c 0,-1.45 -1.05,-2.06 -2.3,-2.06 h -0.7 l 0.97,3.5 h 0.39 l 0.11,0.34 h -2.75 l -0.03,-0.2 c 0.4,-0.03 0.9,-0.03 0.9,-0.58 0,-0.16 -0.05,-0.36 -0.17,-0.8 l -1.41,-5.08 c -0.32,-1.2 -0.7,-1.14 -1.23,-1.18 l -0.03,-0.21 h 3.23 l 0.02,0.21 c -0.3,0 -0.89,0.04 -0.89,0.62 0,0.11 0.01,0.25 0.06,0.41 l 0.7,2.58 c 0.47,0 0.94,0 0.94,0 2.56,0 3.41,1.26 3.41,2.34 z"
   id="path968" />
<path
   style="fill:#000000;stroke-width:0"
   d="m 161.06,658.08 v 0.13 0.14 l -0.01,0.13 -0.02,0.13 -0.01,0.12 -0.03,0.13 -0.02,0.12 -0.03,0.13 -0.03,0.12 -0.04,0.11 -0.04,0.12 -0.04,0.11 -0.05,0.1 -0.05,0.11 -0.05,0.1 -0.06,0.09 -0.06,0.1 -0.07,0.08 -0.07,0.09 -0.07,0.08 -0.08,0.07 -0.08,0.07 -0.08,0.06 -0.09,0.06 -0.09,0.05 -0.09,0.04 -0.1,0.04 -0.1,0.03 -0.11,0.03 -0.11,0.02 -0.11,0.01 h -0.11 c -1.27,0 -1.93,-1.3 -1.93,-2.72 0,-1.45 0.65,-2.73 1.93,-2.73 l -0.02,0.31 c -0.81,0 -0.91,1.31 -0.91,2.42 0,0.92 0.05,2.41 0.93,2.41 0.86,0 0.92,-1.49 0.92,-2.41 v 0 c 0,-1.11 -0.28,-2.42 -0.94,-2.42 l 0.02,-0.31 c 1.2,0 1.9,1.28 1.9,2.73 z"
   id="path970" />
<polygon
   style="fill:#000000;stroke-width:0"
   points="174.29,661.78 166.32,661.78 166.32,661.11 174.29,661.11 "
   id="polygon972" />
<polygon
   style="fill:#000000;stroke-width:0"
   points="174.29,659.38 166.32,659.38 166.32,658.7 174.29,658.7 "
   id="polygon974" />
<path
   style="fill:#000000;stroke-width:0"
   d="m 182.9,654.69 v 0.2 c -1.45,0.84 -2.12,2.52 -2.12,5.36 0,2.8 0.65,4.45 2.12,5.33 v 0.2 c -2.06,-1.05 -3.26,-3.09 -3.26,-5.55 0,-2.48 1.17,-4.4 3.26,-5.54 z"
   id="path976" />
<path
   style="fill:#000000;stroke-width:0"
   d="m 189.27,662.23 v 0.03 l -0.01,0.03 v 0.02 l -0.01,0.03 v 0.02 l -0.01,0.03 -0.01,0.02 -0.01,0.02 -0.01,0.02 -0.02,0.02 -0.01,0.02 -0.02,0.02 -0.01,0.02 -0.02,0.01 -0.02,0.02 -0.01,0.01 -0.02,0.02 -0.02,0.01 -0.02,0.01 -0.02,0.01 -0.03,0.01 -0.02,0.01 -0.02,0.01 -0.02,0.01 -0.02,0.01 h -0.03 l -0.02,0.01 h -0.02 -0.02 l -0.03,0.01 h -0.02 -0.02 c -0.59,0 -1.36,-0.91 -1.95,-1.85 0,0.02 -0.1,0.41 -0.1,0.41 -0.18,0.78 -0.42,1.23 -0.81,1.44 0,0 -1.36,-0.3 -1.51,-0.35 v -0.2 c 0.23,0.06 0.4,0.09 0.54,0.09 0.66,0 0.77,-0.64 1.22,-2.35 -0.55,-0.8 -1.37,-2.11 -1.72,-2.11 -0.28,0 -0.3,0.28 -0.65,0.28 -0.27,0 -0.44,-0.19 -0.44,-0.44 0,-0.3 0.23,-0.52 0.56,-0.52 0.84,0 1.61,1.49 2.34,2.43 0.04,-0.1 0.3,-1.16 0.3,-1.16 0.31,-1.09 0.52,-1.27 0.83,-1.27 0.36,0 0.92,0.36 1.48,1.41 l -0.17,0.11 c -0.19,-0.27 -0.53,-0.84 -0.83,-0.84 -0.42,0 -0.65,1.7 -0.95,2.76 0.06,0.09 0.89,1.42 1.34,1.42 0.22,0 0.43,-0.18 0.63,-0.18 0.3,0 0.41,0.23 0.41,0.46 z"
   id="path978" />
<path
   style="fill:#000000;stroke-width:0"
   d="m 193.87,658.08 v 0.13 l -0.01,0.14 -0.01,0.13 -0.01,0.13 -0.02,0.12 -0.02,0.13 -0.03,0.12 -0.03,0.13 -0.03,0.12 -0.03,0.11 -0.04,0.12 -0.05,0.11 -0.04,0.1 -0.05,0.11 -0.06,0.1 -0.06,0.09 -0.06,0.1 -0.06,0.08 -0.07,0.09 -0.08,0.08 -0.07,0.07 -0.08,0.07 -0.09,0.06 -0.08,0.06 -0.09,0.05 -0.1,0.04 -0.1,0.04 -0.1,0.03 -0.1,0.03 -0.11,0.02 -0.11,0.01 h -0.12 c -1.26,0 -1.92,-1.3 -1.92,-2.72 0,-1.45 0.64,-2.73 1.92,-2.73 l -0.01,0.31 c -0.82,0 -0.91,1.31 -0.91,2.42 0,0.92 0.05,2.41 0.92,2.41 0.86,0 0.92,-1.49 0.92,-2.41 v 0 c 0,-1.11 -0.28,-2.42 -0.93,-2.42 l 0.01,-0.31 c 1.2,0 1.91,1.28 1.91,2.73 z"
   id="path980" />
<path
   style="fill:#000000;stroke-width:0"
   d="m 197.19,657.38 v 0.03 0.04 0.03 0.04 l -0.01,0.03 v 0.03 l -0.01,0.03 v 0.03 l -0.01,0.06 -0.02,0.06 -0.01,0.05 -0.02,0.06 -0.02,0.04 -0.02,0.05 -0.02,0.04 -0.03,0.04 -0.02,0.04 -0.03,0.04 -0.03,0.03 -0.02,0.03 -0.03,0.03 -0.03,0.03 -0.03,0.02 -0.03,0.03 -0.04,0.02 -0.03,0.01 -0.03,0.02 -0.03,0.01 -0.03,0.02 -0.03,0.01 -0.03,0.01 h -0.03 l -0.03,0.01 h -0.03 l -0.02,0.01 h -0.03 c -0.19,0 -0.69,-0.13 -0.69,-0.69 0,-0.44 0.38,-0.58 0.58,-0.58 0.11,0 0.14,0.05 0.24,0.05 0.06,0 0.18,-0.08 0.18,-0.28 0,-0.16 -0.04,-0.61 -0.79,-1.16 v -0.23 c 0.62,0.42 1.23,1.04 1.23,1.86 z"
   id="path982" />
<path
   style="fill:#000000;stroke-width:0"
   d="m 206.34,661.89 v 0.05 0.04 0.05 l -0.01,0.04 -0.01,0.05 -0.01,0.04 -0.01,0.04 -0.01,0.03 -0.01,0.04 -0.02,0.03 -0.01,0.04 -0.02,0.03 -0.02,0.03 -0.02,0.03 -0.02,0.03 -0.02,0.02 -0.02,0.03 -0.02,0.02 -0.03,0.02 -0.02,0.02 -0.03,0.02 -0.03,0.02 -0.02,0.01 -0.03,0.02 -0.03,0.01 -0.03,0.01 -0.03,0.01 h -0.03 l -0.03,0.01 h -0.03 l -0.03,0.01 h -0.04 c -0.29,0 -0.47,-0.24 -0.47,-0.49 0,-0.62 0.66,-0.43 0.66,-0.84 0,-0.77 -1.5,-2.84 -1.83,-3.38 -0.12,2.4 -0.47,4.19 -0.87,4.71 l -1.75,-0.33 v -0.2 c 0.12,0.03 0.28,0.04 0.44,0.04 0.9,0 0.95,-0.9 1.42,-5.14 -0.18,-0.51 -1.24,-1.73 -1.55,-1.73 -0.23,0 -0.22,0.39 -0.59,0.39 -0.28,0 -0.54,-0.27 -0.54,-0.55 0,-0.37 0.36,-0.48 0.55,-0.48 0.8,0 2.25,1.79 3.47,3.62 1.08,1.64 1.7,2.88 1.7,3.58 z"
   id="path984" />
<path
   style="fill:#000000;stroke-width:0"
   d="m 211.04,658.08 -0.01,0.13 v 0.14 l -0.01,0.13 -0.02,0.13 -0.01,0.12 -0.02,0.13 -0.03,0.12 -0.03,0.13 -0.03,0.12 -0.04,0.11 -0.04,0.12 -0.04,0.11 -0.05,0.1 -0.05,0.11 -0.05,0.1 -0.06,0.09 -0.06,0.1 -0.07,0.08 -0.07,0.09 -0.07,0.08 -0.08,0.07 -0.08,0.07 -0.08,0.06 -0.09,0.06 -0.09,0.05 -0.09,0.04 -0.1,0.04 -0.1,0.03 -0.11,0.03 -0.1,0.02 -0.12,0.01 h -0.11 c -1.27,0 -1.92,-1.3 -1.92,-2.72 0,-1.45 0.64,-2.73 1.92,-2.73 l -0.02,0.31 c -0.81,0 -0.9,1.31 -0.9,2.42 0,0.92 0.04,2.41 0.92,2.41 0.86,0 0.92,-1.49 0.92,-2.41 v 0 c 0,-1.11 -0.28,-2.42 -0.94,-2.42 l 0.02,-0.31 c 1.2,0 1.91,1.28 1.91,2.73 z"
   id="path986" />
<path
   style="fill:#000000;stroke-width:0"
   d="m 215.41,660.22 -0.01,0.23 -0.01,0.23 -0.01,0.22 -0.03,0.22 -0.03,0.22 -0.03,0.22 -0.05,0.21 -0.05,0.2 -0.05,0.21 -0.07,0.2 -0.07,0.19 -0.07,0.2 -0.08,0.18 -0.09,0.19 -0.1,0.18 -0.1,0.18 -0.1,0.17 -0.12,0.17 -0.11,0.17 -0.13,0.16 -0.13,0.16 -0.14,0.15 -0.14,0.15 -0.15,0.14 -0.15,0.14 -0.16,0.14 -0.17,0.13 -0.17,0.13 -0.18,0.13 -0.18,0.12 -0.19,0.11 -0.2,0.11 v -0.22 c 1.47,-0.84 2.13,-2.51 2.13,-5.34 0,-2.81 -0.66,-4.47 -2.13,-5.33 v -0.2 c 2.06,1.03 3.27,3.08 3.27,5.53 z"
   id="path988" />
</g>  <g
     id="g1304"
     transform="translate(125.30016,27.284706)">
    <path
       id="path1158"
       d="m -87.86152,66.44135 h -0.25 c -0.09,0.15 -0.2,0.33 -0.5,0.33 -0.26,0 -1.04,-0.33 -1.86,-0.33 -2.62,0 -5.07,2.53 -5.07,5.11 0,2.07 1.54,3.28 3.26,3.28 1.5,0 2.83,-0.92 3.44,-1.97 l -0.33,-0.02 c -0.58,0.72 -1.48,1.47 -2.7,1.47 -1.32,0 -2.19,-0.92 -2.19,-2.64 0,-2.09 1.41,-4.83 3.69,-4.83 1.26,0 1.76,0.83 1.76,2.11 h 0.22 z"
       style="font-style:normal;font-variant:normal;font-weight:normal;font-stretch:normal;letter-spacing:normal;word-spacing:normal;text-anchor:start;fill:#000000;fill-opacity:1;fill-rule:evenodd;stroke:#000000;stroke-width:0;stroke-linecap:butt;stroke-linejoin:miter;stroke-miterlimit:10.43299961;stroke-dasharray:none;stroke-dashoffset:0;stroke-opacity:1" />
    <polygon
       transform="matrix(1,0,0,-1,-244.99152,731.89135)"
       id="polygon1160"
       points="170.89,661.11 170.89,661.78 162.92,661.78 162.92,661.11 "
       style="font-style:normal;font-variant:normal;font-weight:normal;font-stretch:normal;letter-spacing:normal;word-spacing:normal;text-anchor:start;fill:#000000;fill-opacity:1;fill-rule:evenodd;stroke:#000000;stroke-width:0;stroke-linecap:butt;stroke-linejoin:miter;stroke-miterlimit:10.43299961;stroke-dasharray:none;stroke-dashoffset:0;stroke-opacity:1" />
    <polygon
       transform="matrix(1,0,0,-1,-244.99152,731.89135)"
       id="polygon1162"
       points="170.89,658.7 170.89,659.38 162.92,659.38 162.92,658.7 "
       style="font-style:normal;font-variant:normal;font-weight:normal;font-stretch:normal;letter-spacing:normal;word-spacing:normal;text-anchor:start;fill:#000000;fill-opacity:1;fill-rule:evenodd;stroke:#000000;stroke-width:0;stroke-linecap:butt;stroke-linejoin:miter;stroke-miterlimit:10.43299961;stroke-dasharray:none;stroke-dashoffset:0;stroke-opacity:1" />
    <path
       id="path1164"
       d="m -65.49152,77.20135 v -0.2 c -1.45,-0.84 -2.12,-2.52 -2.12,-5.36 0,-2.8 0.65,-4.45 2.12,-5.33 v -0.2 c -2.06,1.05 -3.27,3.09 -3.27,5.55 0,2.48 1.18,4.4 3.27,5.54 z"
       style="font-style:normal;font-variant:normal;font-weight:normal;font-stretch:normal;letter-spacing:normal;word-spacing:normal;text-anchor:start;fill:#000000;fill-opacity:1;fill-rule:evenodd;stroke:#000000;stroke-width:0;stroke-linecap:butt;stroke-linejoin:miter;stroke-miterlimit:10.43299961;stroke-dasharray:none;stroke-dashoffset:0;stroke-opacity:1" />
    <path
       id="path1166"
       d="m -59.56152,73.42135 -0.18,-0.14 c -0.29,0.39 -0.7,0.91 -0.92,0.91 -0.09,0 -0.15,-0.08 -0.15,-0.21 0,-0.45 0.98,-3.25 0.98,-3.97 0,-0.6 -0.45,-0.81 -0.72,-0.81 -1.04,0 -2.28,1.72 -2.83,2.64 l 1.52,-5.73 c 0,0 -1.61,0.28 -1.94,0.31 v 0.22 c 0.47,0 0.78,0.05 0.78,0.41 0,0.23 -0.14,0.79 -0.23,1.09 l -1.77,6.52 h 0.91 c 0.03,-0.15 0.2,-0.8 0.2,-0.8 0.75,-2.8 2.36,-3.99 2.82,-3.99 0.18,0 0.34,0.13 0.34,0.36 0,0.49 -1.02,3.41 -1,4 0,0.3 0.14,0.57 0.5,0.57 0.67,0 1.31,-0.8 1.69,-1.38 z"
       style="font-style:normal;font-variant:normal;font-weight:normal;font-stretch:normal;letter-spacing:normal;word-spacing:normal;text-anchor:start;fill:#000000;fill-opacity:1;fill-rule:evenodd;stroke:#000000;stroke-width:0;stroke-linecap:butt;stroke-linejoin:miter;stroke-miterlimit:10.43299961;stroke-dasharray:none;stroke-dashoffset:0;stroke-opacity:1" />
    <path
       id="path1168"
       d="m -56.28152,74.51135 v -0.03 -0.04 -0.03 -0.04 -0.03 l -0.01,-0.03 v -0.03 l -0.01,-0.03 -0.01,-0.06 -0.01,-0.06 -0.02,-0.05 -0.01,-0.06 -0.02,-0.04 -0.03,-0.05 -0.02,-0.04 -0.02,-0.04 -0.03,-0.04 -0.02,-0.04 -0.03,-0.03 -0.03,-0.03 -0.03,-0.03 -0.03,-0.03 -0.03,-0.02 -0.03,-0.03 -0.03,-0.02 -0.03,-0.01 -0.03,-0.02 -0.04,-0.01 -0.03,-0.02 -0.03,-0.01 -0.03,-0.01 h -0.03 l -0.03,-0.01 h -0.02 l -0.03,-0.01 h -0.03 c -0.18,0 -0.68,0.13 -0.68,0.69 0,0.44 0.37,0.58 0.57,0.58 0.11,0 0.15,-0.05 0.24,-0.05 0.06,0 0.19,0.08 0.19,0.28 0,0.16 -0.05,0.61 -0.8,1.16 v 0.23 c 0.62,-0.42 1.23,-1.04 1.23,-1.86 z"
       style="font-style:normal;font-variant:normal;font-weight:normal;font-stretch:normal;letter-spacing:normal;word-spacing:normal;text-anchor:start;fill:#000000;fill-opacity:1;fill-rule:evenodd;stroke:#000000;stroke-width:0;stroke-linecap:butt;stroke-linejoin:miter;stroke-miterlimit:10.43299961;stroke-dasharray:none;stroke-dashoffset:0;stroke-opacity:1" />
    <path
       id="path1170"
       d="m -47.28152,69.33135 h -2.3 l -0.04,0.2 c 0.22,0 0.58,0.03 0.58,0.22 0,0.2 -0.44,0.61 -0.77,0.86 0,0 -1.53,1.19 -1.72,1.36 l 1.55,-5.86 c 0,0 -1.61,0.28 -1.94,0.31 v 0.22 c 0.47,0 0.78,0.05 0.78,0.41 0,0.23 -0.15,0.79 -0.23,1.09 l -1.77,6.52 h 0.91 l 0.59,-2.21 0.7,-0.54 c 0.38,1 0.75,1.96 0.75,1.96 0.27,0.72 0.61,0.93 0.86,0.93 0.6,0 1.25,-0.86 1.55,-1.38 l -0.19,-0.12 c -0.36,0.56 -0.65,0.87 -0.9,0.87 -0.17,0 -0.35,-0.2 -0.49,-0.56 0,0 -0.47,-1.33 -0.87,-2.27 l 0.56,-0.48 c 0.94,-0.78 1.7,-1.3 2.36,-1.3 z"
       style="font-style:normal;font-variant:normal;font-weight:normal;font-stretch:normal;letter-spacing:normal;word-spacing:normal;text-anchor:start;fill:#000000;fill-opacity:1;fill-rule:evenodd;stroke:#000000;stroke-width:0;stroke-linecap:butt;stroke-linejoin:miter;stroke-miterlimit:10.43299961;stroke-dasharray:none;stroke-dashoffset:0;stroke-opacity:1" />
    <path
       id="path1172"
       d="m -42.93152,71.67135 v -0.23 l -0.01,-0.23 -0.02,-0.22 -0.02,-0.22 -0.03,-0.22 -0.04,-0.22 -0.04,-0.21 -0.05,-0.2 -0.06,-0.21 -0.06,-0.2 -0.07,-0.19 -0.08,-0.2 -0.08,-0.18 -0.09,-0.19 -0.09,-0.18 -0.1,-0.18 -0.11,-0.17 -0.11,-0.17 -0.12,-0.17 -0.13,-0.16 -0.13,-0.16 -0.13,-0.15 -0.15,-0.15 -0.15,-0.14 -0.15,-0.14 -0.16,-0.14 -0.17,-0.13 -0.17,-0.13 -0.18,-0.13 -0.18,-0.12 -0.19,-0.11 -0.2,-0.11 v 0.22 c 1.47,0.84 2.13,2.51 2.13,5.34 0,2.81 -0.66,4.47 -2.13,5.33 v 0.2 c 2.06,-1.03 3.27,-3.08 3.27,-5.53 z"
       style="font-style:normal;font-variant:normal;font-weight:normal;font-stretch:normal;letter-spacing:normal;word-spacing:normal;text-anchor:start;fill:#000000;fill-opacity:1;fill-rule:evenodd;stroke:#000000;stroke-width:0;stroke-linecap:butt;stroke-linejoin:miter;stroke-miterlimit:10.43299961;stroke-dasharray:none;stroke-dashoffset:0;stroke-opacity:1" />
  </g>
  <g
     id="g1314"
     transform="translate(116.09304,-39.885709)">
    <path
       id="path1174"
       d="m -87.76152,82.94135 v -0.08 l -0.01,-0.09 -0.01,-0.08 -0.01,-0.09 -0.02,-0.08 -0.02,-0.09 -0.03,-0.08 -0.03,-0.08 -0.04,-0.08 -0.04,-0.09 -0.04,-0.07 -0.05,-0.08 -0.06,-0.08 -0.07,-0.07 -0.06,-0.07 -0.08,-0.07 -0.08,-0.07 -0.09,-0.06 -0.09,-0.06 -0.11,-0.06 -0.1,-0.05 -0.12,-0.05 -0.12,-0.05 -0.13,-0.04 -0.14,-0.04 -0.15,-0.03 -0.15,-0.03 -0.17,-0.02 -0.08,-0.01 -0.09,-0.01 -0.09,-0.01 h -0.09 l -0.09,-0.01 h -0.1 l -0.09,-0.01 h -0.1 l -0.11,0.35 c 1.17,0 1.64,0.48 1.64,1.44 v 0 c 0,1.45 -1.05,2.06 -2.3,2.06 h -0.7 l 0.97,-3.5 h 0.39 l 0.11,-0.35 h -2.75 l -0.03,0.21 c 0.4,0.03 0.9,0.03 0.9,0.58 0,0.15 -0.05,0.35 -0.17,0.79 l -1.41,5.08 c -0.32,1.2 -0.7,1.14 -1.23,1.19 l -0.03,0.2 h 3.23 l 0.02,-0.2 c -0.3,0 -0.89,-0.05 -0.89,-0.63 0,-0.11 0.01,-0.25 0.06,-0.4 l 0.7,-2.58 c 0.47,0 0.94,0 0.94,0 2.56,0 3.41,-1.27 3.41,-2.35 z"
       style="font-style:normal;font-variant:normal;font-weight:normal;font-stretch:normal;letter-spacing:normal;word-spacing:normal;text-anchor:start;fill:#000000;fill-opacity:1;fill-rule:evenodd;stroke:#000000;stroke-width:0;stroke-linecap:butt;stroke-linejoin:miter;stroke-miterlimit:10.43299961;stroke-dasharray:none;stroke-dashoffset:0;stroke-opacity:1" />
    <polygon
       transform="matrix(1,0,0,-1,-244.99152,731.89135)"
       id="polygon1176"
       points="171.03,647.34 163.06,647.34 163.06,646.66 171.03,646.66 "
       style="font-style:normal;font-variant:normal;font-weight:normal;font-stretch:normal;letter-spacing:normal;word-spacing:normal;text-anchor:start;fill:#000000;fill-opacity:1;fill-rule:evenodd;stroke:#000000;stroke-width:0;stroke-linecap:butt;stroke-linejoin:miter;stroke-miterlimit:10.43299961;stroke-dasharray:none;stroke-dashoffset:0;stroke-opacity:1" />
    <polygon
       transform="matrix(1,0,0,-1,-244.99152,731.89135)"
       id="polygon1178"
       points="171.03,644.93 163.06,644.93 163.06,644.26 171.03,644.26 "
       style="font-style:normal;font-variant:normal;font-weight:normal;font-stretch:normal;letter-spacing:normal;word-spacing:normal;text-anchor:start;fill:#000000;fill-opacity:1;fill-rule:evenodd;stroke:#000000;stroke-width:0;stroke-linecap:butt;stroke-linejoin:miter;stroke-miterlimit:10.43299961;stroke-dasharray:none;stroke-dashoffset:0;stroke-opacity:1" />
    <path
       id="path1180"
       d="m -65.34152,91.65135 v -0.21 c -1.46,-0.84 -2.13,-2.51 -2.13,-5.35 0,-2.8 0.66,-4.46 2.13,-5.33 v -0.21 c -2.07,1.05 -3.27,3.1 -3.27,5.55 0,2.49 1.17,4.41 3.27,5.55 z"
       style="font-style:normal;font-variant:normal;font-weight:normal;font-stretch:normal;letter-spacing:normal;word-spacing:normal;text-anchor:start;fill:#000000;fill-opacity:1;fill-rule:evenodd;stroke:#000000;stroke-width:0;stroke-linecap:butt;stroke-linejoin:miter;stroke-miterlimit:10.43299961;stroke-dasharray:none;stroke-dashoffset:0;stroke-opacity:1" />
    <path
       id="path1182"
       d="m -58.98152,84.10135 v -0.03 l -0.01,-0.02 v -0.03 -0.02 l -0.01,-0.03 -0.01,-0.02 -0.01,-0.02 -0.01,-0.03 -0.01,-0.02 -0.01,-0.02 -0.02,-0.01 -0.01,-0.02 -0.02,-0.02 -0.02,-0.02 -0.01,-0.01 -0.02,-0.02 -0.02,-0.01 -0.02,-0.01 -0.02,-0.02 -0.02,-0.01 -0.02,-0.01 -0.02,-0.01 -0.03,-0.01 h -0.02 l -0.02,-0.01 -0.02,-0.01 h -0.03 -0.02 l -0.02,-0.01 h -0.02 -0.03 -0.02 c -0.59,0 -1.36,0.9 -1.95,1.84 0,-0.01 -0.09,-0.4 -0.09,-0.4 -0.19,-0.79 -0.43,-1.24 -0.82,-1.44 0,0 -1.36,0.29 -1.51,0.34 v 0.2 c 0.23,-0.06 0.4,-0.09 0.54,-0.09 0.66,0 0.77,0.64 1.22,2.36 -0.54,0.8 -1.37,2.11 -1.72,2.11 -0.28,0 -0.29,-0.28 -0.65,-0.28 -0.27,0 -0.44,0.19 -0.44,0.44 0,0.29 0.23,0.51 0.56,0.51 0.85,0 1.61,-1.48 2.35,-2.42 0.03,0.09 0.29,1.16 0.29,1.16 0.32,1.09 0.52,1.26 0.83,1.26 0.36,0 0.92,-0.36 1.49,-1.4 l -0.18,-0.11 c -0.18,0.26 -0.53,0.84 -0.82,0.84 -0.43,0 -0.66,-1.7 -0.96,-2.77 0.07,-0.09 0.89,-1.42 1.35,-1.42 0.22,0 0.42,0.19 0.62,0.19 0.3,0 0.41,-0.23 0.41,-0.47 z"
       style="font-style:normal;font-variant:normal;font-weight:normal;font-stretch:normal;letter-spacing:normal;word-spacing:normal;text-anchor:start;fill:#000000;fill-opacity:1;fill-rule:evenodd;stroke:#000000;stroke-width:0;stroke-linecap:butt;stroke-linejoin:miter;stroke-miterlimit:10.43299961;stroke-dasharray:none;stroke-dashoffset:0;stroke-opacity:1" />
    <path
       id="path1184"
       d="m -55.63152,88.96135 v -0.04 -0.03 -0.04 -0.03 l -0.01,-0.03 v -0.04 -0.03 l -0.01,-0.03 -0.01,-0.06 -0.01,-0.06 -0.02,-0.05 -0.02,-0.05 -0.02,-0.05 -0.02,-0.05 -0.02,-0.04 -0.02,-0.04 -0.03,-0.04 -0.03,-0.03 -0.02,-0.04 -0.03,-0.03 -0.03,-0.03 -0.03,-0.02 -0.03,-0.03 -0.03,-0.02 -0.03,-0.02 -0.04,-0.02 -0.03,-0.02 -0.03,-0.01 -0.03,-0.01 -0.03,-0.01 -0.03,-0.01 -0.03,-0.01 h -0.03 l -0.02,-0.01 h -0.03 -0.03 c -0.18,0 -0.68,0.12 -0.68,0.69 0,0.43 0.37,0.57 0.57,0.57 0.11,0 0.15,-0.04 0.24,-0.04 0.06,0 0.19,0.08 0.19,0.28 0,0.16 -0.05,0.61 -0.8,1.16 v 0.23 c 0.62,-0.42 1.23,-1.05 1.23,-1.86 z"
       style="font-style:normal;font-variant:normal;font-weight:normal;font-stretch:normal;letter-spacing:normal;word-spacing:normal;text-anchor:start;fill:#000000;fill-opacity:1;fill-rule:evenodd;stroke:#000000;stroke-width:0;stroke-linecap:butt;stroke-linejoin:miter;stroke-miterlimit:10.43299961;stroke-dasharray:none;stroke-dashoffset:0;stroke-opacity:1" />
    <path
       id="path1186"
       d="m -46.47152,84.44135 v -0.04 l -0.01,-0.05 v -0.04 l -0.01,-0.05 v -0.04 l -0.01,-0.04 -0.01,-0.04 -0.02,-0.04 -0.01,-0.03 -0.01,-0.04 -0.02,-0.03 -0.02,-0.03 -0.01,-0.03 -0.02,-0.03 -0.02,-0.03 -0.03,-0.03 -0.02,-0.02 -0.02,-0.02 -0.03,-0.03 -0.02,-0.02 -0.03,-0.01 -0.02,-0.02 -0.03,-0.02 -0.03,-0.01 -0.03,-0.01 -0.03,-0.01 -0.03,-0.01 -0.03,-0.01 h -0.03 l -0.03,-0.01 h -0.03 -0.03 c -0.3,0 -0.47,0.23 -0.47,0.48 0,0.63 0.65,0.44 0.65,0.85 0,0.76 -1.5,2.84 -1.83,3.37 -0.12,-2.39 -0.46,-4.19 -0.87,-4.7 l -1.75,0.33 v 0.2 c 0.12,-0.03 0.28,-0.05 0.44,-0.05 0.9,0 0.95,0.91 1.42,5.14 -0.17,0.52 -1.24,1.74 -1.55,1.74 -0.23,0 -0.22,-0.39 -0.59,-0.39 -0.28,0 -0.53,0.26 -0.53,0.54 0,0.38 0.36,0.49 0.54,0.49 0.8,0 2.25,-1.8 3.47,-3.63 1.08,-1.64 1.71,-2.87 1.71,-3.58 z"
       style="font-style:normal;font-variant:normal;font-weight:normal;font-stretch:normal;letter-spacing:normal;word-spacing:normal;text-anchor:start;fill:#000000;fill-opacity:1;fill-rule:evenodd;stroke:#000000;stroke-width:0;stroke-linecap:butt;stroke-linejoin:miter;stroke-miterlimit:10.43299961;stroke-dasharray:none;stroke-dashoffset:0;stroke-opacity:1" />
    <path
       id="path1188"
       d="m -41.87152,86.12135 v -0.23 l -0.01,-0.23 -0.02,-0.23 -0.02,-0.22 -0.03,-0.22 -0.04,-0.21 -0.04,-0.21 -0.05,-0.21 -0.05,-0.2 -0.07,-0.2 -0.07,-0.2 -0.07,-0.19 -0.08,-0.19 -0.09,-0.18 -0.1,-0.19 -0.1,-0.17 -0.1,-0.18 -0.12,-0.17 -0.12,-0.16 -0.12,-0.16 -0.13,-0.16 -0.14,-0.15 -0.14,-0.15 -0.15,-0.15 -0.16,-0.14 -0.16,-0.14 -0.16,-0.13 -0.17,-0.13 -0.18,-0.12 -0.19,-0.12 -0.19,-0.12 -0.19,-0.11 v 0.22 c 1.47,0.85 2.12,2.52 2.12,5.35 0,2.81 -0.65,4.47 -2.12,5.32 v 0.21 c 2.06,-1.03 3.26,-3.08 3.26,-5.53 z"
       style="font-style:normal;font-variant:normal;font-weight:normal;font-stretch:normal;letter-spacing:normal;word-spacing:normal;text-anchor:start;fill:#000000;fill-opacity:1;fill-rule:evenodd;stroke:#000000;stroke-width:0;stroke-linecap:butt;stroke-linejoin:miter;stroke-miterlimit:10.43299961;stroke-dasharray:none;stroke-dashoffset:0;stroke-opacity:1" />
  </g>
  <g
     style="font-style:normal;font-variant:normal;font-weight:normal;font-stretch:normal;letter-spacing:normal;word-spacing:normal;text-anchor:start;fill:none;fill-opacity:1;fill-rule:evenodd;stroke:#000000;stroke-linecap:butt;stroke-linejoin:miter;stroke-miterlimit:10.43299961;stroke-dasharray:none;stroke-dashoffset:0;stroke-opacity:1"
     id="g1376"
     transform="matrix(1,0,0,-1,-116.79073,673.18181)"
     xml:space="preserve"
     stroke-miterlimit="10.433"
     font-style="normal"
     font-variant="normal"
     font-weight="normal"
     font-stretch="normal"
     font-size-adjust="none"
     letter-spacing="normal"
     word-spacing="normal"
     ns0:version="0.11.0"
     ns0:texconverter="pdflatex"
     ns0:pdfconverter="pstoedit"
     ns0:text="$Q$"
     ns0:preamble="/home/r7/M\xc3\xbasica/default_packages.tex"
     ns0:scale="1.00000002835"
     ns0:alignment="middle center"
     ns0:jacobian_sqrt="1.0">
<path
   style="fill:#000000;stroke-width:0"
   d="m 157.99,662.47 v 0.19 l -0.01,0.18 -0.02,0.17 -0.02,0.17 -0.03,0.16 -0.03,0.16 -0.04,0.15 -0.05,0.14 -0.05,0.14 -0.05,0.13 -0.06,0.13 -0.07,0.12 -0.07,0.11 -0.08,0.11 -0.09,0.1 -0.08,0.09 -0.1,0.09 -0.09,0.09 -0.11,0.07 -0.1,0.07 -0.12,0.07 -0.11,0.06 -0.12,0.05 -0.13,0.05 -0.12,0.04 -0.14,0.04 -0.13,0.03 -0.14,0.03 -0.15,0.02 -0.15,0.01 -0.15,0.01 h -0.15 c -2.44,0 -4.97,-2.87 -4.97,-5.43 0,-1.83 1.12,-2.75 2.34,-2.94 l -2.15,-1.88 0.14,-0.17 c 0,0 0.37,0.22 1.04,0.22 1.46,0 1.78,-0.56 3.02,-0.56 0.9,0 2.3,0.65 2.9,1.69 l -0.14,0.04 c -0.18,-0.23 -0.82,-0.94 -2.04,-0.94 -1.25,0 -1.82,0.47 -2.85,0.47 -0.22,0 -0.47,-0.01 -0.78,-0.07 l 1.41,1.17 -0.08,0.39 c -1.06,0 -1.55,0.95 -1.55,2.15 0,2.24 1.55,5.43 3.58,5.43 1.14,0 1.63,-0.93 1.63,-2.13 v 0 c 0,-2.25 -1.66,-5.45 -3.66,-5.45 l 0.08,-0.39 c 2.33,0 4.84,2.9 4.84,5.42 z"
   id="path1374" />
</g></svg>
