<?xml version="1.0" encoding="UTF-8" standalone="no"?>
<svg
   xmlns:dc="http://purl.org/dc/elements/1.1/"
   xmlns:cc="http://creativecommons.org/ns#"
   xmlns:rdf="http://www.w3.org/1999/02/22-rdf-syntax-ns#"
   xmlns:svg="http://www.w3.org/2000/svg"
   xmlns="http://www.w3.org/2000/svg"
   id="svg180"
   version="1.2"
   viewBox="0 0 310.23026 179.57787"
   height="179.57787pt"
   width="310.23026pt">
  <metadata
     id="metadata184">
    <rdf:RDF>
      <cc:Work
         rdf:about="">
        <dc:format>image/svg+xml</dc:format>
        <dc:type
           rdf:resource="http://purl.org/dc/dcmitype/StillImage" />
        <dc:title></dc:title>
      </cc:Work>
    </rdf:RDF>
  </metadata>
  <defs
     id="defs5"><clipPath
   id="clip1">
  <path
     id="path2"
     d="m 242,51 h 68.23047 V 179.58203 H 242 Z m 0,0" />
</clipPath>





</defs>
  <path
     style="fill:none;stroke:#cacaff;stroke-width:0.416022;stroke-linecap:butt;stroke-linejoin:miter;stroke-miterlimit:10;stroke-opacity:1"
     d="M 89.044414,3.0066775 V 173.85043"
     id="path7" />
  <path
     style="fill:#cacaff;fill-opacity:1;fill-rule:evenodd;stroke:none"
     d="m 89.044414,2.5691775 -1.246094,4.992188 h 2.496094"
     id="path9" />
  <path
     style="fill:#cacaff;fill-opacity:1;fill-rule:evenodd;stroke:none"
     d="m 88.98582,177.84262 -1.25,-4.99219 h 2.496094"
     id="path11" />
  <path
     style="fill:#cacaff;fill-opacity:1;fill-rule:evenodd;stroke:none"
     d="m 2.9272257,160.61996 4.992188,-1.25 v 2.4961"
     id="path13" />
  <path
     style="fill:none;stroke:#cacaff;stroke-width:0.416022;stroke-linecap:butt;stroke-linejoin:miter;stroke-miterlimit:10;stroke-opacity:1"
     d="m 49.106914,160.67856 v 1.25"
     id="path15" />
  <path
     style="fill:none;stroke:#cacaff;stroke-width:0.416022;stroke-linecap:butt;stroke-linejoin:miter;stroke-miterlimit:10;stroke-opacity:1"
     d="m 89.044414,160.67856 v 1.25"
     id="path17" />
  <path
     style="fill:none;stroke:#cacaff;stroke-width:0.416022;stroke-linecap:butt;stroke-linejoin:miter;stroke-miterlimit:10;stroke-opacity:1"
     d="m 129.39988,160.67856 v 1.25"
     id="path19" />
  <path
     style="fill:none;stroke:#cacaff;stroke-width:0.416022;stroke-linecap:butt;stroke-linejoin:miter;stroke-miterlimit:10;stroke-opacity:1"
     d="m 169.33738,160.67856 v 1.25"
     id="path21" />
  <path
     style="fill:none;stroke:#cacaff;stroke-width:0.416022;stroke-linecap:butt;stroke-linejoin:miter;stroke-miterlimit:10;stroke-opacity:1"
     d="m 209.27488,160.67856 v 1.25"
     id="path23" />
  <path
     style="fill:none;stroke:#cacaff;stroke-width:0.416022;stroke-linecap:butt;stroke-linejoin:miter;stroke-miterlimit:10;stroke-opacity:1"
     d="m 249.63035,160.67856 v 1.25"
     id="path25" />
  <path
     style="fill:none;stroke:#cacaff;stroke-width:0.416022;stroke-linecap:butt;stroke-linejoin:miter;stroke-miterlimit:10;stroke-opacity:1"
     d="m 87.79832,120.74106 h 1.246094"
     id="path27" />
  <path
     style="fill:none;stroke:#cacaff;stroke-width:0.416022;stroke-linecap:butt;stroke-linejoin:miter;stroke-miterlimit:10;stroke-opacity:1"
     d="m 87.79832,40.448085 h 1.246094"
     id="path29" />
  <path
     style="fill:none;stroke:#000000;stroke-width:0.85039401;stroke-linecap:round;stroke-linejoin:round;stroke-miterlimit:10;stroke-opacity:0.8"
     d="M 244.68894,136.98324 C 257.88816,111.79575 231.32956,71.858241 185.37644,47.787928 139.42331,23.717616 91.474101,24.627772 78.278789,49.815272 65.083476,75.006678 91.64207,114.94028 137.59128,139.01059 c 45.95703,24.07422 93.90235,23.16406 107.09766,-2.02735 z m 0,0"
     id="path31" />
  <path
     style="fill:none;stroke:#000000;stroke-width:0.85039401;stroke-linecap:butt;stroke-linejoin:round;stroke-miterlimit:10;stroke-dasharray:8.07874, 6.803149;stroke-opacity:0.8"
     d="M 0.4311327,9.0379275 282.74363,156.91684"
     id="path33" />
  <path
     style="fill:none;stroke:#000000;stroke-width:0.416022;stroke-linecap:butt;stroke-linejoin:round;stroke-miterlimit:10;stroke-dasharray:3.952205, 3.328173;stroke-opacity:0.8"
     d="M 125.95847,161.22153 210.36081,0.09652173"
     id="path35" />
  <path
     style="fill:none;stroke:#ca0000;stroke-width:0.85039401;stroke-linecap:round;stroke-linejoin:round;stroke-miterlimit:10;stroke-opacity:0.8"
     d="M 0.4311327,117.79965 281.603,174.86996"
     id="path37" />
  <g
     transform="translate(0.0014447,-0.00113447)"
     style="clip-rule:nonzero"
     clip-path="url(#clip1)"
     id="g41">
    <path
       style="fill:none;stroke:#000000;stroke-width:0.85039401;stroke-linecap:round;stroke-linejoin:round;stroke-miterlimit:10;stroke-opacity:0.8"
       d="M 243.35156,179.14844 309.80078,52.289062"
       id="path39" />
  </g>
  <path
     style="fill:none;stroke:#000000;stroke-width:0.85039401;stroke-linecap:round;stroke-linejoin:round;stroke-miterlimit:10;stroke-opacity:0.8"
     d="M 1.6772257,159.44809 74.606914,20.21371"
     id="path43" />
  <path
     style="fill:none;stroke:#000000;stroke-width:0.416022;stroke-linecap:butt;stroke-linejoin:round;stroke-miterlimit:10;stroke-dasharray:3.952205, 3.328173;stroke-opacity:0.8"
     d="M 91.895976,56.948085 179.27488,154.10043"
     id="path45" />
  <path
     style="fill:none;stroke:#000000;stroke-width:0.416022;stroke-linecap:butt;stroke-linejoin:round;stroke-miterlimit:10;stroke-dasharray:3.952205, 3.328173;stroke-opacity:0.8"
     d="m 179.27488,154.10043 51.80078,-24.25"
     id="path47" />
  <path
     style="fill:none;stroke:#000000;stroke-width:0.416022;stroke-linecap:round;stroke-linejoin:round;stroke-miterlimit:10;stroke-opacity:0.8"
     d="M 78.79832,81.951991 104.99363,31.944178"
     id="path49" />
  <path
     style="fill:none;stroke:#000000;stroke-width:0.85039401;stroke-linecap:round;stroke-linejoin:round;stroke-miterlimit:10;stroke-opacity:0.8"
     d="m 185.37644,47.787928 45.69922,82.062502"
     id="path51" />
  <path
     style="fill:none;stroke:#000000;stroke-width:0.416022;stroke-linecap:butt;stroke-linejoin:round;stroke-miterlimit:10;stroke-dasharray:3.952205, 3.328173;stroke-opacity:0.8"
     d="M 293.8491,82.74496 194.36472,30.635585"
     id="path53" />
  <path
     style="fill:none;stroke:#000000;stroke-width:0.416022;stroke-linecap:butt;stroke-linejoin:round;stroke-miterlimit:10;stroke-dasharray:3.952205, 3.328173;stroke-opacity:0.8"
     d="M 244.68894,136.98324 277.56785,74.217616"
     id="path55" />
  <path
     style="fill:none;stroke:#000000;stroke-width:0.85039401;stroke-linecap:round;stroke-linejoin:round;stroke-miterlimit:10;stroke-opacity:0.8"
     d="m 161.48581,93.40121 64.0625,33.55469"
     id="path57" />
  <path
     style="fill:#000000;fill-opacity:0.8;fill-rule:evenodd;stroke:none"
     d="m 231.07566,129.85043 -6.25391,-1.51172 1.44922,-2.76562 z m 0,0"
     id="path59" />
  <path
     style="fill:none;stroke:#000000;stroke-width:0.98362201;stroke-linecap:round;stroke-linejoin:round;stroke-miterlimit:10;stroke-opacity:0.8"
     d="M 89.200664,160.61996 156.9155,97.65121"
     id="path61" />
  <path
     style="fill:#000000;fill-opacity:0.8;fill-rule:evenodd;stroke:none"
     d="m 161.48581,93.40121 -3.50781,5.390625 -2.125,-2.285157 z m 0,0"
     id="path63" />
  <path
     style="fill:none;stroke:#000000;stroke-width:0.85039401;stroke-linecap:round;stroke-linejoin:round;stroke-miterlimit:10;stroke-opacity:0.8"
     d="m 161.48581,93.40121 20.9961,-40.085938"
     id="path65" />
  <path
     style="fill:#000000;fill-opacity:0.8;fill-rule:evenodd;stroke:none"
     d="m 185.37644,47.787928 -1.51172,6.253907 -2.76562,-1.449219 z m 0,0"
     id="path67" />
  <path
     style="fill:none;stroke:#000000;stroke-width:0.416022;stroke-linecap:round;stroke-linejoin:round;stroke-miterlimit:10;stroke-opacity:0.8"
     d="m 258.98972,50.225428 29.96484,15.695313"
     id="path69" />
  <path
     style="fill:#000000;fill-opacity:0.8;fill-rule:evenodd;stroke:none"
     d="m 294.48191,68.815272 -6.25,-1.511718 1.44531,-2.765626 z m 0,0"
     id="path71" />
  <path
     style="fill:none;stroke:#000000;stroke-width:0.416022;stroke-linecap:round;stroke-linejoin:round;stroke-miterlimit:10;stroke-opacity:0.8"
     d="M 258.98972,50.225428 274.68503,20.260585"
     id="path73" />
  <path
     style="fill:#000000;fill-opacity:0.8;fill-rule:evenodd;stroke:none"
     d="m 277.57956,14.733241 -1.51171,6.253906 -2.76563,-1.449219 z m 0,0"
     id="path75" />
  <path
     style="fill:#ff002e;fill-opacity:0.8;fill-rule:nonzero;stroke:#000000;stroke-width:0.416022;stroke-linecap:round;stroke-linejoin:round;stroke-miterlimit:10;stroke-opacity:0.8"
     d="m 93.14207,56.948085 c 0,0.691406 -0.558594,1.25 -1.246094,1.25 -0.6875,0 -1.25,-0.558594 -1.25,-1.25 0,-0.6875 0.5625,-1.246094 1.25,-1.246094 0.6875,0 1.246094,0.558594 1.246094,1.246094 z m 0,0"
     id="path77" />
  <path
     style="fill:#ff002e;fill-opacity:0.8;fill-rule:nonzero;stroke:#000000;stroke-width:0.416022;stroke-linecap:round;stroke-linejoin:round;stroke-miterlimit:10;stroke-opacity:0.8"
     d="m 232.32175,129.85043 c 0,0.69141 -0.55859,1.25 -1.24609,1.25 -0.69141,0 -1.25,-0.55859 -1.25,-1.25 0,-0.6875 0.55859,-1.24609 1.25,-1.24609 0.6875,0 1.24609,0.55859 1.24609,1.24609 z m 0,0"
     id="path79" />
  <path
     style="fill:#000000;fill-opacity:0.8;fill-rule:nonzero;stroke:#000000;stroke-width:0.416022;stroke-linecap:round;stroke-linejoin:round;stroke-miterlimit:10;stroke-opacity:0.8"
     d="m 162.73191,93.40121 c 0,0.6875 -0.5586,1.25 -1.2461,1.25 -0.6914,0 -1.25,-0.5625 -1.25,-1.25 0,-0.6875 0.5586,-1.246094 1.25,-1.246094 0.6875,0 1.2461,0.558594 1.2461,1.246094 z m 0,0"
     id="path81" />
  <path
     style="fill:#1161bd;fill-opacity:0.8;fill-rule:nonzero;stroke:#000000;stroke-width:0.416022;stroke-linecap:round;stroke-linejoin:round;stroke-miterlimit:10;stroke-opacity:0.8"
     d="m 90.446757,160.61996 c 0,0.6875 -0.558593,1.2461 -1.246093,1.2461 -0.691407,0 -1.25,-0.5586 -1.25,-1.2461 0,-0.6875 0.558593,-1.25 1.25,-1.25 0.6875,0 1.246093,0.5625 1.246093,1.25 z m 0,0"
     id="path83" />
  <path
     style="fill:#000000;fill-opacity:0.8;fill-rule:nonzero;stroke:#000000;stroke-width:0.416022;stroke-linecap:round;stroke-linejoin:round;stroke-miterlimit:10;stroke-opacity:0.8"
     d="m 79.528789,49.815272 c 0,0.691406 -0.5625,1.25 -1.25,1.25 -0.6875,0 -1.246094,-0.558594 -1.246094,-1.25 0,-0.6875 0.558594,-1.246094 1.246094,-1.246094 0.6875,0 1.25,0.558594 1.25,1.246094 z m 0,0"
     id="path85" />
  <path
     style="fill:#000000;fill-opacity:0.8;fill-rule:nonzero;stroke:#000000;stroke-width:0.416022;stroke-linecap:round;stroke-linejoin:round;stroke-miterlimit:10;stroke-opacity:0.8"
     d="m 245.93894,136.98324 c 0,0.69141 -0.55859,1.25 -1.25,1.25 -0.6875,0 -1.24609,-0.55859 -1.24609,-1.25 0,-0.6875 0.55859,-1.24609 1.24609,-1.24609 0.69141,0 1.25,0.55859 1.25,1.24609 z m 0,0"
     id="path87" />
  <path
     style="fill:#000000;fill-opacity:0.8;fill-rule:nonzero;stroke:#000000;stroke-width:0.416022;stroke-linecap:round;stroke-linejoin:round;stroke-miterlimit:10;stroke-opacity:0.8"
     d="m 106.23972,31.944178 c 0,0.691407 -0.55859,1.25 -1.24609,1.25 -0.69141,0 -1.25,-0.558593 -1.25,-1.25 0,-0.6875 0.55859,-1.246093 1.25,-1.246093 0.6875,0 1.24609,0.558593 1.24609,1.246093 z m 0,0"
     id="path89" />
  <path
     style="fill:#000000;fill-opacity:0.8;fill-rule:nonzero;stroke:#000000;stroke-width:0.416022;stroke-linecap:round;stroke-linejoin:round;stroke-miterlimit:10;stroke-opacity:0.8"
     d="m 80.04832,81.951991 c 0,0.691406 -0.558594,1.25 -1.25,1.25 -0.691406,0 -1.246094,-0.558594 -1.246094,-1.25 0,-0.6875 0.554688,-1.246094 1.246094,-1.246094 0.691406,0 1.25,0.558594 1.25,1.246094 z m 0,0"
     id="path91" />
  <path
     style="fill:#ff002e;fill-opacity:0.8;fill-rule:nonzero;stroke:#000000;stroke-width:0.416022;stroke-linecap:round;stroke-linejoin:round;stroke-miterlimit:10;stroke-opacity:0.8"
     d="m 180.52097,154.10043 c 0,0.6875 -0.55859,1.2461 -1.24609,1.2461 -0.6875,0 -1.25,-0.5586 -1.25,-1.2461 0,-0.6914 0.5625,-1.25 1.25,-1.25 0.6875,0 1.24609,0.5586 1.24609,1.25 z m 0,0"
     id="path93" />
  <path
     style="fill:#000000;fill-opacity:0.8;fill-rule:nonzero;stroke:#000000;stroke-width:0.416022;stroke-linecap:round;stroke-linejoin:round;stroke-miterlimit:10;stroke-opacity:0.8"
     d="m 186.62644,47.787928 c 0,0.691407 -0.55859,1.25 -1.25,1.25 -0.6875,0 -1.24609,-0.558593 -1.24609,-1.25 0,-0.6875 0.55859,-1.246093 1.24609,-1.246093 0.69141,0 1.25,0.558593 1.25,1.246093 z m 0,0"
     id="path95" />
  <path
     style="fill:#000000;fill-opacity:0.8;fill-rule:nonzero;stroke:#000000;stroke-width:0.416022;stroke-linecap:round;stroke-linejoin:round;stroke-miterlimit:10;stroke-opacity:0.8"
     d="m 138.84128,139.01059 c 0,0.6914 -0.55859,1.25 -1.25,1.25 -0.6875,0 -1.24609,-0.5586 -1.24609,-1.25 0,-0.6875 0.55859,-1.2461 1.24609,-1.2461 0.69141,0 1.25,0.5586 1.25,1.2461 z m 0,0"
     id="path97" />
  <path
     style="fill:#616161;fill-opacity:0.8;fill-rule:nonzero;stroke:#000000;stroke-width:0.416022;stroke-linecap:round;stroke-linejoin:round;stroke-miterlimit:10;stroke-opacity:0.8"
     d="m 262.22019,145.51449 c 0,0.6875 -0.55859,1.2461 -1.25,1.2461 -0.6875,0 -1.24609,-0.5586 -1.24609,-1.2461 0,-0.6914 0.55859,-1.25 1.24609,-1.25 0.69141,0 1.25,0.5586 1.25,1.25 z m 0,0"
     id="path99" />
  <path
     style="fill:#616161;fill-opacity:0.8;fill-rule:nonzero;stroke:#000000;stroke-width:0.416022;stroke-linecap:round;stroke-linejoin:round;stroke-miterlimit:10;stroke-opacity:0.8"
     d="m 64.478007,41.93246 c 0,0.691406 -0.558593,1.25 -1.246093,1.25 -0.691407,0 -1.25,-0.558594 -1.25,-1.25 0,-0.6875 0.558593,-1.246094 1.25,-1.246094 0.6875,0 1.246093,0.558594 1.246093,1.246094 z m 0,0"
     id="path101" />
  <path
     style="fill:#ff002e;fill-opacity:0.8;fill-rule:nonzero;stroke:#000000;stroke-width:0.416022;stroke-linecap:round;stroke-linejoin:round;stroke-miterlimit:10;stroke-opacity:0.8"
     d="m 295.09519,82.74496 c 0,0.691406 -0.55469,1.25 -1.24609,1.25 -0.69141,0 -1.25,-0.558594 -1.25,-1.25 0,-0.6875 0.55859,-1.246094 1.25,-1.246094 0.6914,0 1.24609,0.558594 1.24609,1.246094 z m 0,0"
     id="path103" />
  <path
     style="fill:#616161;fill-opacity:0.8;fill-rule:nonzero;stroke:#000000;stroke-width:0.416022;stroke-linecap:round;stroke-linejoin:round;stroke-miterlimit:10;stroke-opacity:0.8"
     d="m 195.61081,30.635585 c 0,0.6875 -0.55859,1.246093 -1.24609,1.246093 -0.69141,0 -1.25,-0.558593 -1.25,-1.246093 0,-0.691407 0.55859,-1.25 1.25,-1.25 0.6875,0 1.24609,0.558593 1.24609,1.25 z m 0,0"
     id="path105" />
  <path
     style="fill:#616161;fill-opacity:0.8;fill-rule:nonzero;stroke:#000000;stroke-width:0.416022;stroke-linecap:round;stroke-linejoin:round;stroke-miterlimit:10;stroke-opacity:0.8"
     d="m 278.81785,74.217616 c 0,0.6875 -0.5586,1.246094 -1.25,1.246094 -0.6875,0 -1.2461,-0.558594 -1.2461,-1.246094 0,-0.691406 0.5586,-1.25 1.2461,-1.25 0.6914,0 1.25,0.558594 1.25,1.25 z m 0,0"
     id="path107" />
  <path
     style="fill:#000000;fill-opacity:0.8;fill-rule:nonzero;stroke:#000000;stroke-width:0.416022;stroke-linecap:round;stroke-linejoin:round;stroke-miterlimit:10;stroke-opacity:0.8"
     d="m 260.23972,50.225428 c 0,0.691407 -0.5625,1.25 -1.25,1.25 -0.6875,0 -1.24609,-0.558593 -1.24609,-1.25 0,-0.6875 0.55859,-1.246093 1.24609,-1.246093 0.6875,0 1.25,0.558593 1.25,1.246093 z m 0,0"
     id="path109" />
  <path
     style="fill:#000000;fill-opacity:1;fill-rule:evenodd;stroke:none"
     d="m 197.103,41.604335 v -0.101563 l -0.0117,-0.09766 -0.0117,-0.101562 -0.0195,-0.101563 -0.0195,-0.08984 -0.0312,-0.08984 -0.0391,-0.08984 -0.0273,-0.08984 -0.0508,-0.07813 -0.0508,-0.08203 -0.0508,-0.07031 -0.0586,-0.07813 -0.0625,-0.07031 -0.0664,-0.05859 -0.0703,-0.07031 -0.082,-0.0625 -0.0781,-0.05078 -0.082,-0.05859 -0.0898,-0.05078 -0.0977,-0.03906 -0.0898,-0.05078 -0.11328,-0.03906 -0.0977,-0.03125 -0.12109,-0.03906 -0.10938,-0.01953 -0.12109,-0.03125 -0.11719,-0.01953 -0.13281,-0.01953 -0.12891,-0.01172 -0.28125,-0.02344 h -0.14062 l -0.20703,0.390626 c 0.96875,0 1.41015,0.609374 1.41015,1.300781 0,0.871093 -0.73047,1.890625 -2,1.890625 0,0 -0.58984,0.01172 -0.87109,0 l -0.12891,0.398437 c 0.33985,-0.01172 0.73828,0 0.73828,0 1.03125,0 1.53907,0.742188 1.53907,1.570313 0,1 -0.77735,2.109375 -2.39063,2.109375 h -0.82812 l 0.9414,-3.679688 0.12891,-0.398437 0.87109,-3.191406 h 0.58985 l 0.20703,-0.390626 h -3.01953 l -0.0391,0.203126 c 0.3711,0 0.89844,0.02734 0.89844,0.578124 0,0.160157 -0.0273,0.359376 -0.14844,0.800782 l -1.41015,5.078125 c -0.33985,1.203125 -0.75,1.183593 -1.23828,1.183593 l -0.0312,0.207032 h 3.67968 c 2.14844,0 3.1211,-1.378906 3.1211,-2.4375 0,-0.722656 -0.47266,-1.5 -1.5,-1.859375 1.16797,-0.171875 2.14062,-0.890625 2.14062,-1.941407 z m 0,0"
     id="path111" />
  <path
     style="fill:#000000;fill-opacity:1;fill-rule:evenodd;stroke:none"
     d="m 200.98191,49.631678 v -0.21875 c -0.60938,0 -0.77735,0 -0.77735,-0.96875 0,0 0,-4.171874 0,-4.171874 h -0.21093 l -1.53907,0.652343 0.0898,0.21875 c 0.35937,-0.140625 0.41797,-0.171875 0.52734,-0.171875 0.25,0 0.27344,0.203125 0.27344,0.421875 v 3.050781 c 0,0.96875 -0.20313,0.949219 -0.80078,0.96875 v 0.21875 z m 0,0"
     id="path113" />
  <path
     style="fill:#000000;fill-opacity:1;fill-rule:evenodd;stroke:none"
     d="m 151.32175,134.07699 v -0.10937 l -0.0117,-0.10156 -0.008,-0.0977 -0.0234,-0.0898 -0.0195,-0.10157 -0.0273,-0.0898 -0.043,-0.0898 -0.0273,-0.082 -0.0508,-0.0781 -0.0508,-0.082 -0.0508,-0.0781 -0.11719,-0.14062 -0.0703,-0.0703 -0.0703,-0.0586 -0.082,-0.0625 -0.0781,-0.0586 -0.082,-0.0508 -0.0898,-0.0469 -0.0977,-0.0508 -0.0898,-0.0391 -0.10938,-0.043 -0.10156,-0.0391 -0.12109,-0.0312 -0.10938,-0.0273 -0.12109,-0.0312 -0.11719,-0.0195 -0.13281,-0.0117 -0.12891,-0.0195 -0.14062,-0.0117 h -0.14063 l -0.13672,-0.0117 -0.21093,0.39062 c 0.96875,0 1.41015,0.60938 1.41015,1.30078 0,0.87891 -0.73047,1.89063 -2,1.89063 0,0 -0.58984,0.0195 -0.87109,0 l -0.12891,0.41015 c 0.33985,-0.0234 0.73828,0 0.73828,0 1.03125,0 1.53907,0.72657 1.53907,1.5586 0,1 -0.77735,2.10937 -2.38672,2.10937 h -0.83203 l 0.9414,-3.66797 0.12891,-0.41015 0.87109,-3.19141 h 0.58985 l 0.21093,-0.39062 h -3.02343 l -0.0391,0.21093 c 0.3711,0 0.90235,0.0312 0.90235,0.57813 0,0.15234 -0.0312,0.35156 -0.15235,0.79297 l -1.41015,5.07812 c -0.33985,1.19922 -0.75,1.19141 -1.23828,1.19141 l -0.0312,0.19922 h 3.67968 c 2.15235,0 3.1211,-1.3711 3.1211,-2.44141 0,-0.71875 -0.46875,-1.5 -1.5,-1.85937 1.16797,-0.16797 2.14062,-0.89063 2.14062,-1.92969 z m 0,0"
     id="path115" />
  <path
     style="fill:#000000;fill-opacity:1;fill-rule:evenodd;stroke:none"
     d="m 155.95456,141.00668 -0.25,-0.0508 c -0.26953,0.41016 -0.47265,0.47266 -0.88281,0.47266 h -1.86719 c 1.33985,-1.11328 2.5586,-2.1211 2.5586,-3.23047 0,-0.85156 -0.80078,-1.42188 -1.69141,-1.42188 -0.85937,0 -1.53906,0.40235 -1.82031,1.5625 h 0.28125 c 0.26172,-0.46093 0.58203,-0.89062 1.23047,-0.89062 0.71875,0 1.14062,0.48047 1.14062,1.05859 0,0.83203 -1.01172,2.05078 -2.73047,3.39063 v 0.19922 h 3.51172 z m 0,0"
     id="path117" />
  <path
     style="fill:#000000;fill-opacity:1;fill-rule:evenodd;stroke:none"
     d="m 189.80222,118.27621 -0.0117,-0.0508 v -0.082 l -0.0117,-0.0469 -0.0117,-0.043 -0.0117,-0.0391 -0.0195,-0.0391 -0.0117,-0.0391 -0.0195,-0.0508 -0.0391,-0.0781 -0.0273,-0.0312 -0.0312,-0.0391 -0.0312,-0.043 -0.0312,-0.0391 -0.0273,-0.0312 -0.0391,-0.0273 -0.043,-0.0391 -0.0391,-0.0312 -0.0508,-0.0195 -0.0391,-0.0312 -0.0508,-0.0312 -0.0586,-0.0195 -0.0508,-0.0195 -0.0586,-0.0195 -0.0625,-0.0195 -0.0586,-0.0117 -0.21093,-0.0352 -0.0703,-0.008 h -0.0781 c -1.75,0 -3.42188,2 -3.42188,3.75 0,1.26953 0.78125,1.84766 1.67188,1.84766 1.14062,0 1.87109,-0.78125 2.30859,-1.34766 l -0.16797,-0.12109 c -0.33203,0.39062 -0.92187,1.00781 -1.70312,1.00781 -0.6875,0 -1.09766,-0.55859 -1.09766,-1.45703 0,-1.13281 0.89063,-3.42969 2.41016,-3.42969 0.23047,0 0.44922,0.0977 0.44922,0.29688 0,0.20312 -0.30078,0.36328 -0.30078,0.67187 0,0.26953 0.1914,0.44141 0.46093,0.44141 0.35938,0 0.57813,-0.33203 0.57813,-0.70313 z m 0,0"
     id="path119" />
  <path
     style="fill:#000000;fill-opacity:1;fill-rule:evenodd;stroke:none"
     d="m 195.353,115.91684 v 0.0898 l 1.53906,-1.3125 v -0.0977 l -1.53906,-1.3125 v 0.10156 l 0.59766,0.96094 h -3.67969 v 0.59765 h 3.67969 z m 0,0"
     id="path121" />
  <path
     style="fill:#000000;fill-opacity:1;fill-rule:evenodd;stroke:none"
     d="m 196.71238,117.31528 h -0.89063 c -0.21875,0.85156 -0.55859,1.67968 -0.91015,2.39062 -0.6875,1.42969 -1.6211,2.52735 -2.16797,2.52735 -0.19141,0 -0.28125,-0.17969 -0.26172,-0.33985 0,-0.10937 0.15234,-0.75 0.17187,-0.80859 l 0.53907,-2.0586 c 0.0508,-0.21093 0.0781,-0.39062 0.0781,-0.57031 0,-0.75 -0.47656,-1.14062 -0.97656,-1.14062 -0.69141,0 -1.00391,0.6289 -1.00391,1.05078 0,0.10937 0.0117,0.21875 0.082,0.30859 h 0.1211 c 0,-0.0312 0,-0.0391 0,-0.0898 0,-0.21875 0.0898,-0.71875 0.52734,-0.71875 0.20313,0 0.35156,0.19922 0.35156,0.5 0,0.10937 -0.0391,0.26953 -0.0508,0.39062 l -0.57812,2.41797 c -0.0898,0.35938 -0.19141,0.71875 -0.19141,1.01953 0,0.44141 0.21094,0.72266 0.67188,0.72266 1.1289,0 2.42968,-2.07031 2.82812,-2.88281 0,0 -0.5,1.92187 -0.5,2.26953 0,0.1914 0.0508,0.58984 0.5,0.58984 0.67188,0 1.21094,-0.69922 1.64063,-1.35937 l -0.17188,-0.10938 c -0.32812,0.46875 -0.66797,0.85938 -0.88672,0.85938 -0.11328,0 -0.15234,-0.10938 -0.15234,-0.1875 0,-0.15235 0.10156,-0.58985 0.17187,-0.76172 z m 0,0"
     id="path123" />
  <path
     style="fill:#000000;fill-opacity:1;fill-rule:evenodd;stroke:none"
     d="m 239.2241,114.53012 h -5.98829 l -0.0312,0.21094 c 0.39063,0 0.91016,0.0273 0.91016,0.57812 0,0.14844 -0.0273,0.35938 -0.17969,0.78907 l -1.39843,5.08203 c -0.33204,1.19922 -0.74219,1.1875 -1.21875,1.1875 l -0.0312,0.20312 h 3.19921 l 0.0312,-0.20312 c -0.3125,0 -0.85937,-0.0469 -0.85937,-0.62891 0,-0.10937 0.0195,-0.25 0.0469,-0.39844 l 0.73047,-2.82031 c 1.57032,0.0195 1.97266,0.0977 1.97266,0.66016 0,0.16797 -0.0312,0.39062 -0.0937,0.66015 h 0.23047 l 0.82031,-2.88281 h -0.21094 c -0.16797,0.41016 -0.30859,1.17188 -2.58984,1.17188 l 0.83984,-3.17969 h 1.28125 c 1.10938,0 1.90235,0.23047 1.90235,1.05859 0,0.14063 -0.0234,0.26172 -0.0508,0.42188 h 0.23046 z m 0,0"
     id="path125" />
  <path
     style="fill:#000000;fill-opacity:1;fill-rule:evenodd;stroke:none"
     d="m 241.74753,124.37778 v -0.21875 c -0.61328,0 -0.78125,0 -0.78125,-0.96875 0,0 0,-4.17969 0,-4.17969 h -0.19922 l -1.55078,0.66016 0.10157,0.21875 c 0.35937,-0.14063 0.41796,-0.17188 0.52734,-0.17188 0.25,0 0.26172,0.20313 0.26172,0.42188 v 3.05078 c 0,0.96875 -0.19922,0.94922 -0.78906,0.96875 v 0.21875 z m 0,0"
     id="path127" />
  <path
     style="fill:#000000;fill-opacity:1;fill-rule:evenodd;stroke:none"
     d="m 106.96238,50.377772 h -5.99219 l -0.0273,0.203125 c 0.39062,0 0.91015,0.02734 0.91015,0.578125 0,0.160156 -0.0312,0.359375 -0.17968,0.800782 l -1.40235,5.078124 c -0.328119,1.203126 -0.738275,1.183594 -1.218744,1.183594 l -0.03125,0.207032 h 3.199214 l 0.0312,-0.207032 c -0.30859,0 -0.85937,-0.04297 -0.85937,-0.621094 0,-0.109374 0.0195,-0.25 0.0508,-0.410156 l 0.73047,-2.8125 c 1.5664,0.02344 1.96875,0.09375 1.96875,0.660156 0,0.171876 -0.0312,0.390626 -0.0898,0.652344 h 0.23047 l 0.82031,-2.871094 h -0.21093 c -0.17188,0.402344 -0.3125,1.171876 -2.58985,1.171876 l 0.83985,-3.191407 h 1.27734 c 1.11328,0 1.90234,0.238281 1.90234,1.058594 0,0.140625 -0.0195,0.269531 -0.0508,0.429687 h 0.23043 z m 0,0"
     id="path129" />
  <path
     style="fill:#000000;fill-opacity:1;fill-rule:evenodd;stroke:none"
     d="m 110.23191,59.127772 -0.25,-0.04687 c -0.26172,0.398438 -0.46094,0.46875 -0.87109,0.46875 h -1.87891 c 1.35156,-1.109375 2.57031,-2.128906 2.57031,-3.238281 0,-0.839844 -0.80078,-1.421875 -1.6914,-1.421875 -0.85938,0 -1.55079,0.410156 -1.82813,1.558594 h 0.27734 c 0.27344,-0.449224 0.58204,-0.886724 1.24219,-0.886724 0.71875,0 1.14063,0.488281 1.14063,1.066406 0,0.820313 -1.01953,2.042969 -2.74219,3.390625 v 0.203125 h 3.51953 z m 0,0"
     id="path131" />
  <path
     style="fill:#000000;fill-opacity:1;fill-rule:evenodd;stroke:none"
     d="m 181.40769,159.41293 v -0.0898 l -0.0117,-0.0781 -0.0117,-0.0937 -0.0117,-0.0898 -0.0391,-0.15625 -0.0312,-0.0898 -0.0273,-0.082 -0.043,-0.0781 -0.0391,-0.082 -0.0391,-0.0781 -0.0508,-0.082 -0.0586,-0.0781 -0.0703,-0.0703 -0.0625,-0.0703 -0.0781,-0.0703 -0.082,-0.0703 -0.0898,-0.0586 -0.0898,-0.0625 -0.10937,-0.0586 -0.0977,-0.0508 -0.12109,-0.0508 -0.1211,-0.0391 -0.1289,-0.0508 -0.14063,-0.0273 -0.14844,-0.043 -0.15234,-0.0273 -0.16797,-0.0195 -0.082,-0.0117 -0.17969,-0.0234 h -0.0898 l -0.0898,-0.0117 h -0.28907 l -0.10937,0.33984 c 1.16797,0 1.63672,0.48047 1.63672,1.44141 0,1.44922 -1.04688,2.05859 -2.29688,2.05859 h -0.70312 l 0.97265,-3.5 h 0.39063 l 0.10937,-0.33984 h -2.75 l -0.0312,0.19922 c 0.39844,0.0312 0.89844,0.0312 0.89844,0.58203 0,0.14844 -0.0469,0.35938 -0.16797,0.78906 l -1.41015,5.07813 c -0.32032,1.20312 -0.69922,1.14062 -1.23047,1.1914 l -0.0312,0.19922 h 3.23047 l 0.0195,-0.19922 c -0.29688,0 -0.89063,-0.0508 -0.89063,-0.6289 0,-0.10938 0.0117,-0.25 0.0625,-0.40235 l 0.69922,-2.57812 c 0.46875,0 0.94141,0 0.94141,0 2.55859,0 3.41015,-1.26953 3.41015,-2.33984 z m 0,0"
     id="path133" />
  <path
     style="fill:#000000;fill-opacity:1;fill-rule:evenodd;stroke:none"
     d="M 296.14206,54.139491 V 54.037928 L 294.603,52.729335 v 0.09766 l 0.60938,0.960937 h -3.69141 v 0.601563 h 3.69141 l -0.60938,0.96875 v 0.08984 z m 0,0"
     id="path135" />
  <path
     style="fill:#000000;fill-opacity:1;fill-rule:evenodd;stroke:none"
     d="m 295.96238,56.756678 h -0.89063 c -0.21875,0.851563 -0.57031,1.671876 -0.91015,2.390626 -0.6875,1.421874 -1.6211,2.53125 -2.16797,2.53125 -0.19141,0 -0.28125,-0.179688 -0.26953,-0.339844 0,-0.109375 0.15625,-0.75 0.16796,-0.8125 l 0.55079,-2.058594 c 0.0508,-0.210938 0.0781,-0.398438 0.0781,-0.570312 0,-0.75 -0.48047,-1.140626 -0.98047,-1.140626 -0.6875,0 -1,0.632813 -1,1.050782 0,0.109375 0.0117,0.21875 0.0703,0.3125 h 0.13282 c 0,-0.03125 0,-0.05078 0,-0.09375 0,-0.21875 0.0898,-0.71875 0.52734,-0.71875 0.20313,0 0.33984,0.199218 0.33984,0.5 0,0.109375 -0.0273,0.261718 -0.0391,0.390625 l -0.57812,2.421875 c -0.10157,0.359375 -0.19141,0.71875 -0.19141,1.019531 0,0.429687 0.19922,0.71875 0.67188,0.71875 1.1289,0 2.41796,-2.070313 2.82812,-2.878906 0,0 -0.5,1.917969 -0.5,2.269531 0,0.179688 0.0508,0.589844 0.5,0.589844 0.67188,0 1.19922,-0.699219 1.64063,-1.359375 L 295.7709,60.86996 c -0.32812,0.46875 -0.66797,0.859375 -0.88672,0.859375 -0.11328,0 -0.16015,-0.109375 -0.16015,-0.191407 0,-0.148437 0.10937,-0.589843 0.16796,-0.761718 z m 0,0"
     id="path137" />
  <path
     style="fill:#000000;fill-opacity:1;fill-rule:evenodd;stroke:none"
     d="m 284.94675,16.959804 v -0.08984 l -1.53906,-1.308598 v 0.08984 l 0.60937,0.96875 h -3.6875 V 17.2098 h 3.6875 l -0.60937,0.972656 v 0.09766 z m 0,0"
     id="path139" />
  <path
     style="fill:#000000;fill-opacity:1;fill-rule:evenodd;stroke:none"
     d="m 284.76706,19.592616 h -0.89062 c -0.21875,0.839844 -0.57031,1.667969 -0.91016,2.386719 -0.6875,1.421875 -1.61718,2.53125 -2.16797,2.53125 -0.1914,0 -0.28125,-0.191407 -0.26953,-0.339844 0,-0.109375 0.16016,-0.75 0.16797,-0.820313 l 0.55078,-2.058593 c 0.0508,-0.199219 0.082,-0.390625 0.082,-0.5625 0,-0.75 -0.48046,-1.136719 -0.98046,-1.136719 -0.69141,0 -1,0.617188 -1,1.039062 0,0.109376 0.008,0.21875 0.0703,0.320313 h 0.1289 c 0,-0.03125 0,-0.05078 0,-0.101563 0,-0.21875 0.0899,-0.71875 0.53125,-0.71875 0.19922,0 0.33985,0.210938 0.33985,0.5 0,0.109376 -0.0312,0.269532 -0.043,0.398438 l -0.57813,2.421875 c -0.10156,0.359375 -0.1914,0.71875 -0.1914,1.007813 0,0.441406 0.19922,0.722656 0.67187,0.722656 1.12891,0 2.41797,-2.0625 2.82813,-2.871094 0,0 -0.5,1.917969 -0.5,2.257812 0,0.191407 0.0508,0.601563 0.5,0.601563 0.67187,0 1.19922,-0.710937 1.64062,-1.359375 l -0.16797,-0.109375 c -0.33203,0.46875 -0.67187,0.859375 -0.89062,0.859375 -0.10938,0 -0.16016,-0.109375 -0.16016,-0.191406 0,-0.160156 0.10938,-0.589844 0.16797,-0.769532 z m 0,0"
     id="path141" />
  <path
     style="fill:#000000;fill-opacity:1;fill-rule:evenodd;stroke:none"
     d="m 289.51706,20.15121 v -5.179688 h -0.55078 v 5.179688 h -2.63672 v 0.550781 h 5.82813 V 20.15121 Z m 0,0"
     id="path143" />
  <path
     style="fill:#000000;fill-opacity:1;fill-rule:evenodd;stroke:none"
     d="m 71.981914,92.764491 h -0.128907 l -0.05078,-0.01172 -0.05859,-0.0078 -0.05078,-0.01172 -0.05859,-0.0078 -0.04297,-0.01953 -0.04687,-0.02344 -0.05078,-0.01953 -0.04297,-0.01953 -0.03906,-0.01953 -0.03906,-0.03125 -0.03906,-0.01953 -0.03906,-0.03125 -0.03125,-0.02734 -0.101563,-0.101563 -0.02734,-0.03906 -0.02344,-0.03125 -0.02734,-0.03906 -0.03125,-0.03906 -0.01953,-0.04297 -0.03128,-0.0391 -0.01953,-0.05078 -0.05859,-0.117187 -0.04297,-0.08984 -0.03906,-0.08984 -1.160156,-2.792969 c 1.699218,-0.289063 2.28125,-1.289063 2.28125,-2.339844 0,-0.75 -0.589844,-1.777344 -2.640626,-1.777344 h -2.85938 l -0.03906,0.19921 c 0.398437,0 0.898437,0.03125 0.898437,0.578125 0,0.160156 -0.03125,0.363281 -0.148437,0.800781 l -1.410156,5.082032 c -0.339844,1.199218 -0.78125,1.179687 -1.242188,1.179687 l -0.02734,0.207031 h 3.238281 l 0.03125,-0.207031 c -0.3125,0 -0.910157,-0.04297 -0.910157,-0.621094 0,-0.109375 0.01953,-0.25 0.07031,-0.410156 l 0.699219,-2.578125 h 0.859375 l -0.03125,-0.390625 h -0.71875 l 0.980469,-3.5 h 0.390624 c 1.167969,0 1.710938,0.488281 1.710938,1.4375 0,1.453125 -1.113281,2.0625 -2.363281,2.0625 l 0.03125,0.390625 1.640625,3.816406 h 1.828125 z m 0,0"
     id="path145" />
  <path
     style="fill:#000000;fill-opacity:1;fill-rule:evenodd;stroke:none"
     d="m 257.89206,129.52231 v -0.20313 h -2.28125 v 0.20313 c 0.25,0 0.67188,0.10937 0.67188,0.41797 0,0.30078 -0.30859,0.78906 -0.44922,1.01953 l -3.19141,4.6914 -0.23046,-5.21875 c -0.0273,-0.75 0.37109,-0.91015 1.03125,-0.91015 v -0.20313 H 250.353 v 0.20313 c 0.82031,0 0.8711,0.35937 0.98047,1.32812 l 0.26953,6.69141 h 0.19922 l 4.83203,-7.0625 c 0.22656,-0.29688 0.75,-0.95703 1.25781,-0.95703 z m 0,0"
     id="path147" />
  <path
     style="fill:#000000;fill-opacity:1;fill-rule:evenodd;stroke:none"
     d="m 259.75144,139.15903 v -0.21875 c -0.60938,0 -0.77734,0 -0.77734,-0.96875 0,0 0,-4.17188 0,-4.17188 h -0.21094 l -1.53906,0.66016 0.0898,0.21093 c 0.35937,-0.1289 0.41797,-0.17187 0.52734,-0.17187 0.25,0 0.26953,0.21094 0.26953,0.42187 v 3.05079 c 0,0.96875 -0.20703,0.94921 -0.79687,0.96875 v 0.21875 z m 0,0"
     id="path149" />
  <path
     style="fill:#000000;fill-opacity:1;fill-rule:evenodd;stroke:none"
     d="m 77.438945,33.315272 v -0.203125 h -2.28125 v 0.203125 c 0.25,0 0.671875,0.109375 0.671875,0.417969 0,0.300781 -0.3125,0.78125 -0.453125,1.019531 l -3.1875,4.679688 -0.230469,-5.21875 c -0.03125,-0.75 0.371094,-0.898438 1.027344,-0.898438 v -0.203125 h -3.089844 v 0.203125 c 0.820313,0 0.871094,0.359375 0.980469,1.328125 l 0.269531,6.679688 h 0.203125 l 4.828125,-7.058594 c 0.230469,-0.300781 0.75,-0.949219 1.261719,-0.949219 z m 0,0"
     id="path151" />
  <path
     style="fill:#000000;fill-opacity:1;fill-rule:evenodd;stroke:none"
     d="m 80.04832,41.854335 -0.25,-0.03906 c -0.269531,0.398438 -0.46875,0.457032 -0.878906,0.457032 H 77.04832 c 1.339844,-1.109376 2.558594,-2.117188 2.558594,-3.226563 0,-0.851563 -0.800781,-1.421875 -1.6875,-1.421875 -0.863281,0 -1.542969,0.398438 -1.820313,1.558594 h 0.277344 c 0.261719,-0.449219 0.570312,-0.886719 1.230469,-0.886719 0.722656,0 1.140625,0.476563 1.140625,1.058594 0,0.828125 -1.011719,2.050781 -2.730469,3.390625 v 0.199218 h 3.511719 z m 0,0"
     id="path153" />
  <path
     style="fill:#000000;fill-opacity:1;fill-rule:evenodd;stroke:none"
     d="m 161.65378,77.858241 h -0.25 c -0.0898,0.160156 -0.19922,0.328125 -0.5,0.328125 -0.25781,0 -1.03906,-0.328125 -1.85937,-0.328125 -2.61719,0 -5.07031,2.527344 -5.07031,5.109375 0,2.078125 1.54296,3.277344 3.26171,3.277344 1.5,0 2.82813,-0.917969 3.44141,-1.957032 l -0.33203,-0.01953 c -0.57813,0.71875 -1.48047,1.46875 -2.69922,1.46875 -1.32031,0 -2.19141,-0.921875 -2.19141,-2.640625 0,-2.101562 1.41016,-4.828125 3.69141,-4.828125 1.25781,0 1.75781,0.828125 1.75781,2.109375 h 0.22266 z m 0,0"
     id="path155" />
  <path
     style="fill:#000000;fill-opacity:1;fill-rule:evenodd;stroke:none"
     d="m 284.728,114.34262 0.0625,-0.10156 0.0586,-0.0898 0.0508,-0.0898 0.0586,-0.0898 0.0508,-0.0781 0.0391,-0.0898 0.0508,-0.0898 0.0391,-0.082 0.043,-0.0781 0.0391,-0.082 0.0391,-0.0781 0.0391,-0.082 0.0312,-0.0781 0.0312,-0.082 0.0274,-0.0703 0.0312,-0.0781 0.0508,-0.14063 0.0508,-0.14844 0.0391,-0.13281 0.0391,-0.13672 0.0391,-0.13281 0.0312,-0.11719 0.0312,-0.12109 0.0273,-0.12109 c 0.42188,-1.66016 0.88281,-3.07813 1.60938,-3.91016 0.16015,-0.16016 0.25,-0.25781 0.63281,-0.25781 0.82031,0 0.83984,0.8164 0.83984,1 0,0.20703 -0.0625,0.36718 -0.0625,0.42968 0,0.0781 0.082,0.0781 0.0899,0.0781 0.1914,0 0.52343,-0.12891 0.8125,-0.33984 0.21093,-0.16016 0.32031,-0.28907 0.32031,-0.76954 0,-0.64843 -0.33203,-1.14062 -1,-1.14062 -0.38281,0 -1.42969,0.0898 -2.60156,1.28125 -0.94922,0.96875 -1.50782,3.12891 -1.75,4.01953 -0.19922,0.82031 -0.28907,1.19141 -0.64844,1.89844 -0.10156,0.14062 -0.39063,0.67187 -0.57031,0.83203 -0.32032,0.30078 -0.42969,0.5 -0.42969,0.55859 0,0.0312 0.008,0.082 0.10937,0.082 0.0391,0 0.28907,-0.0508 0.58985,-0.25 0.19922,-0.12109 0.23047,-0.14062 0.5,-0.42968 0.60937,0.008 1.01172,0.11718 1.76172,0.33984 0.60937,0.16016 1.21875,0.33984 1.82812,0.33984 0.96875,0 1.94141,-0.73046 2.32813,-1.25 0.24218,-0.33203 0.3125,-0.62109 0.3125,-0.65234 0,-0.0977 -0.0703,-0.0977 -0.0899,-0.0977 -0.1914,0 -0.47265,0.13672 -0.67187,0.27735 -0.32813,0.21094 -0.34766,0.26953 -0.41797,0.47265 -0.0703,0.19922 -0.13281,0.29688 -0.17969,0.35938 -0.0898,0.14062 -0.11328,0.14062 -0.29297,0.14062 -0.57031,0 -1.16015,-0.17187 -1.95703,-0.39062 -0.32031,-0.0898 -0.98047,-0.28125 -1.57031,-0.28125 -0.16016,0 -0.33203,0.0195 -0.49219,0.0508 z m 0,0"
     id="path157" />
  <path
     style="fill:#000000;fill-opacity:1;fill-rule:evenodd;stroke:none"
     d="m 294.43113,117.24106 v -0.21875 c -0.61328,0 -0.78125,0 -0.78125,-0.96875 0,0 0,-4.17188 0,-4.17188 h -0.19922 l -1.55078,0.66016 0.0898,0.21875 c 0.35938,-0.14844 0.42969,-0.17969 0.53906,-0.17969 0.25,0 0.26172,0.21094 0.26172,0.42969 v 3.04297 c 0,0.96875 -0.20312,0.95703 -0.80078,0.96875 v 0.21875 z m 0,0"
     id="path159" />
  <path
     style="fill:#000000;fill-opacity:1;fill-rule:evenodd;stroke:none"
     d="m 47.786601,139.97543 0.0625,-0.0898 0.05859,-0.0898 0.05078,-0.0898 0.05859,-0.0898 0.05078,-0.0898 0.03906,-0.0898 0.05078,-0.0781 0.03906,-0.082 0.03906,-0.0898 0.04297,-0.0781 0.03906,-0.082 0.03906,-0.0781 0.03125,-0.082 0.03125,-0.0703 0.02734,-0.0781 0.03125,-0.0703 0.05078,-0.15235 0.04687,-0.13672 0.04297,-0.14062 0.03906,-0.13281 0.03906,-0.12891 0.03125,-0.12891 0.03125,-0.12109 0.02734,-0.12109 c 0.421875,-1.64844 0.882813,-3.07813 1.609375,-3.89844 0.160157,-0.16016 0.25,-0.26953 0.632813,-0.26953 0.820312,0 0.839844,0.82812 0.839844,1 0,0.21875 -0.0625,0.37109 -0.0625,0.4414 0,0.0781 0.08203,0.0781 0.08984,0.0781 0.191407,0 0.523438,-0.12891 0.8125,-0.35156 0.210938,-0.14844 0.320313,-0.27735 0.320313,-0.75782 0,-0.66015 -0.332032,-1.14062 -1,-1.14062 -0.382813,0 -1.429688,0.0898 -2.601563,1.28125 -0.949219,0.96875 -1.507812,3.11719 -1.75,4.00781 -0.199219,0.83203 -0.289062,1.19141 -0.648437,1.91016 -0.101563,0.14062 -0.390625,0.67187 -0.570313,0.83203 -0.320312,0.28906 -0.429687,0.5 -0.429687,0.55859 0,0.0312 0.0078,0.082 0.109375,0.082 0.03906,0 0.289062,-0.0508 0.589843,-0.25 0.199219,-0.13281 0.230469,-0.14062 0.5,-0.4414 0.609376,0.0195 1.007813,0.12109 1.757813,0.33984 0.613281,0.16016 1.222656,0.35156 1.832031,0.35156 0.96875,0 1.941406,-0.74218 2.328125,-1.25 0.242188,-0.33203 0.3125,-0.63281 0.3125,-0.66015 0,-0.0898 -0.07031,-0.0898 -0.08984,-0.0898 -0.191407,0 -0.472657,0.13672 -0.671876,0.27735 -0.328124,0.19922 -0.347656,0.26953 -0.417968,0.47265 -0.07031,0.19922 -0.132813,0.29688 -0.179688,0.35938 -0.08984,0.14062 -0.113281,0.14062 -0.292968,0.14062 -0.570313,0 -1.160157,-0.17187 -1.957032,-0.39062 -0.320312,-0.10156 -0.980468,-0.28125 -1.570312,-0.28125 -0.160156,0 -0.332032,0.0117 -0.492188,0.0391 z m 0,0"
     id="path161" />
  <path
     style="fill:#000000;fill-opacity:1;fill-rule:evenodd;stroke:none"
     d="m 221.01316,90.291835 -0.16797,-0.121094 c -0.42188,0.558594 -0.71875,0.820313 -0.89063,0.820313 -0.10937,0 -0.14843,-0.08984 -0.14843,-0.25 0,-0.140626 0.0273,-0.308594 0.0703,-0.53125 l 1.10937,-4.1875 -0.85937,0.148437 -0.15234,0.601563 c -0.0977,-0.429688 -0.51954,-0.75 -0.96875,-0.75 l 0.0508,0.269531 c 0.28906,0 0.70703,0.1875 0.70703,0.859375 0,1.058594 -1.09766,3.808594 -2.47656,3.808594 -0.28125,0 -0.72266,-0.160157 -0.72266,-0.867188 0,-1.113281 1.16016,-3.800781 2.49219,-3.800781 l -0.0508,-0.269531 c -1.55079,0 -3.41016,2.328124 -3.41016,4.1875 0,0.519531 0.19141,1.410156 1.12891,1.410156 0.85937,0 1.8125,-0.769532 2.40234,-1.828125 -0.15234,0.410156 -0.26172,1.058593 -0.26172,1.25 0,0.257812 0.12109,0.578125 0.51172,0.578125 0.48828,0 1.04687,-0.4375 1.63672,-1.328125 z m 0,0"
     id="path163" />
  <path
     style="fill:#000000;fill-opacity:1;fill-rule:evenodd;stroke:none"
     d="m 172.34519,65.514491 v -0.109375 l -0.008,-0.08984 -0.0117,-0.101562 -0.008,-0.08984 -0.0234,-0.08984 -0.0195,-0.07813 -0.0195,-0.08203 -0.0273,-0.07813 -0.0312,-0.07031 -0.0391,-0.07031 -0.0312,-0.0625 -0.0391,-0.07031 -0.043,-0.04688 -0.0469,-0.0625 -0.043,-0.05078 -0.0977,-0.09766 -0.0625,-0.03906 -0.0469,-0.04297 -0.0625,-0.02734 -0.0586,-0.04297 -0.0586,-0.02734 -0.0625,-0.01953 -0.0586,-0.03125 -0.0703,-0.01953 -0.0586,-0.01953 -0.0703,-0.01172 -0.0625,-0.0078 -0.14062,-0.02344 h -0.0664 l -0.0703,-0.0078 c -1,0 -1.73047,0.929688 -2.08203,1.429688 l 1.24219,-4.519531 c 0,0 -1.61329,0.28125 -1.92188,0.308593 v 0.222657 c 0.46875,0 0.76172,0.04687 0.76172,0.410156 0,0.226563 -0.11328,0.699219 -0.20313,0.976563 l -1.69921,6.082031 c 0.12109,0.21875 0.92187,0.691406 1.67968,0.691406 l 0.0703,-0.273437 c -0.35938,0 -0.71094,-0.117188 -0.91016,-0.359376 0.28125,-1.039062 1.10937,-4.398437 2.64062,-4.398437 0.80079,0 0.87891,0.667969 0.87891,1.28125 0,2.109375 -1.35937,3.476563 -2.60937,3.476563 l -0.0703,0.273437 c 2.25,0 3.66016,-2.242187 3.66016,-4.03125 z m 0,0"
     id="path165" />
  <path
     style="fill:#000000;fill-opacity:1;fill-rule:evenodd;stroke:none"
     d="m 30.427226,71.092616 0.05859,-0.101562 0.0625,-0.08984 0.05859,-0.08984 0.05078,-0.08984 0.05078,-0.07813 0.04687,-0.08984 0.04297,-0.08984 0.03906,-0.08203 0.05078,-0.07812 0.02734,-0.08203 0.04297,-0.07813 0.03906,-0.08203 0.03125,-0.07813 0.02734,-0.08203 0.03125,-0.07031 0.03125,-0.07813 0.04687,-0.140625 0.05078,-0.148437 0.03906,-0.132813 0.04297,-0.136719 0.03906,-0.132812 0.03125,-0.117188 0.02734,-0.121093 0.03125,-0.121094 c 0.429688,-1.660156 0.878907,-3.078125 1.609375,-3.910156 0.160156,-0.148438 0.25,-0.269531 0.628906,-0.269531 0.832032,0 0.839844,0.832031 0.839844,1 0,0.21875 -0.05859,0.378906 -0.05859,0.441406 0,0.07813 0.08203,0.07813 0.08984,0.07813 0.191406,0 0.519532,-0.121094 0.820313,-0.339844 0.199219,-0.160156 0.308593,-0.28125 0.308593,-0.769531 0,-0.660156 -0.328124,-1.140625 -1,-1.140625 -0.378906,0 -1.417968,0.101562 -2.597656,1.28125 -0.949218,0.96875 -1.511718,3.128906 -1.75,4.019531 -0.199218,0.828125 -0.289062,1.179688 -0.652344,1.898438 -0.09766,0.152343 -0.386718,0.679687 -0.570312,0.832031 -0.316406,0.300781 -0.429688,0.5 -0.429688,0.570312 0,0.02734 0.01172,0.07031 0.113282,0.07031 0.03906,0 0.289062,-0.04297 0.589844,-0.25 0.199218,-0.121094 0.226562,-0.140625 0.5,-0.441406 0.609374,0.01953 1.019531,0.128906 1.769531,0.351562 0.609375,0.148438 1.21875,0.339844 1.820312,0.339844 0.96875,0 1.9375,-0.730469 2.328125,-1.25 0.242188,-0.320313 0.308594,-0.621094 0.308594,-0.652344 0,-0.09766 -0.06641,-0.09766 -0.08984,-0.09766 -0.1875,0 -0.46875,0.140625 -0.667968,0.277344 -0.332032,0.210937 -0.339844,0.273437 -0.421876,0.472656 -0.05859,0.207031 -0.128906,0.300781 -0.167968,0.359375 -0.101563,0.140625 -0.109375,0.140625 -0.300782,0.140625 -0.558593,0 -1.160156,-0.171875 -1.949218,-0.390625 -0.332032,-0.08984 -0.992188,-0.28125 -1.582032,-0.28125 -0.160156,0 -0.328124,0.01953 -0.488281,0.05078 z m 0,0"
     id="path167" />
  <path
     style="fill:#000000;fill-opacity:1;fill-rule:evenodd;stroke:none"
     d="m 40.876445,72.90121 -0.25,-0.04687 c -0.257812,0.40625 -0.46875,0.46875 -0.871094,0.46875 h -1.878906 c 1.351562,-1.109375 2.5625,-2.128907 2.5625,-3.242188 0,-0.839843 -0.792969,-1.417969 -1.683594,-1.417969 -0.859375,0 -1.546875,0.410157 -1.828125,1.558594 h 0.28125 c 0.269531,-0.449218 0.578125,-0.890625 1.230469,-0.890625 0.71875,0 1.136719,0.492188 1.136719,1.070313 0,0.820312 -1.007813,2.042968 -2.726563,3.390625 v 0.199219 h 3.519532 z m 0,0"
     id="path169" />
  <path
     style="fill:#000000;fill-opacity:1;fill-rule:evenodd;stroke:none"
     d="m 108.7866,24.924647 h -0.12891 l -0.0508,-0.0078 -0.0586,-0.01172 -0.0508,-0.0078 -0.0586,-0.01172 -0.043,-0.01953 -0.0469,-0.01953 -0.0508,-0.01953 -0.0391,-0.02344 -0.043,-0.01953 -0.0391,-0.02734 -0.0391,-0.01953 -0.0391,-0.03125 -0.0312,-0.03125 -0.0312,-0.02734 -0.0391,-0.04297 -0.0312,-0.02734 -0.0273,-0.04297 -0.0195,-0.03906 -0.0312,-0.03125 -0.0312,-0.03906 -0.0195,-0.03906 -0.0312,-0.03906 -0.0195,-0.05078 -0.0195,-0.03906 -0.0391,-0.08984 -0.0391,-0.08203 -0.043,-0.09766 -1.15625,-2.78125 c 1.69922,-0.289062 2.27735,-1.289062 2.27735,-2.339843 0,-0.75 -0.58985,-1.78125 -2.64063,-1.78125 h -2.85937 l -0.0391,0.199218 c 0.39844,0 0.89844,0.03125 0.89844,0.582032 0,0.160156 -0.0273,0.359374 -0.14844,0.800781 l -1.41015,5.078125 c -0.33985,1.199218 -0.78125,1.179687 -1.23828,1.179687 l -0.0312,0.210938 h 3.23828 l 0.0312,-0.210938 c -0.3086,0 -0.91016,-0.03906 -0.91016,-0.621093 0,-0.109376 0.0195,-0.25 0.0703,-0.40625 l 0.69922,-2.582032 h 0.85938 l -0.0273,-0.390625 h -0.72265 l 0.98047,-3.5 h 0.39062 c 1.17188,0 1.71094,0.492188 1.71094,1.441407 0,1.449218 -1.10938,2.058593 -2.35938,2.058593 l 0.0273,0.390625 1.64062,3.820313 h 1.83203 z m 0,0"
     id="path171" />
  <path
     style="fill:#000000;fill-opacity:1;fill-rule:evenodd;stroke:none"
     d="m 111.89597,16.826991 v -0.03125 l -0.008,-0.01953 v -0.03906 l -0.0117,-0.03125 -0.008,-0.01953 -0.0117,-0.01953 -0.008,-0.01953 -0.0117,-0.02344 -0.008,-0.01953 -0.0117,-0.0078 -0.0195,-0.01953 -0.0117,-0.02344 -0.0195,-0.0078 -0.008,-0.01953 -0.0195,-0.01953 -0.0234,-0.01172 -0.0195,-0.0078 -0.0195,-0.02344 -0.008,-0.0078 -0.0312,-0.01172 -0.0195,-0.0078 -0.0195,-0.01172 -0.0195,-0.0078 h -0.0234 l -0.0195,-0.01172 -0.0273,-0.0078 h -0.0195 l -0.0234,-0.01172 h -0.0703 c -0.16797,0 -0.34765,0.08984 -0.41797,0.339843 l -1.07031,3.640626 0.23828,0.09766 1.70313,-3.449219 c 0.0195,-0.07031 0.0469,-0.128906 0.0469,-0.1875 z m 0,0"
     id="path173" />
  <path
     style="fill:#000000;fill-opacity:1;fill-rule:evenodd;stroke:none"
     d="m 85.208476,160.68246 v -0.1914 l -0.0078,-0.17969 -0.02344,-0.17969 -0.01953,-0.16015 -0.01953,-0.16797 -0.03906,-0.15235 -0.03906,-0.14843 -0.04297,-0.14844 -0.04687,-0.13281 -0.0625,-0.12891 -0.05859,-0.12891 -0.07031,-0.12109 -0.07031,-0.10938 -0.07813,-0.10937 -0.08203,-0.10156 -0.179687,-0.17969 -0.08984,-0.082 -0.109375,-0.0781 -0.101563,-0.0703 -0.109375,-0.0586 -0.121093,-0.0625 -0.117188,-0.0586 -0.121094,-0.0391 -0.128906,-0.0508 -0.132812,-0.0312 -0.136719,-0.0273 -0.140625,-0.0312 -0.140625,-0.0195 -0.152344,-0.0117 -0.148437,-0.008 h -0.160157 c -2.429687,0 -4.96875,2.85938 -4.96875,5.41797 0,2.01172 1.390625,2.97266 2.75,2.97266 l 0.07031,-0.41016 c -1.082032,0 -1.550782,-0.95312 -1.550782,-2.15234 0,-2.23828 1.550782,-5.41016 3.578126,-5.41016 1.140624,0 1.621093,0.94141 1.621093,2.14063 0,2.21875 -1.648437,5.42187 -3.648437,5.42187 l -0.07031,0.41016 c 2.460938,0 4.96875,-2.86328 4.96875,-5.42188 z m 0,0"
     id="path175" />
  <path
     style="font-style:normal;font-variant:normal;font-weight:normal;font-stretch:normal;letter-spacing:normal;word-spacing:normal;text-anchor:start;fill:#000000;fill-opacity:1;fill-rule:evenodd;stroke:#000000;stroke-width:0;stroke-linecap:butt;stroke-linejoin:miter;stroke-miterlimit:10.43299961;stroke-dasharray:none;stroke-dashoffset:0;stroke-opacity:1"
     d="m 153.85085,167.5087 h -2.25 l -0.03,0.2 c 0.47,0 0.63,0.24 0.63,0.41 0,0.19 -0.16,0.45 -0.36,0.67 l -1.88,2.03 -0.53,-1.67 c -0.08,-0.24 -0.22,-0.58 -0.22,-0.91 0,-0.45 0.5,-0.53 0.83,-0.53 l 0.05,-0.2 h -3.22 l -0.03,0.2 c 0.79,0 1.01,0.36 1.23,1.03 l 1.02,3.07 c -0.94,1.1 -2.44,2.7 -2.44,2.7 -0.42,0.47 -0.94,0.84 -1.36,0.84 l -0.03,0.21 h 2.58 l 0.03,-0.21 c -0.3,0 -0.77,-0.01 -0.77,-0.39 0,-0.19 0.21,-0.48 0.35,-0.64 l 1.81,-2.01 0.62,1.87 c 0.05,0.14 0.11,0.42 0.11,0.63 0,0.51 -0.4,0.54 -0.89,0.54 l -0.03,0.21 h 3.17 l 0.05,-0.21 c -0.59,0 -0.92,-0.25 -1.16,-0.98 l -1,-3.05 2.04,-2.28 c 0.37,-0.39 1.18,-1.33 1.65,-1.33 z"
     id="path4786" />
  <path
     style="font-style:normal;font-variant:normal;font-weight:normal;font-stretch:normal;letter-spacing:normal;word-spacing:normal;text-anchor:start;fill:#000000;fill-opacity:1;fill-rule:evenodd;stroke:#000000;stroke-width:0;stroke-linecap:butt;stroke-linejoin:miter;stroke-miterlimit:10.43299961;stroke-dasharray:none;stroke-dashoffset:0;stroke-opacity:1"
     d="m 102.16223,2.9074125 h -2.489995 l -0.03,0.21 c 0.469995,0 0.849995,0.04 0.849995,0.42 0,0.12 -0.14,0.42 -0.33,0.66 -0.02,0.03 -1.769995,2.25 -1.949995,2.5 -0.13,-0.44 -0.77,-2.55 -0.77,-2.55 -0.05,-0.14 -0.09,-0.38 -0.09,-0.5 0,-0.5 0.48,-0.53 0.89,-0.53 l 0.04,-0.21 h -3.15 l -0.03,0.21 c 0.65,0 0.92,0.22 1.17,1.03 l 0.9,3.01 -0.62,2.22 c -0.33,1.1300005 -0.63,1.3600005 -1.48,1.3800005 l -0.05,0.2 h 3.56 l 0.05,-0.2 c -0.64,0 -1.06,-0.03 -1.06,-0.58 0,-0.2200003 0.12,-0.6600003 0.31,-1.3100005 l 0.47,-1.66 2.149995,-2.78 c 0.44,-0.56 0.89,-1.28 1.63,-1.28 z"
     id="path4788" />
  <g
     transform="translate(114.54338,132.88976)"
     id="g5178">
    <path
       style="font-style:normal;font-variant:normal;font-weight:normal;font-stretch:normal;letter-spacing:normal;word-spacing:normal;text-anchor:start;fill:#000000;fill-opacity:1;fill-rule:evenodd;stroke:#000000;stroke-width:0;stroke-linecap:butt;stroke-linejoin:miter;stroke-miterlimit:10.43299961;stroke-dasharray:none;stroke-dashoffset:0;stroke-opacity:1"
       d="m 172.78248,9.39161 h -2.25 l -0.03,0.2 c 0.47,0 0.63,0.24 0.63,0.41 0,0.19 -0.16,0.45 -0.36,0.67 l -1.88,2.03 -0.53,-1.67 c -0.08,-0.24 -0.22,-0.58 -0.22,-0.91 0,-0.45 0.5,-0.53 0.83,-0.53 l 0.05,-0.2 h -3.22 l -0.03,0.2 c 0.79,0 1.01,0.36 1.23,1.03 l 1.02,3.07 c -0.94,1.1 -2.44,2.7 -2.44,2.7 -0.42,0.47 -0.94,0.84 -1.36,0.84 l -0.03,0.21 h 2.58 l 0.03,-0.21 c -0.3,0 -0.77,-0.01 -0.77,-0.39 0,-0.19 0.21,-0.48 0.35,-0.64 l 1.81,-2.01 0.62,1.87 c 0.05,0.14 0.11,0.42 0.11,0.63 0,0.51 -0.4,0.54 -0.89,0.54 l -0.03,0.21 h 3.17 l 0.05,-0.21 c -0.59,0 -0.92,-0.25 -1.16,-0.98 l -1,-3.05 2.04,-2.28 c 0.37,-0.39 1.18,-1.33 1.65,-1.33 z"
       id="path5066" />
    <path
       style="font-style:normal;font-variant:normal;font-weight:normal;font-stretch:normal;letter-spacing:normal;word-spacing:normal;text-anchor:start;fill:#000000;fill-opacity:1;fill-rule:evenodd;stroke:#000000;stroke-width:0;stroke-linecap:butt;stroke-linejoin:miter;stroke-miterlimit:10.43299961;stroke-dasharray:none;stroke-dashoffset:0;stroke-opacity:1"
       d="m 176.06248,9.13161 v -0.03 l -0.01,-0.02 v -0.02 l -0.01,-0.02 v -0.03 l -0.01,-0.02 -0.01,-0.02 -0.01,-0.02 -0.01,-0.02 -0.01,-0.02 -0.01,-0.01 -0.02,-0.02 -0.01,-0.02 -0.02,-0.01 -0.01,-0.02 -0.02,-0.02 -0.02,-0.01 -0.02,-0.01 -0.02,-0.02 -0.02,-0.01 -0.02,-0.01 -0.02,-0.01 -0.02,-0.01 -0.02,-0.01 h -0.02 l -0.03,-0.01 -0.02,-0.01 h -0.02 l -0.02,-0.01 h -0.03 -0.02 -0.02 c -0.18,0 -0.35,0.09 -0.43,0.34 l -1.06,3.64 0.24,0.1 1.7,-3.45 c 0.01,-0.07 0.05,-0.13 0.05,-0.19 z"
       id="path5068" />
  </g>
  <g
     transform="translate(47.263895,-16.681999)"
     id="g5182">
    <path
       style="font-style:normal;font-variant:normal;font-weight:normal;font-stretch:normal;letter-spacing:normal;word-spacing:normal;text-anchor:start;fill:#000000;fill-opacity:1;fill-rule:evenodd;stroke:#000000;stroke-width:0;stroke-linecap:butt;stroke-linejoin:miter;stroke-miterlimit:10.43299961;stroke-dasharray:none;stroke-dashoffset:0;stroke-opacity:1"
       d="m 171.69248,23.83161 h -2.49 l -0.03,0.21 c 0.47,0 0.85,0.04 0.85,0.42 0,0.12 -0.14,0.42 -0.33,0.66 -0.02,0.03 -1.77,2.25 -1.95,2.5 -0.13,-0.44 -0.77,-2.55 -0.77,-2.55 -0.05,-0.14 -0.09,-0.38 -0.09,-0.5 0,-0.5 0.48,-0.53 0.89,-0.53 l 0.04,-0.21 h -3.15 l -0.03,0.21 c 0.65,0 0.92,0.22 1.17,1.03 l 0.9,3.01 -0.62,2.22 c -0.33,1.13 -0.63,1.36 -1.48,1.38 l -0.05,0.2 h 3.56 l 0.05,-0.2 c -0.64,0 -1.06,-0.03 -1.06,-0.58 0,-0.22 0.12,-0.66 0.31,-1.31 l 0.47,-1.66 2.15,-2.78 c 0.44,-0.56 0.89,-1.28 1.63,-1.28 z"
       id="path5070" />
    <path
       style="font-style:normal;font-variant:normal;font-weight:normal;font-stretch:normal;letter-spacing:normal;word-spacing:normal;text-anchor:start;fill:#000000;fill-opacity:1;fill-rule:evenodd;stroke:#000000;stroke-width:0;stroke-linecap:butt;stroke-linejoin:miter;stroke-miterlimit:10.43299961;stroke-dasharray:none;stroke-dashoffset:0;stroke-opacity:1"
       d="m 175.10248,23.57161 v -0.02 -0.02 l -0.01,-0.03 v -0.02 l -0.01,-0.02 -0.01,-0.02 v -0.02 l -0.01,-0.02 -0.01,-0.02 -0.02,-0.02 -0.01,-0.02 -0.01,-0.02 -0.02,-0.01 -0.01,-0.02 -0.02,-0.02 -0.02,-0.01 -0.02,-0.01 -0.01,-0.02 -0.02,-0.01 -0.02,-0.01 -0.02,-0.01 -0.02,-0.01 -0.03,-0.01 -0.02,-0.01 -0.02,-0.01 -0.02,-0.01 h -0.02 l -0.03,-0.01 h -0.02 -0.02 -0.03 -0.02 c -0.17,0 -0.35,0.09 -0.42,0.34 l -1.07,3.64 0.24,0.09 1.7,-3.45 c 0.02,-0.06 0.05,-0.12 0.05,-0.19 z"
       id="path5072" />
  </g>
</svg>
