<?xml version="1.0" encoding="UTF-8" standalone="no"?>
<svg
   xmlns:dc="http://purl.org/dc/elements/1.1/"
   xmlns:cc="http://creativecommons.org/ns#"
   xmlns:rdf="http://www.w3.org/1999/02/22-rdf-syntax-ns#"
   xmlns:svg="http://www.w3.org/2000/svg"
   xmlns="http://www.w3.org/2000/svg"
   viewBox="0 0 165.33333 149.33333"
   height="149.33333"
   width="165.33333"
   xml:space="preserve"
   id="svg2"
   version="1.1"><metadata
     id="metadata8"><rdf:RDF><cc:Work
         rdf:about=""><dc:format>image/svg+xml</dc:format><dc:type
           rdf:resource="http://purl.org/dc/dcmitype/StillImage" /><dc:title></dc:title></cc:Work></rdf:RDF></metadata><defs
     id="defs6" /><g
     transform="matrix(1.3333333,0,0,-1.3333333,0,149.33333)"
     id="g10"><g
       transform="scale(0.1)"
       id="g12"><path
         id="path14"
         style="fill:none;stroke:#231f20;stroke-width:5.66930008;stroke-linecap:butt;stroke-linejoin:miter;stroke-miterlimit:22.92560005;stroke-dasharray:none;stroke-opacity:1"
         d="m 10.2891,595.656 176.3789,207.465 167.707,104.262 209.605,3.933 70.469,-69.75" /><path
         id="path16"
         style="fill:none;stroke:#231f20;stroke-width:5.66930008;stroke-linecap:butt;stroke-linejoin:miter;stroke-miterlimit:22.92560005;stroke-dasharray:none;stroke-opacity:1"
         d="M 688.207,669.074 683.316,562.395 509.184,200.445 156.043,224.758 72.6602,306.676" /><path
         id="path18"
         style="fill:none;stroke:#231f20;stroke-width:5.66930008;stroke-linecap:butt;stroke-linejoin:miter;stroke-miterlimit:22.92560005;stroke-dasharray:none;stroke-opacity:1"
         d="m 683.316,963.957 c 221.778,0 401.564,-179.785 401.564,-401.562 0,-221.778 -179.786,-401.563 -401.564,-401.563 -221.777,0 -401.558,179.785 -401.558,401.563 0,221.777 179.781,401.562 401.558,401.562 z" /><path
         id="path20"
         style="fill:none;stroke:#231f20;stroke-width:5.66930008;stroke-linecap:butt;stroke-linejoin:miter;stroke-miterlimit:22.92560005;stroke-dasharray:none;stroke-opacity:1"
         d="M 683.316,1039.07 C 946.578,1039.07 1160,825.656 1160,562.395 1160,299.133 946.578,85.7148 683.316,85.7148 c -263.261,0 -476.679,213.4182 -476.679,476.6802 0,263.261 213.418,476.675 476.679,476.675 z" /><path
         id="path22"
         style="fill:none;stroke:#231f20;stroke-width:5.66930008;stroke-linecap:butt;stroke-linejoin:miter;stroke-miterlimit:22.92560005;stroke-dasharray:none;stroke-opacity:1"
         d="m 683.316,1114.18 c 304.747,0 551.794,-247.043 551.794,-551.785 0,-304.747 -247.047,-551.7895 -551.794,-551.7895 -304.742,0 -551.789,247.0425 -551.789,551.7895 0,304.742 247.047,551.785 551.789,551.785 z" /><path
         id="path24"
         style="fill:#231f20;fill-opacity:1;fill-rule:nonzero;stroke:none"
         d="m 576.723,910.887 c 0,-6.797 -5.508,-12.309 -12.305,-12.309 -6.797,0 -12.309,5.512 -12.309,12.309 0,6.797 5.512,12.304 12.309,12.304 6.797,0 12.305,-5.507 12.305,-12.304" /><path
         id="path26"
         style="fill:none;stroke:#171414;stroke-width:7.19700003;stroke-linecap:round;stroke-linejoin:round;stroke-miterlimit:10;stroke-dasharray:none;stroke-opacity:1"
         d="m 576.723,910.887 c 0,-6.797 -5.508,-12.309 -12.305,-12.309 -6.797,0 -12.309,5.512 -12.309,12.309 0,6.797 5.512,12.304 12.309,12.304 6.797,0 12.305,-5.507 12.305,-12.304 z" /><path
         id="path28"
         style="fill:#231f20;fill-opacity:1;fill-rule:nonzero;stroke:none"
         d="m 695.621,562.398 c 0,-6.8 -5.508,-12.308 -12.301,-12.308 -6.797,0 -12.308,5.508 -12.308,12.308 0,6.793 5.511,12.301 12.308,12.301 6.793,0 12.301,-5.508 12.301,-12.301" /><path
         id="path30"
         style="fill:none;stroke:#171414;stroke-width:7.19700003;stroke-linecap:round;stroke-linejoin:round;stroke-miterlimit:10;stroke-dasharray:none;stroke-opacity:1"
         d="m 695.621,562.398 c 0,-6.8 -5.508,-12.308 -12.301,-12.308 -6.797,0 -12.308,5.508 -12.308,12.308 0,6.793 5.511,12.301 12.308,12.301 6.793,0 12.301,-5.508 12.301,-12.301 z" /><path
         id="path32"
         style="fill:#231f20;fill-opacity:1;fill-rule:nonzero;stroke:none"
         d="m 366.684,907.387 c 0,-6.797 -5.508,-12.309 -12.305,-12.309 -6.797,0 -12.309,5.512 -12.309,12.309 0,6.797 5.512,12.304 12.309,12.304 6.797,0 12.305,-5.507 12.305,-12.304" /><path
         id="path34"
         style="fill:none;stroke:#171414;stroke-width:7.19700003;stroke-linecap:round;stroke-linejoin:round;stroke-miterlimit:10;stroke-dasharray:none;stroke-opacity:1"
         d="m 366.684,907.387 c 0,-6.797 -5.508,-12.309 -12.305,-12.309 -6.797,0 -12.309,5.512 -12.309,12.309 0,6.797 5.512,12.304 12.309,12.304 6.797,0 12.305,-5.507 12.305,-12.304 z" /><path
         id="path36"
         style="fill:#231f20;fill-opacity:1;fill-rule:nonzero;stroke:none"
         d="m 168.348,224.758 c 0,-6.797 -5.508,-12.309 -12.301,-12.309 -6.801,0 -12.309,5.512 -12.309,12.309 0,6.797 5.508,12.305 12.309,12.305 6.793,0 12.301,-5.508 12.301,-12.305" /><path
         id="path38"
         style="fill:none;stroke:#171414;stroke-width:7.19700003;stroke-linecap:round;stroke-linejoin:round;stroke-miterlimit:10;stroke-dasharray:none;stroke-opacity:1"
         d="m 168.348,224.758 c 0,-6.797 -5.508,-12.309 -12.301,-12.309 -6.801,0 -12.309,5.512 -12.309,12.309 0,6.797 5.508,12.305 12.309,12.305 6.793,0 12.301,-5.508 12.301,-12.305 z" /><path
         id="path40"
         style="fill:#231f20;fill-opacity:1;fill-rule:nonzero;stroke:none"
         d="m 198.973,803.125 c 0,-6.801 -5.508,-12.309 -12.301,-12.309 -6.797,0 -12.309,5.508 -12.309,12.309 0,6.793 5.512,12.301 12.309,12.301 6.793,0 12.301,-5.508 12.301,-12.301" /><path
         id="path42"
         style="fill:none;stroke:#171414;stroke-width:7.19700003;stroke-linecap:round;stroke-linejoin:round;stroke-miterlimit:10;stroke-dasharray:none;stroke-opacity:1"
         d="m 198.973,803.125 c 0,-6.801 -5.508,-12.309 -12.301,-12.309 -6.797,0 -12.309,5.508 -12.309,12.309 0,6.793 5.512,12.301 12.309,12.301 6.793,0 12.301,-5.508 12.301,-12.301 z" /><path
         id="path44"
         style="fill:#231f20;fill-opacity:1;fill-rule:nonzero;stroke:none"
         d="m 521.492,200.449 c 0,-6.797 -5.508,-12.308 -12.304,-12.308 -6.797,0 -12.309,5.511 -12.309,12.308 0,6.793 5.512,12.301 12.309,12.301 6.796,0 12.304,-5.508 12.304,-12.301" /><path
         id="path46"
         style="fill:none;stroke:#171414;stroke-width:7.19700003;stroke-linecap:round;stroke-linejoin:round;stroke-miterlimit:10;stroke-dasharray:none;stroke-opacity:1"
         d="m 521.492,200.449 c 0,-6.797 -5.508,-12.308 -12.304,-12.308 -6.797,0 -12.309,5.511 -12.309,12.308 0,6.793 5.512,12.301 12.309,12.301 6.796,0 12.304,-5.508 12.304,-12.301 z" /><path
         id="path48"
         style="fill:#000000;fill-opacity:1;fill-rule:nonzero;stroke:none"
         d="m 801.203,558.207 c 0,20.324 -10.879,29.77 -27.621,29.77 -24.504,0 -49.852,-28.692 -49.852,-54.399 0,-20.324 13.989,-29.887 27.618,-29.887 24.507,0 49.855,28.813 49.855,54.516 z m -12.676,4.066 c 0,-22.359 -16.496,-54.394 -36.578,-54.394 -10.761,0 -15.543,9.562 -15.543,21.637 0,22.355 15.543,54.156 35.867,54.156 11.473,0 16.254,-9.324 16.254,-21.399" /><path
         id="path50"
         style="fill:#000000;fill-opacity:1;fill-rule:nonzero;stroke:none"
         d="m 151.316,179.355 h -37.179 l -5.141,-15.425 h 2.391 c 2.988,7.293 5.859,7.414 10.164,7.414 h 19.484 l -41.242,-46.625 1.434,-1.434 c 1.914,1.317 2.867,2.031 5.378,2.031 7.055,0 11.598,-6.097 20.922,-8.847 2.871,-0.836 6.336,-1.434 9.805,-1.434 2.75,0 5.617,0.36 8.246,1.317 4.184,1.433 5.621,4.421 5.621,6.933 0,2.988 -2.152,5.738 -5.859,5.738 -2.629,0 -4.422,-1.437 -4.422,-3.585 0,-2.633 2.988,-3.829 2.988,-5.383 0,-1.672 -2.273,-3.106 -4.543,-3.106 -11.476,0 -12.312,14.106 -28.812,16.379 l 40.765,46.027" /><path
         id="path52"
         style="fill:#000000;fill-opacity:1;fill-rule:nonzero;stroke:none"
         d="m 198.703,106.719 v 2.23 c -6.058,0 -7.89,-0.078 -7.89,9.645 0,0.082 0,41.926 0,41.926 h -1.993 l -15.461,-6.618 0.875,-2.152 c 3.586,1.355 4.305,1.594 5.422,1.594 2.387,0 2.551,-1.91 2.551,-4.223 v -30.527 c 0,-9.723 -1.914,-9.567 -7.894,-9.645 v -2.23 h 24.39" /><path
         id="path54"
         style="fill:#ffffff;fill-opacity:1;fill-rule:evenodd;stroke:none"
         d="m 815.527,204.879 c 11.036,19.316 31.211,33.828 53.469,33.828 21.484,0 39.801,-15.34 39.801,-37.527 0,-6.832 -1.863,-13.278 -5.152,-18.735 l 11.664,-7.765 -18.715,-23.789 c -11.34,-14.411 -26.211,-24.184 -45.172,-24.184 -15.371,0 -28.024,6.941 -35.895,17.91 v -1.769 H 680.48 c -6.398,-18.813 -21.304,-33.664 -43.468,-33.664 -12.821,0 -23.153,4.734 -30.84,12.293 -0.012,-0.008 -0.027,-0.008 -0.043,-0.016 -5.703,-2.078 -11.754,-3.004 -17.816,-3.004 -5.938,0 -12.004,0.895 -17.696,2.57 -4.652,1.368 -7.89,2.961 -11.121,4.719 l -10.617,-7.297 -36.484,36.485 10.988,12.418 h -2.211 l 23.789,71.355 H 664.426 L 646.84,218.848 c 16.09,-3.477 27.238,-15.465 32.894,-30.364 v 41.141 h 135.793 v -24.746" /><path
         id="path56"
         style="fill:#000000;fill-opacity:1;fill-rule:nonzero;stroke:none"
         d="m 602.297,210.742 h -37.18 l -5.14,-15.422 h 2.39 c 2.988,7.293 5.86,7.41 10.164,7.41 h 19.485 l -41.243,-46.625 1.434,-1.433 c 1.914,1.316 2.867,2.035 5.379,2.035 7.055,0 11.598,-6.098 20.922,-8.848 2.871,-0.836 6.336,-1.437 9.805,-1.437 2.75,0 5.617,0.359 8.246,1.316 4.187,1.434 5.621,4.422 5.621,6.934 0,2.988 -2.153,5.738 -5.856,5.738 -2.633,0 -4.426,-1.433 -4.426,-3.586 0,-2.629 2.989,-3.828 2.989,-5.379 0,-1.672 -2.274,-3.109 -4.543,-3.109 -11.477,0 -12.313,14.105 -28.813,16.379 l 40.766,46.027" /><path
         id="path58"
         style="fill:#000000;fill-opacity:1;fill-rule:nonzero;stroke:none"
         d="m 656.059,164.566 c 0,14.348 -6.532,27.34 -19.047,27.34 -12.672,0 -19.207,-12.992 -19.207,-27.34 0,-14.586 6.293,-27.414 19.207,-27.414 12.113,0 19.047,12.828 19.047,27.414 z m -9.879,0 c 0,-11.156 -2.789,-24.308 -9.328,-24.308 -8.207,0 -9.164,13.152 -9.164,24.308 0,9.247 0.554,24.231 9.324,24.231 8.609,0 9.168,-14.984 9.168,-24.231" /><path
         id="path60"
         style="fill:#000000;fill-opacity:1;fill-rule:nonzero;stroke:none"
         d="m 787.563,194.961 v 6.695 h -79.86 v -6.695 z m 0,-24.148 v 6.691 h -79.86 v -6.691 h 79.86" /><path
         id="path62"
         style="fill:#000000;fill-opacity:1;fill-rule:nonzero;stroke:none"
         d="m 880.828,201.18 c 0,4.543 -3.465,9.562 -11.832,9.562 -17.574,0 -34.312,-19.965 -34.312,-37.539 0,-12.676 7.769,-18.531 16.738,-18.531 11.355,0 18.769,7.891 23.191,13.512 l -1.793,1.191 c -3.226,-3.941 -9.203,-10.16 -16.976,-10.16 -6.934,0 -10.996,5.621 -10.996,14.703 0,11.359 8.843,34.434 24.148,34.434 2.27,0 4.543,-1.079 4.543,-3.11 0,-2.031 -2.988,-3.465 -2.988,-6.695 0,-2.629 1.793,-4.422 4.422,-4.422 3.707,0 5.855,3.348 5.855,7.055" /><path
         id="path64"
         style="fill:#ffffff;fill-opacity:1;fill-rule:evenodd;stroke:none"
         d="m 381.512,1016.34 35.672,15.27 h 25.808 v -19.77 c 0,-10.6 0,-21.199 0,-31.801 h 7.891 v -41.758 h -63.918 v 20.563 h -5.453 v -26.621 h -44.469 v 26.621 h -18.047 l -0.402,-1.453 c -5.071,-18.282 -15.68,-34.172 -36.742,-34.172 -13.934,0 -26.539,9.5 -26.539,24.226 0,2.594 0.425,5.082 1.203,7.403 -0.055,0 -0.118,0 -0.172,0 -5.039,0 -9.469,1.429 -13.274,3.828 l -0.648,-2.395 h -50.035 l 21.769,80.459 h -3.519 v 40.27 l 18.152,1.34 c 5.594,0.56 11.836,1.86 17.434,2.86 l 30.574,5.66 -9.887,-37.62 h 32.961 l -2.703,-17.93 c 3.285,1.71 7.02,2.68 10.988,2.68 9.27,0 17.375,-5.3 21.442,-13.01 l 6.972,1.27 -4.465,-16.11 c -0.148,-0.97 -0.351,-1.91 -0.613,-2.84 h 5.551 v 26.62 h 44.469 z m 0,-3.93 v -9.1 h 3.707 l -3.707,9.1" /><path
         id="path66"
         style="fill:#000000;fill-opacity:1;fill-rule:nonzero;stroke:none"
         d="m 276.906,1029.48 h -23.074 l -0.355,-2.03 c 2.148,0 5.734,-0.36 5.734,-2.15 0,-2.03 -4.422,-6.1 -7.648,-8.6 0,0 -15.305,-11.96 -17.219,-13.63 l 15.422,58.7 c 0,0 -16.141,-2.88 -19.364,-3.11 v -2.16 c 4.661,0 7.77,-0.48 7.77,-4.18 0,-2.27 -1.438,-7.89 -2.274,-10.88 l -17.691,-65.393 h 9.086 l 5.977,22.113 6.933,5.5 c 3.828,-10.039 7.531,-19.844 7.531,-19.844 2.75,-7.171 6.215,-9.207 8.61,-9.207 5.976,0 12.672,8.61 15.543,13.75 l -1.797,1.317 c -3.707,-5.621 -6.574,-8.731 -9.082,-8.731 -1.797,0 -3.473,2.035 -4.906,5.621 0,0 -4.782,13.27 -8.848,22.714 l 5.742,4.78 c 9.445,7.89 16.977,13.03 23.551,13.03 l 0.359,2.39" /><path
         id="path68"
         style="fill:#000000;fill-opacity:1;fill-rule:nonzero;stroke:none"
         d="m 312.617,1009.77 c 0,2.07 -1.754,4.46 -4.461,4.46 -2.234,0 -4.226,-1.83 -4.226,-4.46 0,-2.63 1.992,-4.38 4.304,-4.38 2.629,0 4.383,2.31 4.383,4.38 z m -3.508,-12.594 c 0,0 -12.589,-2.149 -15.379,-2.309 v -2.629 c 3.504,0 5.657,0 5.657,-2.23 0,-1.598 -1.035,-5.582 -1.594,-7.414 l -6.137,-21.84 c -1.117,-3.824 -3.984,-15.859 -9.644,-15.859 -0.797,0 -1.594,0.16 -1.594,0.875 0,0.878 1.434,0.957 1.434,2.632 0,1.594 -1.594,2.469 -3.184,2.469 -2.555,0 -3.59,-1.992 -3.59,-3.426 0,-2.871 3.11,-4.465 6.774,-4.465 10.683,0 14.984,9.723 17.695,19.688 l 9.562,34.508" /><path
         id="path70"
         style="fill:#000000;fill-opacity:1;fill-rule:nonzero;stroke:none"
         d="m 388.371,978.609 v 4.938 H 361.75 v 26.623 h -4.945 v -26.623 h -26.617 v -4.938 h 26.617 v -26.621 h 4.945 v 26.621 h 26.621" /><path
         id="path72"
         style="fill:#000000;fill-opacity:1;fill-rule:nonzero;stroke:none"
         d="m 431.121,958.047 v 2.23 c -6.058,0 -7.894,-0.082 -7.894,9.641 0,0.082 0,41.922 0,41.922 h -1.993 l -15.461,-6.61 0.879,-2.15 c 3.582,1.35 4.301,1.59 5.418,1.59 2.391,0 2.551,-1.91 2.551,-4.22 v -30.532 c 0,-9.723 -1.914,-9.563 -7.891,-9.641 v -2.23 h 24.391" /><path
         id="path74"
         style="fill:#000000;fill-opacity:1;fill-rule:nonzero;stroke:none"
         d="M 102.879,881.098 H 65.6992 l -5.1406,-15.422 h 2.3906 c 2.9883,7.293 5.8555,7.414 10.1641,7.414 h 19.4844 l -41.2461,-46.625 1.4375,-1.434 c 1.9101,1.313 2.8672,2.032 5.3789,2.032 7.0508,0 11.5976,-6.098 20.9179,-8.848 2.8711,-0.836 6.3399,-1.434 9.8047,-1.434 2.75,0 5.6211,0.356 8.25,1.317 4.1834,1.433 5.6174,4.422 5.6174,6.933 0,2.985 -2.149,5.735 -5.8557,5.735 -2.6289,0 -4.4257,-1.434 -4.4257,-3.586 0,-2.629 2.9882,-3.825 2.9882,-5.379 0,-1.672 -2.2695,-3.106 -4.539,-3.106 -11.4805,0 -12.3164,14.106 -28.8125,16.379 l 40.7657,46.024" /><path
         id="path76"
         style="fill:#000000;fill-opacity:1;fill-rule:nonzero;stroke:none"
         d="m 146.961,860.191 c 0,2.071 -1.75,4.461 -4.461,4.461 -2.234,0 -4.223,-1.832 -4.223,-4.461 0,-2.632 1.989,-4.386 4.305,-4.386 2.629,0 4.379,2.312 4.379,4.386 z m -3.504,-12.593 c 0,0 -12.594,-2.153 -15.383,-2.313 v -2.629 c 3.508,0 5.66,0 5.66,-2.23 0,-1.598 -1.039,-5.578 -1.593,-7.414 l -6.137,-21.84 c -1.117,-3.824 -3.984,-15.859 -9.649,-15.859 -0.792,0 -1.589,0.16 -1.589,0.878 0,0.875 1.433,0.954 1.433,2.629 0,1.594 -1.594,2.469 -3.187,2.469 -2.551,0 -3.59,-1.988 -3.59,-3.426 0,-2.871 3.113,-4.461 6.777,-4.461 10.68,0 14.985,9.723 17.692,19.684 l 9.566,34.512" /></g></g></svg>