<?xml version="1.0" encoding="UTF-8" standalone="no"?>
<svg
   xmlns:dc="http://purl.org/dc/elements/1.1/"
   xmlns:cc="http://creativecommons.org/ns#"
   xmlns:rdf="http://www.w3.org/1999/02/22-rdf-syntax-ns#"
   xmlns:svg="http://www.w3.org/2000/svg"
   xmlns="http://www.w3.org/2000/svg"
   id="svg103"
   version="1.2"
   viewBox="0 0 321.21874 170.47656"
   height="170.47656pt"
   width="321.21875pt">
  <metadata
     id="metadata107">
    <rdf:RDF>
      <cc:Work
         rdf:about="">
        <dc:format>image/svg+xml</dc:format>
        <dc:type
           rdf:resource="http://purl.org/dc/dcmitype/StillImage" />
        <dc:title></dc:title>
      </cc:Work>
    </rdf:RDF>
  </metadata>
  <defs
     id="defs8"><clipPath
   id="clip1">
  <path
     d="m 56,0 h 2 v 188.46875 h -2 z m 0,0"
     id="path2" />
</clipPath>
<clipPath
   id="clip2">
  <path
     d="M 0,15.601562 H 180.96484 V 172.85937 H 0 Z m 0,0"
     id="path5" />
</clipPath>
<clipPath
   id="clip1-3">
  <path
     d="m 320,113 h 1.21875 v 3 H 320 Z m 0,0"
     id="path1476" />
</clipPath>
<clipPath
   id="clip2-6">
  <path
     d="m 0,91 h 303 v 79.47656 H 0 Z m 0,0"
     id="path1479" />
</clipPath>
<clipPath
   id="clip3">
  <path
     d="M 7,0 H 54 V 170.47656 H 7 Z m 0,0"
     id="path1482" />
</clipPath>


















</defs>
  <path
     id="path1487"
     d="M 116.32031,2.45703 V 168.57812"
     style="fill:none;stroke:#cacaff;stroke-width:0.34465101;stroke-linecap:butt;stroke-linejoin:miter;stroke-miterlimit:10;stroke-opacity:1" />
  <path
     id="path1493"
     d="m 13.960938,114.125 v 1.03125"
     style="fill:none;stroke:#cacaff;stroke-width:0.34465101;stroke-linecap:butt;stroke-linejoin:miter;stroke-miterlimit:10;stroke-opacity:1" />
  <path
     id="path1497"
     d="m 82.203125,114.125 v 1.03125"
     style="fill:none;stroke:#cacaff;stroke-width:0.34465101;stroke-linecap:butt;stroke-linejoin:miter;stroke-miterlimit:10;stroke-opacity:1" />
  <path
     id="path1499"
     d="m 116.32031,114.125 v 1.03125"
     style="fill:none;stroke:#cacaff;stroke-width:0.34465101;stroke-linecap:butt;stroke-linejoin:miter;stroke-miterlimit:10;stroke-opacity:1" />
  <path
     id="path1501"
     d="m 150.44141,114.125 v 1.03125"
     style="fill:none;stroke:#cacaff;stroke-width:0.34465101;stroke-linecap:butt;stroke-linejoin:miter;stroke-miterlimit:10;stroke-opacity:1" />
  <path
     id="path1503"
     d="m 184.5625,114.125 v 1.03125"
     style="fill:none;stroke:#cacaff;stroke-width:0.34465101;stroke-linecap:butt;stroke-linejoin:miter;stroke-miterlimit:10;stroke-opacity:1" />
  <path
     id="path1505"
     d="m 202.11819,101.19591 v 1.03125"
     style="fill:none;stroke:#cacaff;stroke-width:0.34465101;stroke-linecap:butt;stroke-linejoin:miter;stroke-miterlimit:10;stroke-opacity:1" />
  <path
     id="path1507"
     d="m 245.45312,96.55078 v 1.03125"
     style="fill:none;stroke:#cacaff;stroke-width:0.34465101;stroke-linecap:butt;stroke-linejoin:miter;stroke-miterlimit:10;stroke-opacity:1" />
  <path
     id="path1509"
     d="m 279.57421,96.55078 v 1.03125"
     style="fill:none;stroke:#cacaff;stroke-width:0.34465101;stroke-linecap:butt;stroke-linejoin:miter;stroke-miterlimit:10;stroke-opacity:1" />
  <g
     id="g1513"
     clip-path="url(#clip1-3)"
     style="clip-rule:nonzero">
    <path
       id="path1511"
       d="m 321.04687,114.125 v 1.03125"
       style="fill:none;stroke:#cacaff;stroke-width:0.34465101;stroke-linecap:butt;stroke-linejoin:miter;stroke-miterlimit:10;stroke-opacity:1" />
  </g>
  <path
     id="path1515"
     d="m 115.28906,147.89844 h 1.03125"
     style="fill:none;stroke:#cacaff;stroke-width:0.34465101;stroke-linecap:butt;stroke-linejoin:miter;stroke-miterlimit:10;stroke-opacity:1" />
  <path
     id="path1517"
     d="m 96.299457,108.16573 h 1.03125"
     style="fill:none;stroke:#cacaff;stroke-width:0.34465101;stroke-linecap:butt;stroke-linejoin:miter;stroke-miterlimit:10;stroke-opacity:1" />
  <path
     id="path1519"
     d="m 115.28906,46.91797 h 1.03125"
     style="fill:none;stroke:#cacaff;stroke-width:0.34465101;stroke-linecap:butt;stroke-linejoin:miter;stroke-miterlimit:10;stroke-opacity:1" />
  <path
     id="path1521"
     d="m 115.28906,13.48437 h 1.03125"
     style="fill:none;stroke:#cacaff;stroke-width:0.34465101;stroke-linecap:butt;stroke-linejoin:miter;stroke-miterlimit:10;stroke-opacity:1" />
  <path
     id="path1523"
     d="m 27.167969,98.85547 7.066406,1.83594 1.863281,-6.96094 -7.066406,-1.83594 -1.863281,6.96094"
     style="fill:#000000;fill-opacity:0.09803922;fill-rule:evenodd;stroke:#000000;stroke-width:0.34465101;stroke-linecap:round;stroke-linejoin:round;stroke-miterlimit:10;stroke-opacity:1" />
  <path
     id="path1525"
     d="m 237.10937,90.38281 h 7.3086 v 7.19922 h -7.3086 z m 0,0"
     style="fill:#000000;fill-opacity:0.09803922;fill-rule:evenodd;stroke:#000000;stroke-width:0.34465101;stroke-linecap:round;stroke-linejoin:round;stroke-miterlimit:10;stroke-opacity:1" />
  <path
     id="path1527"
     d="m 170.64453,97.58203 c 0,-1.72656 -0.44531,-3.42578 -1.29687,-4.9375 l -9.04297,4.9375 z m 0,0"
     style="fill:#000000;fill-opacity:0.09803922;fill-rule:nonzero;stroke:#000000;stroke-width:0.34465101;stroke-linecap:round;stroke-linejoin:round;stroke-miterlimit:10;stroke-opacity:1" />
  <g
     id="g1533"
     clip-path="url(#clip2-6)"
     style="clip-rule:nonzero;stroke-width:0.85039371;stroke-miterlimit:10;stroke-dasharray:none">
    <path
       id="path1531"
       d="M 0.175781,91.851562 302.44922,170.30078"
       style="fill:none;stroke:#000000;stroke-width:0.85039371;stroke-linecap:round;stroke-linejoin:round;stroke-miterlimit:10;stroke-dasharray:none;stroke-opacity:1" />
  </g>
  <g
     id="g1539"
     clip-path="url(#clip3)"
     style="clip-rule:nonzero">
    <path
       id="path1537"
       d="M 8.046875,170.30078 53.609375,0.0429688"
       style="fill:none;stroke:#000000;stroke-width:0.34465101;stroke-linecap:butt;stroke-linejoin:round;stroke-miterlimit:10;stroke-dasharray:3.274187, 2.75721;stroke-opacity:0.14902003" />
  </g>
  <path
     id="path1541"
     d="m 160.30469,97.58203 h 84.11328"
     style="fill:none;stroke:#000000;stroke-width:0.34465101;stroke-linecap:butt;stroke-linejoin:round;stroke-miterlimit:10;stroke-dasharray:3.274187, 2.75721;stroke-opacity:1" />
  <path
     id="path1543"
     d="M 244.41797,51.66406 V 97.58203"
     style="fill:none;stroke:#000000;stroke-width:0.34465101;stroke-linecap:butt;stroke-linejoin:round;stroke-miterlimit:10;stroke-dasharray:3.274187, 2.75721;stroke-opacity:1" />
  <path
     id="path1545"
     d="m 27.796875,117.62109 56.695313,14.71094"
     style="fill:none;stroke:#000000;stroke-width:0.85039371;stroke-linecap:round;stroke-linejoin:round;stroke-miterlimit:10;stroke-dasharray:none;stroke-opacity:1" />
  <path
     id="path1547"
     d="m 89.496094,133.62891 -5.332032,-0.0469 0.652344,-2.5 z m 0,0"
     style="fill:#000000;fill-opacity:1;fill-rule:evenodd;stroke:none" />
  <path
     id="path1553"
     d="M 93.355469,116.03516 43.394531,54.39062"
     style="fill:none;stroke:#000000;stroke-width:0.85039371;stroke-linecap:round;stroke-linejoin:round;stroke-miterlimit:10;stroke-dasharray:none;stroke-opacity:1" />
  <path
     id="path1555"
     d="m 40.140625,50.375 4.261719,3.20312 -2.011719,1.625 z m 0,0"
     style="fill:#000000;fill-opacity:1;fill-rule:evenodd;stroke:none" />
  <path
     id="path1561"
     d="M 160.30469,97.58203 239.88281,54.14062"
     style="fill:none;stroke:#000000;stroke-width:0.85039371;stroke-linecap:round;stroke-linejoin:round;stroke-miterlimit:10;stroke-dasharray:none;stroke-opacity:1" />
  <path
     id="path1563"
     d="M 244.41797,51.66406 240.5,55.27344 239.26172,53.00391 Z m 0,0"
     style="fill:#000000;fill-opacity:1;fill-rule:evenodd;stroke:none" />
  <path
     id="path1565"
     d="M 93.355469,116.03516 32.171875,100.15625"
     style="fill:none;stroke:#000000;stroke-width:0.34465101;stroke-linecap:round;stroke-linejoin:round;stroke-miterlimit:10;stroke-opacity:1" />
  <path
     id="path1567"
     d="m 27.167969,98.85547 5.328125,0.0508 -0.648438,2.5 z m 0,0"
     style="fill:#000000;fill-opacity:1;fill-rule:evenodd;stroke:none" />
  <path
     id="path1585"
     d="M 93.355469,116.03516 100.96875,71.48437"
     style="fill:none;stroke:#000000;stroke-width:0.85039371;stroke-linecap:round;stroke-linejoin:round;stroke-miterlimit:10;stroke-dasharray:none;stroke-opacity:1" />
  <path
     id="path1587"
     d="m 101.83984,66.38672 0.40235,5.3125 -2.546878,-0.4336 z m 0,0"
     style="fill:#000000;fill-opacity:1;fill-rule:evenodd;stroke:none" />
  <path
     id="path1599"
     d="M 93.355469,116.03516 150.05078,130.75"
     style="fill:none;stroke:#000000;stroke-width:0.34465101;stroke-linecap:round;stroke-linejoin:round;stroke-miterlimit:10;stroke-opacity:1" />
  <path
     id="path1601"
     d="m 155.05469,132.04687 -5.32813,-0.0469 0.64844,-2.5 z m 0,0"
     style="fill:#000000;fill-opacity:1;fill-rule:evenodd;stroke:none" />
  <path
     id="path1607"
     d="M 155.05469,132.04687 105.09375,70.40234"
     style="fill:none;stroke:#000000;stroke-width:0.34465101;stroke-linecap:butt;stroke-linejoin:round;stroke-miterlimit:10;stroke-dasharray:3.274187, 2.75721;stroke-opacity:1" />
  <path
     id="path1609"
     d="m 101.83984,66.38672 4.25782,3.20312 -2.00782,1.62891 z m 0,0"
     style="fill:#000000;fill-opacity:1;fill-rule:evenodd;stroke:none" />
  <path
     id="path1611"
     d="M 40.140625,50.375 96.835938,65.08984"
     style="fill:none;stroke:#000000;stroke-width:0.34465101;stroke-linecap:butt;stroke-linejoin:round;stroke-miterlimit:10;stroke-dasharray:3.274187, 2.75721;stroke-opacity:1" />
  <path
     id="path1613"
     d="m 101.83984,66.38672 -5.328121,-0.0469 0.648437,-2.50391 z m 0,0"
     style="fill:#000000;fill-opacity:1;fill-rule:evenodd;stroke:none" />
  <path
     id="path1615"
     d="m 85.632812,25.484369 28.015628,7.26954"
     style="fill:none;stroke:#000000;stroke-width:0.85039371;stroke-linecap:round;stroke-linejoin:round;stroke-miterlimit:10;stroke-dasharray:none;stroke-opacity:1" />
  <path
     id="path1617"
     d="m 118.65234,34.054689 -5.32812,-0.0469 0.64844,-2.50391 z m 0,0"
     style="fill:#000000;fill-opacity:1;fill-rule:evenodd;stroke:none" />
  <path
     id="path1639"
     d="m 28.832031,117.62109 c 0,0.57032 -0.464843,1.03125 -1.035156,1.03125 -0.570313,0 -1.035156,-0.46093 -1.035156,-1.03125 0,-0.57421 0.464843,-1.03515 1.035156,-1.03515 0.570313,0 1.035156,0.46094 1.035156,1.03515 z m 0,0"
     style="fill:#ff002e;fill-opacity:1;fill-rule:nonzero;stroke:#000000;stroke-width:0.34465101;stroke-linecap:round;stroke-linejoin:round;stroke-miterlimit:10;stroke-opacity:1" />
  <path
     id="path1641"
     d="m 90.527344,133.62891 c 0,0.57421 -0.460938,1.03515 -1.03125,1.03515 -0.574219,0 -1.035156,-0.46094 -1.035156,-1.03515 0,-0.57032 0.460937,-1.03125 1.035156,-1.03125 0.570312,0 1.03125,0.46093 1.03125,1.03125 z m 0,0"
     style="fill:#ff002e;fill-opacity:1;fill-rule:nonzero;stroke:#000000;stroke-width:0.34465101;stroke-linecap:round;stroke-linejoin:round;stroke-miterlimit:10;stroke-opacity:1" />
  <path
     id="path1643"
     d="m 94.390625,116.03516 c 0,0.57031 -0.460937,1.03515 -1.035156,1.03515 -0.570313,0 -1.035157,-0.46484 -1.035157,-1.03515 0,-0.57032 0.464844,-1.03516 1.035157,-1.03516 0.574219,0 1.035156,0.46484 1.035156,1.03516 z m 0,0"
     style="fill:#ff002e;fill-opacity:1;fill-rule:nonzero;stroke:#000000;stroke-width:0.34465101;stroke-linecap:round;stroke-linejoin:round;stroke-miterlimit:10;stroke-opacity:1" />
  <path
     id="path1645"
     d="m 41.175781,50.375 c 0,0.57031 -0.464843,1.03516 -1.035156,1.03516 -0.570313,0 -1.035156,-0.46485 -1.035156,-1.03516 0,-0.57031 0.464843,-1.03516 1.035156,-1.03516 0.570313,0 1.035156,0.46485 1.035156,1.03516 z m 0,0"
     style="fill:#ff002e;fill-opacity:1;fill-rule:nonzero;stroke:#000000;stroke-width:0.34465101;stroke-linecap:round;stroke-linejoin:round;stroke-miterlimit:10;stroke-opacity:1" />
  <path
     id="path1647"
     d="m 28.199219,98.85547 c 0,0.57422 -0.460938,1.03515 -1.03125,1.03515 -0.570313,0 -1.035157,-0.46093 -1.035157,-1.03515 0,-0.57031 0.464844,-1.03125 1.035157,-1.03125 0.570312,0 1.03125,0.46094 1.03125,1.03125 z m 0,0"
     style="fill:#3f3f3f;fill-opacity:1;fill-rule:nonzero;stroke:#000000;stroke-width:0.34465101;stroke-linecap:round;stroke-linejoin:round;stroke-miterlimit:10;stroke-opacity:1" />
  <path
     id="path1649"
     d="m 161.33984,97.58203 c 0,0.57031 -0.46484,1.03516 -1.03515,1.03516 -0.57032,0 -1.03516,-0.46485 -1.03516,-1.03516 0,-0.57031 0.46484,-1.03516 1.03516,-1.03516 0.57031,0 1.03515,0.46485 1.03515,1.03516 z m 0,0"
     style="fill:#ff0000;fill-opacity:1;fill-rule:nonzero;stroke:#000000;stroke-width:0.34465101;stroke-linecap:round;stroke-linejoin:round;stroke-miterlimit:10;stroke-opacity:1" />
  <path
     id="path1651"
     d="m 245.45312,51.66406 c 0,0.57031 -0.46484,1.03125 -1.03515,1.03125 -0.57031,0 -1.03125,-0.46094 -1.03125,-1.03125 0,-0.57031 0.46094,-1.03515 1.03125,-1.03515 0.57031,0 1.03515,0.46484 1.03515,1.03515 z m 0,0"
     style="fill:#ff0000;fill-opacity:1;fill-rule:nonzero;stroke:#000000;stroke-width:0.34465101;stroke-linecap:round;stroke-linejoin:round;stroke-miterlimit:10;stroke-opacity:1" />
  <path
     id="path1653"
     d="m 245.45312,97.58203 c 0,0.57031 -0.46484,1.03516 -1.03515,1.03516 -0.57031,0 -1.03125,-0.46485 -1.03125,-1.03516 0,-0.57031 0.46094,-1.03516 1.03125,-1.03516 0.57031,0 1.03515,0.46485 1.03515,1.03516 z m 0,0"
     style="fill:#3f3f3f;fill-opacity:1;fill-rule:nonzero;stroke:#000000;stroke-width:0.34465101;stroke-linecap:round;stroke-linejoin:round;stroke-miterlimit:10;stroke-opacity:1" />
  <path
     id="path1655"
     d="m 156.08594,132.04687 c 0,0.57422 -0.46094,1.03516 -1.03125,1.03516 -0.57032,0 -1.03516,-0.46094 -1.03516,-1.03516 0,-0.57031 0.46484,-1.03125 1.03516,-1.03125 0.57031,0 1.03125,0.46094 1.03125,1.03125 z m 0,0"
     style="fill:#000000;fill-opacity:1;fill-rule:nonzero;stroke:#000000;stroke-width:0.34465101;stroke-linecap:round;stroke-linejoin:round;stroke-miterlimit:10;stroke-opacity:1" />
  <path
     id="path1657"
     d="m 102.87109,66.38672 c 0,0.57031 -0.46093,1.03515 -1.03125,1.03515 -0.57031,0 -1.03515,-0.46484 -1.03515,-1.03515 0,-0.57031 0.46484,-1.03516 1.03515,-1.03516 0.57032,0 1.03125,0.46485 1.03125,1.03516 z m 0,0"
     style="fill:#000000;fill-opacity:1;fill-rule:nonzero;stroke:#000000;stroke-width:0.34465101;stroke-linecap:round;stroke-linejoin:round;stroke-miterlimit:10;stroke-opacity:1" />
  <path
     id="path1659"
     d="m 103.21875,66.38672 c 0,0.76172 -0.62109,1.3789 -1.37891,1.3789 -0.76171,0 -1.3789,-0.61718 -1.3789,-1.3789 0,-0.76172 0.61719,-1.37891 1.3789,-1.37891 0.75782,0 1.37891,0.61719 1.37891,1.37891 z m 0,0"
     style="fill:#ff002e;fill-opacity:1;fill-rule:nonzero;stroke:#000000;stroke-width:0.34465101;stroke-linecap:round;stroke-linejoin:round;stroke-miterlimit:10;stroke-opacity:1" />
  <path
     id="path1661"
     d="m 86.667969,25.484369 c 0,0.57032 -0.464844,1.03516 -1.035157,1.03516 -0.574218,0 -1.035156,-0.46484 -1.035156,-1.03516 0,-0.570309 0.460938,-1.035149 1.035156,-1.035149 0.570313,0 1.035157,0.46484 1.035157,1.035149 z m 0,0"
     style="fill:#0000ff;fill-opacity:1;fill-rule:nonzero;stroke:#000000;stroke-width:0.34465101;stroke-linecap:round;stroke-linejoin:round;stroke-miterlimit:10;stroke-opacity:1" />
  <path
     id="path3239-5"
     style="font-style:normal;font-variant:normal;font-weight:normal;font-stretch:normal;letter-spacing:normal;word-spacing:normal;text-anchor:start;fill:#000000;fill-opacity:1;fill-rule:evenodd;stroke:#000000;stroke-width:0;stroke-linecap:butt;stroke-linejoin:miter;stroke-miterlimit:10.43299961;stroke-dasharray:none;stroke-dashoffset:0;stroke-opacity:1"
     d="m 8.850122,85.11773 0.06,-0.1 0.06,-0.09 0.05,-0.09 0.06,-0.09 0.05,-0.09 0.04,-0.08 0.05,-0.09 0.04,-0.08 0.04,-0.08 0.04,-0.09 0.04,-0.08 0.04,-0.07 0.03,-0.08 0.03,-0.08 0.03,-0.08 0.03,-0.07 0.05,-0.15 0.05,-0.14 0.04,-0.13 0.04,-0.14 0.04,-0.13 0.03,-0.12 0.03,-0.13 0.03,-0.11 c 0.42,-1.66 0.88,-3.08 1.61,-3.91 0.16,-0.16 0.25,-0.27 0.63,-0.27 0.82,0 0.84,0.83 0.84,1 0,0.22 -0.06,0.38 -0.06,0.44 0,0.08 0.08,0.08 0.09,0.08 0.19,0 0.52,-0.13 0.81,-0.34 0.21,-0.16 0.32,-0.29 0.32,-0.77 0,-0.66 -0.33,-1.14 -1,-1.14 -0.38,0 -1.43,0.09 -2.6,1.28 -0.95,0.97 -1.51,3.13 -1.75,4.02 -0.2,0.82 -0.29,1.18 -0.65,1.9 -0.1,0.14 -0.39,0.67 -0.57,0.83 -0.32,0.3 -0.43,0.5 -0.43,0.56 0,0.03 0.01,0.08 0.11,0.08 0.04,0 0.29,-0.05 0.59,-0.25 0.2,-0.12 0.23,-0.14 0.5,-0.44 0.61,0.02 1.01,0.13 1.76,0.35 0.61,0.15 1.22,0.34 1.83,0.34 0.97,0 1.94,-0.73 2.33,-1.25 0.24,-0.33 0.31,-0.62 0.31,-0.66 0,-0.09 -0.07,-0.09 -0.09,-0.09 -0.19,0 -0.47,0.14 -0.67,0.28 -0.33,0.21 -0.35,0.27 -0.42,0.47 -0.07,0.2 -0.13,0.3 -0.18,0.36 -0.09,0.14 -0.11,0.14 -0.29,0.14 -0.57,0 -1.16,-0.17 -1.96,-0.39 -0.32,-0.09 -0.98,-0.28 -1.57,-0.28 -0.16,0 -0.33,0.01 -0.49,0.05 z" />
  <polygon
     id="polygon3241-3"
     style="font-style:normal;font-variant:normal;font-weight:normal;font-stretch:normal;letter-spacing:normal;word-spacing:normal;text-anchor:start;fill:#000000;fill-opacity:1;fill-rule:evenodd;stroke:#000000;stroke-width:0;stroke-linecap:butt;stroke-linejoin:miter;stroke-miterlimit:10.43299961;stroke-dasharray:none;stroke-dashoffset:0;stroke-opacity:1"
     points="153.87,650.62 153.26,649.65 153.26,649.55 154.8,650.87 154.8,650.96 153.26,652.27 153.26,652.18 153.87,651.21 150.18,651.21 150.18,650.62 "
     transform="matrix(1,0,0,-1,-84.860831,685.74728)" />
  <path
     id="path3243-5"
     style="font-style:normal;font-variant:normal;font-weight:normal;font-stretch:normal;letter-spacing:normal;word-spacing:normal;text-anchor:start;fill:#000000;fill-opacity:1;fill-rule:evenodd;stroke:#000000;stroke-width:0;stroke-linecap:butt;stroke-linejoin:miter;stroke-miterlimit:10.43299961;stroke-dasharray:none;stroke-dashoffset:0;stroke-opacity:1"
     d="m 69.759172,37.50728 h -0.89 c -0.22,0.84 -0.57,1.67 -0.91,2.39 -0.69,1.42 -1.62,2.53 -2.17,2.53 -0.19,0 -0.28,-0.19 -0.27,-0.34 0,-0.11 0.16,-0.75 0.17,-0.82 l 0.55,-2.06 c 0.05,-0.2 0.08,-0.39 0.08,-0.56 0,-0.75 -0.48,-1.14 -0.98,-1.14 -0.69,0 -1,0.62 -1,1.04 0,0.11 0.01,0.22 0.07,0.32 h 0.13 c 0,-0.03 0,-0.05 0,-0.1 0,-0.22 0.09,-0.72 0.53,-0.72 0.2,0 0.34,0.21 0.34,0.5 0,0.11 -0.03,0.27 -0.04,0.4 l -0.58,2.42 c -0.1,0.36 -0.19,0.72 -0.19,1.01 0,0.44 0.2,0.72 0.67,0.72 1.13,0 2.42,-2.06 2.83,-2.87 0,0 -0.5,1.92 -0.5,2.26 0,0.19 0.05,0.6 0.5,0.6 0.67,0 1.2,-0.71 1.64,-1.36 l -0.17,-0.11 c -0.33,0.47 -0.67,0.86 -0.89,0.86 -0.11,0 -0.16,-0.11 -0.16,-0.19 0,-0.16 0.11,-0.59 0.17,-0.77 z" />
  <polygon
     id="polygon3245-6"
     style="font-style:normal;font-variant:normal;font-weight:normal;font-stretch:normal;letter-spacing:normal;word-spacing:normal;text-anchor:start;fill:#000000;fill-opacity:1;fill-rule:evenodd;stroke:#000000;stroke-width:0;stroke-linecap:butt;stroke-linejoin:miter;stroke-miterlimit:10.43299961;stroke-dasharray:none;stroke-dashoffset:0;stroke-opacity:1"
     points="167.98,647.34 160.02,647.34 160.02,646.66 167.98,646.66 "
     transform="matrix(1,0,0,-1,-84.860831,685.74728)" />
  <polygon
     id="polygon3247-2"
     style="font-style:normal;font-variant:normal;font-weight:normal;font-stretch:normal;letter-spacing:normal;word-spacing:normal;text-anchor:start;fill:#000000;fill-opacity:1;fill-rule:evenodd;stroke:#000000;stroke-width:0;stroke-linecap:butt;stroke-linejoin:miter;stroke-miterlimit:10.43299961;stroke-dasharray:none;stroke-dashoffset:0;stroke-opacity:1"
     points="167.98,644.93 160.02,644.93 160.02,644.26 167.98,644.26 "
     transform="matrix(1,0,0,-1,-84.860831,685.74728)" />
  <polygon
     id="polygon3249-9"
     style="font-style:normal;font-variant:normal;font-weight:normal;font-stretch:normal;letter-spacing:normal;word-spacing:normal;text-anchor:start;fill:#000000;fill-opacity:1;fill-rule:evenodd;stroke:#000000;stroke-width:0;stroke-linecap:butt;stroke-linejoin:miter;stroke-miterlimit:10.43299961;stroke-dasharray:none;stroke-dashoffset:0;stroke-opacity:1"
     points="182.98,653.18 182.59,652.63 182.59,652.45 183.79,653.35 183.79,653.48 182.59,654.38 182.59,654.2 182.99,653.65 180.41,653.65 180.41,653.18 "
     transform="matrix(1,0,0,-1,-84.860831,685.74728)" />
  <path
     id="path3251-1"
     style="font-style:normal;font-variant:normal;font-weight:normal;font-stretch:normal;letter-spacing:normal;word-spacing:normal;text-anchor:start;fill:#000000;fill-opacity:1;fill-rule:evenodd;stroke:#000000;stroke-width:0;stroke-linecap:butt;stroke-linejoin:miter;stroke-miterlimit:10.43299961;stroke-dasharray:none;stroke-dashoffset:0;stroke-opacity:1"
     d="m 98.889175,37.22728 -0.22,-0.14 c -0.33,0.42 -0.52,0.61 -0.64,0.61 -0.07,0 -0.07,-0.07 -0.07,-0.15 0,-0.09 0.02,-0.2 0.05,-0.34 l 0.84,-2.980001 -0.73,0.110001 -0.09,0.31 c -0.13,-0.25 -0.41,-0.410001 -0.71,-0.410001 l 0.03,0.300001 c 0.21,0 0.47,0.11 0.47,0.53 v 0 c 0,0.72 -0.78,2.59 -1.75,2.59 -0.2,0 -0.47,-0.11 -0.47,-0.56 0,-0.75 0.8,-2.56 1.75,-2.56 l -0.03,-0.300001 c -1.15,0 -2.54,1.640001 -2.54,2.960001 0,0.35 0.14,1.03 0.87,1.03 0.56,0 1.16,-0.41 1.61,-0.99 -0.06,0.22 -0.09,0.44 -0.09,0.53 0,0.21 0.11,0.46 0.42,0.46 0.37,0 0.81,-0.32 1.3,-1 z" />
  <line
     id="line3253-2"
     style="font-style:normal;font-variant:normal;font-weight:normal;font-stretch:normal;letter-spacing:normal;word-spacing:normal;text-anchor:start;fill:none;fill-opacity:1;fill-rule:evenodd;stroke:#000000;stroke-width:0.55000001;stroke-linecap:butt;stroke-linejoin:miter;stroke-miterlimit:10.43299961;stroke-dasharray:none;stroke-dashoffset:0;stroke-opacity:1"
     y2="39.9473"
     x2="105.57918"
     y1="39.9473"
     x1="88.669174" />
  <polygon
     id="polygon3255-7"
     style="font-style:normal;font-variant:normal;font-weight:normal;font-stretch:normal;letter-spacing:normal;word-spacing:normal;text-anchor:start;fill:#000000;fill-opacity:1;fill-rule:evenodd;stroke:#000000;stroke-width:0;stroke-linecap:butt;stroke-linejoin:miter;stroke-miterlimit:10.43299961;stroke-dasharray:none;stroke-dashoffset:0;stroke-opacity:1"
     points="177.82,644.76 177.23,644.76 177.23,633.67 177.82,633.67 "
     transform="matrix(1,0,0,-1,-84.860831,685.74728)" />
  <polygon
     id="polygon3257-0"
     style="font-style:normal;font-variant:normal;font-weight:normal;font-stretch:normal;letter-spacing:normal;word-spacing:normal;text-anchor:start;fill:#000000;fill-opacity:1;fill-rule:evenodd;stroke:#000000;stroke-width:0;stroke-linecap:butt;stroke-linejoin:miter;stroke-miterlimit:10.43299961;stroke-dasharray:none;stroke-dashoffset:0;stroke-opacity:1"
     points="175.76,644.76 175.17,644.76 175.17,633.67 175.76,633.67 "
     transform="matrix(1,0,0,-1,-84.860831,685.74728)" />
  <polygon
     id="polygon3259-9"
     style="font-style:normal;font-variant:normal;font-weight:normal;font-stretch:normal;letter-spacing:normal;word-spacing:normal;text-anchor:start;fill:#000000;fill-opacity:1;fill-rule:evenodd;stroke:#000000;stroke-width:0;stroke-linecap:butt;stroke-linejoin:miter;stroke-miterlimit:10.43299961;stroke-dasharray:none;stroke-dashoffset:0;stroke-opacity:1"
     points="182.98,642.57 182.59,642.03 182.59,641.84 183.79,642.75 183.79,642.87 182.59,643.78 182.59,643.59 182.99,643.04 180.41,643.04 180.41,642.57 "
     transform="matrix(1,0,0,-1,-84.860831,685.74728)" />
  <path
     id="path3261-3"
     style="font-style:normal;font-variant:normal;font-weight:normal;font-stretch:normal;letter-spacing:normal;word-spacing:normal;text-anchor:start;fill:#000000;fill-opacity:1;fill-rule:evenodd;stroke:#000000;stroke-width:0;stroke-linecap:butt;stroke-linejoin:miter;stroke-miterlimit:10.43299961;stroke-dasharray:none;stroke-dashoffset:0;stroke-opacity:1"
     d="m 98.889175,47.82728 -0.22,-0.14 c -0.33,0.42 -0.52,0.61 -0.64,0.61 -0.07,0 -0.07,-0.06 -0.07,-0.14 0,-0.09 0.02,-0.2 0.05,-0.34 l 0.84,-2.99 -0.73,0.11 -0.09,0.31 c -0.13,-0.25 -0.41,-0.4 -0.71,-0.4 l 0.03,0.3 c 0.21,0 0.47,0.1 0.47,0.53 v 0 c 0,0.72 -0.78,2.59 -1.75,2.59 -0.2,0 -0.47,-0.11 -0.47,-0.56 0,-0.75 0.8,-2.56 1.75,-2.56 l -0.03,-0.3 c -1.15,0 -2.54,1.64 -2.54,2.95 0,0.36 0.14,1.03 0.87,1.03 0.56,0 1.16,-0.4 1.61,-0.98 -0.06,0.22 -0.09,0.43 -0.09,0.53 0,0.2 0.11,0.45 0.42,0.45 0.37,0 0.81,-0.31 1.3,-1 z" />
  <polygon
     id="polygon3263-6"
     style="font-style:normal;font-variant:normal;font-weight:normal;font-stretch:normal;letter-spacing:normal;word-spacing:normal;text-anchor:start;fill:#000000;fill-opacity:1;fill-rule:evenodd;stroke:#000000;stroke-width:0;stroke-linecap:butt;stroke-linejoin:miter;stroke-miterlimit:10.43299961;stroke-dasharray:none;stroke-dashoffset:0;stroke-opacity:1"
     points="188.78,644.76 188.19,644.76 188.19,633.67 188.78,633.67 "
     transform="matrix(1,0,0,-1,-84.860831,685.74728)" />
  <polygon
     id="polygon3265-0"
     style="font-style:normal;font-variant:normal;font-weight:normal;font-stretch:normal;letter-spacing:normal;word-spacing:normal;text-anchor:start;fill:#000000;fill-opacity:1;fill-rule:evenodd;stroke:#000000;stroke-width:0;stroke-linecap:butt;stroke-linejoin:miter;stroke-miterlimit:10.43299961;stroke-dasharray:none;stroke-dashoffset:0;stroke-opacity:1"
     points="186.72,644.76 186.12,644.76 186.12,633.67 186.72,633.67 "
     transform="matrix(1,0,0,-1,-84.860831,685.74728)" />
  <polygon
     points="153.02,645.62 153.02,653.2 152.49,653.2 152.49,645.62 "
     style="font-style:normal;font-variant:normal;font-weight:normal;font-stretch:normal;letter-spacing:normal;word-spacing:normal;text-anchor:start;fill:#000000;fill-opacity:1;fill-rule:evenodd;stroke:#000000;stroke-width:0;stroke-linecap:butt;stroke-linejoin:miter;stroke-miterlimit:10.43299961;stroke-dasharray:none;stroke-dashoffset:0;stroke-opacity:1"
     id="polygon3696"
     transform="matrix(1,0,0,-1,35.70165,709.39938)" />
  <polygon
     points="151.26,645.62 151.26,653.2 150.73,653.2 150.73,645.62 "
     style="font-style:normal;font-variant:normal;font-weight:normal;font-stretch:normal;letter-spacing:normal;word-spacing:normal;text-anchor:start;fill:#000000;fill-opacity:1;fill-rule:evenodd;stroke:#000000;stroke-width:0;stroke-linecap:butt;stroke-linejoin:miter;stroke-miterlimit:10.43299961;stroke-dasharray:none;stroke-dashoffset:0;stroke-opacity:1"
     id="polygon3698"
     transform="matrix(1,0,0,-1,35.70165,709.39938)" />
  <polygon
     points="153.02,638.44 153.02,646.02 152.49,646.02 152.49,638.44 "
     style="font-style:normal;font-variant:normal;font-weight:normal;font-stretch:normal;letter-spacing:normal;word-spacing:normal;text-anchor:start;fill:#000000;fill-opacity:1;fill-rule:evenodd;stroke:#000000;stroke-width:0;stroke-linecap:butt;stroke-linejoin:miter;stroke-miterlimit:10.43299961;stroke-dasharray:none;stroke-dashoffset:0;stroke-opacity:1"
     id="polygon3700"
     transform="matrix(1,0,0,-1,35.70165,709.39938)" />
  <polygon
     points="151.26,638.44 151.26,646.02 150.73,646.02 150.73,638.44 "
     style="font-style:normal;font-variant:normal;font-weight:normal;font-stretch:normal;letter-spacing:normal;word-spacing:normal;text-anchor:start;fill:#000000;fill-opacity:1;fill-rule:evenodd;stroke:#000000;stroke-width:0;stroke-linecap:butt;stroke-linejoin:miter;stroke-miterlimit:10.43299961;stroke-dasharray:none;stroke-dashoffset:0;stroke-opacity:1"
     id="polygon3702"
     transform="matrix(1,0,0,-1,35.70165,709.39938)" />
  <polygon
     points="159.34,652.27 159.34,652.18 159.95,651.21 156.26,651.21 156.26,650.62 159.95,650.62 159.34,649.65 159.34,649.55 160.89,650.87 160.89,650.96 "
     style="font-style:normal;font-variant:normal;font-weight:normal;font-stretch:normal;letter-spacing:normal;word-spacing:normal;text-anchor:start;fill:#000000;fill-opacity:1;fill-rule:evenodd;stroke:#000000;stroke-width:0;stroke-linecap:butt;stroke-linejoin:miter;stroke-miterlimit:10.43299961;stroke-dasharray:none;stroke-dashoffset:0;stroke-opacity:1"
     id="polygon3704"
     transform="matrix(1,0,0,-1,35.70165,709.39938)" />
  <path
     d="m 196.38165,65.41938 -0.17,-0.12 c -0.42,0.56 -0.72,0.83 -0.89,0.83 -0.11,0 -0.16,-0.1 -0.16,-0.25 0,-0.14 0.03,-0.32 0.08,-0.53 l 1.11,-4.19 -0.86,0.14 -0.16,0.61 c -0.09,-0.44 -0.51,-0.75 -0.97,-0.75 l 0.05,0.26 c 0.3,0 0.72,0.19 0.72,0.86 v 0 c 0,1.07 -1.11,3.82 -2.48,3.82 -0.29,0 -0.72,-0.16 -0.72,-0.88 0,-1.11 1.15,-3.8 2.48,-3.8 l -0.05,-0.26 c -1.54,0 -3.4,2.33 -3.4,4.19 0,0.51 0.19,1.4 1.12,1.4 0.86,0 1.82,-0.76 2.41,-1.83 -0.16,0.41 -0.27,1.07 -0.27,1.25 0,0.27 0.13,0.58 0.52,0.58 0.48,0 1.05,-0.44 1.64,-1.33 z"
     style="font-style:normal;font-variant:normal;font-weight:normal;font-stretch:normal;letter-spacing:normal;word-spacing:normal;text-anchor:start;fill:#000000;fill-opacity:1;fill-rule:evenodd;stroke:#000000;stroke-width:0;stroke-linecap:butt;stroke-linejoin:miter;stroke-miterlimit:10.43299961;stroke-dasharray:none;stroke-dashoffset:0;stroke-opacity:1"
     id="path3706" />
  <polygon
     points="166.04,645.62 166.04,653.2 165.51,653.2 165.51,645.62 "
     style="font-style:normal;font-variant:normal;font-weight:normal;font-stretch:normal;letter-spacing:normal;word-spacing:normal;text-anchor:start;fill:#000000;fill-opacity:1;fill-rule:evenodd;stroke:#000000;stroke-width:0;stroke-linecap:butt;stroke-linejoin:miter;stroke-miterlimit:10.43299961;stroke-dasharray:none;stroke-dashoffset:0;stroke-opacity:1"
     id="polygon3708"
     transform="matrix(1,0,0,-1,35.70165,709.39938)" />
  <polygon
     points="164.28,645.62 164.28,653.2 163.75,653.2 163.75,645.62 "
     style="font-style:normal;font-variant:normal;font-weight:normal;font-stretch:normal;letter-spacing:normal;word-spacing:normal;text-anchor:start;fill:#000000;fill-opacity:1;fill-rule:evenodd;stroke:#000000;stroke-width:0;stroke-linecap:butt;stroke-linejoin:miter;stroke-miterlimit:10.43299961;stroke-dasharray:none;stroke-dashoffset:0;stroke-opacity:1"
     id="polygon3710"
     transform="matrix(1,0,0,-1,35.70165,709.39938)" />
  <polygon
     points="166.04,638.44 166.04,646.02 165.51,646.02 165.51,638.44 "
     style="font-style:normal;font-variant:normal;font-weight:normal;font-stretch:normal;letter-spacing:normal;word-spacing:normal;text-anchor:start;fill:#000000;fill-opacity:1;fill-rule:evenodd;stroke:#000000;stroke-width:0;stroke-linecap:butt;stroke-linejoin:miter;stroke-miterlimit:10.43299961;stroke-dasharray:none;stroke-dashoffset:0;stroke-opacity:1"
     id="polygon3712"
     transform="matrix(1,0,0,-1,35.70165,709.39938)" />
  <polygon
     points="164.28,638.44 164.28,646.02 163.75,646.02 163.75,638.44 "
     style="font-style:normal;font-variant:normal;font-weight:normal;font-stretch:normal;letter-spacing:normal;word-spacing:normal;text-anchor:start;fill:#000000;fill-opacity:1;fill-rule:evenodd;stroke:#000000;stroke-width:0;stroke-linecap:butt;stroke-linejoin:miter;stroke-miterlimit:10.43299961;stroke-dasharray:none;stroke-dashoffset:0;stroke-opacity:1"
     id="polygon3714"
     transform="matrix(1,0,0,-1,35.70165,709.39938)" />
  <polygon
     points="153.02,631.17 153.02,638.75 152.49,638.75 152.49,631.17 "
     style="font-style:normal;font-variant:normal;font-weight:normal;font-stretch:normal;letter-spacing:normal;word-spacing:normal;text-anchor:start;fill:#000000;fill-opacity:1;fill-rule:evenodd;stroke:#000000;stroke-width:0;stroke-linecap:butt;stroke-linejoin:miter;stroke-miterlimit:10.43299961;stroke-dasharray:none;stroke-dashoffset:0;stroke-opacity:1"
     id="polygon3716"
     transform="matrix(1,0,0,-1,96.631843,706.77443)" />
  <polygon
     points="151.26,631.17 151.26,638.75 150.73,638.75 150.73,631.17 "
     style="font-style:normal;font-variant:normal;font-weight:normal;font-stretch:normal;letter-spacing:normal;word-spacing:normal;text-anchor:start;fill:#000000;fill-opacity:1;fill-rule:evenodd;stroke:#000000;stroke-width:0;stroke-linecap:butt;stroke-linejoin:miter;stroke-miterlimit:10.43299961;stroke-dasharray:none;stroke-dashoffset:0;stroke-opacity:1"
     id="polygon3718"
     transform="matrix(1,0,0,-1,96.631843,706.77443)" />
  <polygon
     points="153.02,624 153.02,631.57 152.49,631.57 152.49,624 "
     style="font-style:normal;font-variant:normal;font-weight:normal;font-stretch:normal;letter-spacing:normal;word-spacing:normal;text-anchor:start;fill:#000000;fill-opacity:1;fill-rule:evenodd;stroke:#000000;stroke-width:0;stroke-linecap:butt;stroke-linejoin:miter;stroke-miterlimit:10.43299961;stroke-dasharray:none;stroke-dashoffset:0;stroke-opacity:1"
     id="polygon3720"
     transform="matrix(1,0,0,-1,96.631843,706.77443)" />
  <polygon
     points="151.26,624 151.26,631.57 150.73,631.57 150.73,624 "
     style="font-style:normal;font-variant:normal;font-weight:normal;font-stretch:normal;letter-spacing:normal;word-spacing:normal;text-anchor:start;fill:#000000;fill-opacity:1;fill-rule:evenodd;stroke:#000000;stroke-width:0;stroke-linecap:butt;stroke-linejoin:miter;stroke-miterlimit:10.43299961;stroke-dasharray:none;stroke-dashoffset:0;stroke-opacity:1"
     id="polygon3722"
     transform="matrix(1,0,0,-1,96.631843,706.77443)" />
  <polygon
     points="159.34,637.83 159.34,637.73 159.95,636.77 156.26,636.77 156.26,636.17 159.95,636.17 159.34,635.2 159.34,635.11 160.89,636.42 160.89,636.52 "
     style="font-style:normal;font-variant:normal;font-weight:normal;font-stretch:normal;letter-spacing:normal;word-spacing:normal;text-anchor:start;fill:#000000;fill-opacity:1;fill-rule:evenodd;stroke:#000000;stroke-width:0;stroke-linecap:butt;stroke-linejoin:miter;stroke-miterlimit:10.43299961;stroke-dasharray:none;stroke-dashoffset:0;stroke-opacity:1"
     id="polygon3724"
     transform="matrix(1,0,0,-1,96.631843,706.77443)" />
  <path
     d="m 257.31184,77.24443 -0.17,-0.13 c -0.42,0.57 -0.72,0.83 -0.89,0.83 -0.11,0 -0.16,-0.09 -0.16,-0.25 0,-0.14 0.03,-0.31 0.08,-0.53 l 1.11,-4.19 -0.86,0.14 -0.16,0.61 c -0.09,-0.43 -0.51,-0.75 -0.97,-0.75 l 0.05,0.27 c 0.3,0 0.72,0.19 0.72,0.86 v 0 c 0,1.06 -1.11,3.81 -2.48,3.81 -0.29,0 -0.72,-0.16 -0.72,-0.87 0,-1.11 1.15,-3.8 2.48,-3.8 l -0.05,-0.27 c -1.54,0 -3.4,2.33 -3.4,4.19 0,0.52 0.19,1.41 1.12,1.41 0.86,0 1.82,-0.77 2.41,-1.83 -0.16,0.41 -0.27,1.06 -0.27,1.25 0,0.26 0.13,0.58 0.52,0.58 0.48,0 1.05,-0.44 1.64,-1.33 z"
     style="font-style:normal;font-variant:normal;font-weight:normal;font-stretch:normal;letter-spacing:normal;word-spacing:normal;text-anchor:start;fill:#000000;fill-opacity:1;fill-rule:evenodd;stroke:#000000;stroke-width:0;stroke-linecap:butt;stroke-linejoin:miter;stroke-miterlimit:10.43299961;stroke-dasharray:none;stroke-dashoffset:0;stroke-opacity:1"
     id="path3726" />
  <polygon
     points="166.04,631.17 166.04,638.75 165.51,638.75 165.51,631.17 "
     style="font-style:normal;font-variant:normal;font-weight:normal;font-stretch:normal;letter-spacing:normal;word-spacing:normal;text-anchor:start;fill:#000000;fill-opacity:1;fill-rule:evenodd;stroke:#000000;stroke-width:0;stroke-linecap:butt;stroke-linejoin:miter;stroke-miterlimit:10.43299961;stroke-dasharray:none;stroke-dashoffset:0;stroke-opacity:1"
     id="polygon3728"
     transform="matrix(1,0,0,-1,96.631843,706.77443)" />
  <polygon
     points="164.28,631.17 164.28,638.75 163.75,638.75 163.75,631.17 "
     style="font-style:normal;font-variant:normal;font-weight:normal;font-stretch:normal;letter-spacing:normal;word-spacing:normal;text-anchor:start;fill:#000000;fill-opacity:1;fill-rule:evenodd;stroke:#000000;stroke-width:0;stroke-linecap:butt;stroke-linejoin:miter;stroke-miterlimit:10.43299961;stroke-dasharray:none;stroke-dashoffset:0;stroke-opacity:1"
     id="polygon3730"
     transform="matrix(1,0,0,-1,96.631843,706.77443)" />
  <polygon
     points="166.04,624 166.04,631.57 165.51,631.57 165.51,624 "
     style="font-style:normal;font-variant:normal;font-weight:normal;font-stretch:normal;letter-spacing:normal;word-spacing:normal;text-anchor:start;fill:#000000;fill-opacity:1;fill-rule:evenodd;stroke:#000000;stroke-width:0;stroke-linecap:butt;stroke-linejoin:miter;stroke-miterlimit:10.43299961;stroke-dasharray:none;stroke-dashoffset:0;stroke-opacity:1"
     id="polygon3732"
     transform="matrix(1,0,0,-1,96.631843,706.77443)" />
  <polygon
     points="164.28,624 164.28,631.57 163.75,631.57 163.75,624 "
     style="font-style:normal;font-variant:normal;font-weight:normal;font-stretch:normal;letter-spacing:normal;word-spacing:normal;text-anchor:start;fill:#000000;fill-opacity:1;fill-rule:evenodd;stroke:#000000;stroke-width:0;stroke-linecap:butt;stroke-linejoin:miter;stroke-miterlimit:10.43299961;stroke-dasharray:none;stroke-dashoffset:0;stroke-opacity:1"
     id="polygon3734"
     transform="matrix(1,0,0,-1,96.631843,706.77443)" />
  <path
     d="m 270.63184,73.38443 v -0.02 -0.02 -0.01 -0.02 -0.02 -0.01 -0.01 -0.02 -0.01 -0.01 -0.01 -0.01 -0.01 l -0.01,-0.01 v -0.01 -0.01 -0.01 h -0.01 v -0.01 -0.01 h -0.01 v -0.01 h -0.01 v 0 l -0.01,-0.01 v 0 h -0.01 -0.01 -0.01 l -0.01,-0.01 h -0.01 v 0 c -0.1,0 -0.33,0.27 -0.41,0.36 -0.38,-0.29 -0.75,-0.36 -1.13,-0.36 -1.43,0 -1.87,0.78 -1.87,1.44 0,0.13 0,0.55 0.45,0.97 0.39,0.33 0.8,0.42 1.35,0.52 0.65,0.14 0.79,0.17 1.11,0.4 0.2,0.19 0.35,0.45 0.35,0.78 0,0.52 -0.29,1.08 -1.34,1.08 -0.78,0 -1.36,-0.45 -1.62,-1.64 -0.05,-0.22 -0.05,-0.22 -0.07,-0.23 -0.01,-0.05 -0.06,-0.05 -0.09,-0.05 -0.14,0 -0.14,0.06 -0.14,0.27 v 1.62 c 0,0.22 0,0.28 0.12,0.28 0.07,0 0.07,-0.01 0.27,-0.26 0.06,-0.08 0.06,-0.11 0.25,-0.3 0.45,0.56 1.09,0.56 1.3,0.56 1.25,0 1.87,-0.7 1.87,-1.64 0,-0.64 -0.4,-1.02 -0.5,-1.12 -0.44,-0.38 -0.76,-0.46 -1.55,-0.6 -0.35,-0.06 -1.21,-0.23 -1.21,-0.95 0,-0.36 0.25,-0.92 1.31,-0.92 1.3,0 1.37,1.11 1.39,1.48 0.01,0.09 0.11,0.09 0.14,0.09 0.12,0 0.12,-0.06 0.12,-0.26 z"
     style="font-style:normal;font-variant:normal;font-weight:normal;font-stretch:normal;letter-spacing:normal;word-spacing:normal;text-anchor:start;fill:#000000;fill-opacity:1;fill-rule:evenodd;stroke:#000000;stroke-width:0;stroke-linecap:butt;stroke-linejoin:miter;stroke-miterlimit:10.43299961;stroke-dasharray:none;stroke-dashoffset:0;stroke-opacity:1"
     id="path3736" />
  <path
     d="m 273.42184,71.08443 v -0.03 -0.03 l -0.01,-0.02 v -0.03 l -0.01,-0.03 -0.01,-0.03 -0.01,-0.02 -0.01,-0.03 -0.01,-0.03 -0.01,-0.02 -0.01,-0.02 -0.02,-0.03 -0.01,-0.02 -0.02,-0.02 -0.02,-0.02 -0.02,-0.02 -0.02,-0.02 -0.02,-0.02 -0.02,-0.02 -0.03,-0.02 -0.02,-0.01 -0.02,-0.01 -0.03,-0.02 -0.03,-0.01 -0.02,-0.01 -0.03,-0.01 -0.03,-0.01 h -0.03 l -0.03,-0.01 h -0.03 l -0.03,-0.01 h -0.03 c -0.3,0 -0.57,0.25 -0.57,0.57 0,0.36 0.28,0.59 0.57,0.59 0.37,0 0.59,-0.31 0.59,-0.58 z"
     style="font-style:normal;font-variant:normal;font-weight:normal;font-stretch:normal;letter-spacing:normal;word-spacing:normal;text-anchor:start;fill:#000000;fill-opacity:1;fill-rule:evenodd;stroke:#000000;stroke-width:0;stroke-linecap:butt;stroke-linejoin:miter;stroke-miterlimit:10.43299961;stroke-dasharray:none;stroke-dashoffset:0;stroke-opacity:1"
     id="path3738" />
  <path
     d="m 271.76184,73.30443 v 0.35 c 0.77,0 0.88,0.07 0.88,0.65 v 3.25 c 0,0.53 -0.13,0.53 -0.91,0.53 v 0.35 c 0.35,-0.04 0.91,-0.04 1.25,-0.04 0.14,0 0.83,0 1.24,0.04 v -0.35 c -0.79,0 -0.83,-0.06 -0.83,-0.53 v -4.37 z"
     style="font-style:normal;font-variant:normal;font-weight:normal;font-stretch:normal;letter-spacing:normal;word-spacing:normal;text-anchor:start;fill:#000000;fill-opacity:1;fill-rule:evenodd;stroke:#000000;stroke-width:0;stroke-linecap:butt;stroke-linejoin:miter;stroke-miterlimit:10.43299961;stroke-dasharray:none;stroke-dashoffset:0;stroke-opacity:1"
     id="path3740" />
  <path
     d="m 279.89184,75.54443 v -0.11 -0.09 -0.1 -0.09 -0.08 -0.08 -0.08 l -0.01,-0.08 v -0.07 -0.06 -0.07 l -0.01,-0.06 v -0.06 -0.06 l -0.01,-0.05 -0.01,-0.05 v -0.05 l -0.01,-0.05 -0.01,-0.05 -0.01,-0.04 -0.01,-0.04 -0.01,-0.05 -0.01,-0.04 -0.01,-0.04 -0.02,-0.03 -0.01,-0.04 -0.02,-0.04 -0.02,-0.03 -0.02,-0.04 -0.02,-0.03 -0.02,-0.04 -0.03,-0.03 c -0.34,-0.47 -0.9,-0.53 -1.31,-0.53 -1.16,0 -1.61,0.98 -1.7,1.21 h -0.02 v -1.21 l -1.62,0.12 v 0.35 c 0.81,0 0.9,0.07 0.9,0.67 v 3.23 c 0,0.53 -0.12,0.53 -0.9,0.53 v 0.35 c 0.31,-0.04 0.95,-0.04 1.29,-0.04 0.35,0 0.99,0 1.3,0.04 v -0.35 c -0.77,0 -0.91,0 -0.91,-0.53 v -2.22 c 0,-1.25 0.83,-1.92 1.57,-1.92 0.73,0 0.9,0.61 0.9,1.33 v 2.81 c 0,0.53 -0.12,0.53 -0.9,0.53 v 0.35 c 0.31,-0.04 0.95,-0.04 1.28,-0.04 0.34,0 1,0 1.29,0.04 v -0.35 c -0.59,0 -0.89,0 -0.9,-0.36 z"
     style="font-style:normal;font-variant:normal;font-weight:normal;font-stretch:normal;letter-spacing:normal;word-spacing:normal;text-anchor:start;fill:#000000;fill-opacity:1;fill-rule:evenodd;stroke:#000000;stroke-width:0;stroke-linecap:butt;stroke-linejoin:miter;stroke-miterlimit:10.43299961;stroke-dasharray:none;stroke-dashoffset:0;stroke-opacity:1"
     id="path3742" />
  <path
     d="m 288.90184,72.65443 v -0.15 -0.15 l -0.01,-0.14 -0.01,-0.14 -0.02,-0.13 -0.02,-0.14 -0.02,-0.13 -0.02,-0.12 -0.03,-0.13 -0.03,-0.12 -0.03,-0.11 -0.04,-0.11 -0.04,-0.11 -0.04,-0.11 -0.04,-0.09 -0.05,-0.1 -0.05,-0.09 -0.05,-0.09 -0.06,-0.08 -0.06,-0.07 -0.06,-0.07 -0.06,-0.07 -0.07,-0.06 -0.06,-0.05 -0.07,-0.05 -0.08,-0.04 -0.07,-0.04 -0.08,-0.03 -0.08,-0.02 -0.08,-0.02 -0.08,-0.01 h -0.09 l -0.06,0.36 c 0.61,0.01 0.83,0.55 0.83,1.39 v 0 c 0,0.64 -0.14,1.48 -0.33,2.34 h -2.81 c 0.33,-1.58 1.12,-3.73 2.31,-3.73 l 0.06,-0.36 c -1.06,0 -2.57,1.42 -3.32,4.2 -0.16,0.55 -0.22,1.14 -0.22,1.71 0,1.48 0.5,2.78 1.5,2.78 l 0.12,-0.36 c -0.67,0 -0.89,-0.61 -0.89,-1.46 0,-0.68 0.14,-1.51 0.33,-2.29 h 2.81 c -0.28,1.23 -1.05,3.75 -2.25,3.75 l -0.12,0.36 c 1.34,0 3.54,-2.74 3.54,-5.92 z"
     style="font-style:normal;font-variant:normal;font-weight:normal;font-stretch:normal;letter-spacing:normal;word-spacing:normal;text-anchor:start;fill:#000000;fill-opacity:1;fill-rule:evenodd;stroke:#000000;stroke-width:0;stroke-linecap:butt;stroke-linejoin:miter;stroke-miterlimit:10.43299961;stroke-dasharray:none;stroke-dashoffset:0;stroke-opacity:1"
     id="path3744" />
  <polygon
     points="153.02,616.72 153.02,624.3 152.49,624.3 152.49,616.72 "
     style="font-style:normal;font-variant:normal;font-weight:normal;font-stretch:normal;letter-spacing:normal;word-spacing:normal;text-anchor:start;fill:#000000;fill-opacity:1;fill-rule:evenodd;stroke:#000000;stroke-width:0;stroke-linecap:butt;stroke-linejoin:miter;stroke-miterlimit:10.43299961;stroke-dasharray:none;stroke-dashoffset:0;stroke-opacity:1"
     id="polygon3746"
     transform="matrix(1,0,0,-1,37.838191,726.52716)" />
  <polygon
     points="151.26,616.72 151.26,624.3 150.73,624.3 150.73,616.72 "
     style="font-style:normal;font-variant:normal;font-weight:normal;font-stretch:normal;letter-spacing:normal;word-spacing:normal;text-anchor:start;fill:#000000;fill-opacity:1;fill-rule:evenodd;stroke:#000000;stroke-width:0;stroke-linecap:butt;stroke-linejoin:miter;stroke-miterlimit:10.43299961;stroke-dasharray:none;stroke-dashoffset:0;stroke-opacity:1"
     id="polygon3748"
     transform="matrix(1,0,0,-1,37.838191,726.52716)" />
  <polygon
     points="153.02,609.55 153.02,617.13 152.49,617.13 152.49,609.55 "
     style="font-style:normal;font-variant:normal;font-weight:normal;font-stretch:normal;letter-spacing:normal;word-spacing:normal;text-anchor:start;fill:#000000;fill-opacity:1;fill-rule:evenodd;stroke:#000000;stroke-width:0;stroke-linecap:butt;stroke-linejoin:miter;stroke-miterlimit:10.43299961;stroke-dasharray:none;stroke-dashoffset:0;stroke-opacity:1"
     id="polygon3750"
     transform="matrix(1,0,0,-1,37.838191,726.52716)" />
  <polygon
     points="151.26,609.55 151.26,617.13 150.73,617.13 150.73,609.55 "
     style="font-style:normal;font-variant:normal;font-weight:normal;font-stretch:normal;letter-spacing:normal;word-spacing:normal;text-anchor:start;fill:#000000;fill-opacity:1;fill-rule:evenodd;stroke:#000000;stroke-width:0;stroke-linecap:butt;stroke-linejoin:miter;stroke-miterlimit:10.43299961;stroke-dasharray:none;stroke-dashoffset:0;stroke-opacity:1"
     id="polygon3752"
     transform="matrix(1,0,0,-1,37.838191,726.52716)" />
  <polygon
     points="159.34,623.38 159.34,623.29 159.95,622.32 156.26,622.32 156.26,621.73 159.95,621.73 159.34,620.76 159.34,620.66 160.89,621.98 160.89,622.07 "
     style="font-style:normal;font-variant:normal;font-weight:normal;font-stretch:normal;letter-spacing:normal;word-spacing:normal;text-anchor:start;fill:#000000;fill-opacity:1;fill-rule:evenodd;stroke:#000000;stroke-width:0;stroke-linecap:butt;stroke-linejoin:miter;stroke-miterlimit:10.43299961;stroke-dasharray:none;stroke-dashoffset:0;stroke-opacity:1"
     id="polygon3754"
     transform="matrix(1,0,0,-1,37.838191,726.52716)" />
  <path
     d="m 198.51819,111.43716 -0.17,-0.12 c -0.42,0.56 -0.72,0.83 -0.89,0.83 -0.11,0 -0.16,-0.1 -0.16,-0.25 0,-0.14 0.03,-0.32 0.08,-0.53 l 1.11,-4.19 -0.86,0.14 -0.16,0.61 c -0.09,-0.44 -0.51,-0.75 -0.97,-0.75 l 0.05,0.26 c 0.3,0 0.72,0.19 0.72,0.86 v 0 c 0,1.07 -1.11,3.82 -2.48,3.82 -0.29,0 -0.72,-0.16 -0.72,-0.88 0,-1.11 1.15,-3.8 2.48,-3.8 l -0.05,-0.26 c -1.54,0 -3.4,2.33 -3.4,4.19 0,0.51 0.19,1.4 1.12,1.4 0.86,0 1.82,-0.76 2.41,-1.83 -0.16,0.41 -0.27,1.07 -0.27,1.25 0,0.27 0.13,0.58 0.52,0.58 0.48,0 1.05,-0.44 1.64,-1.33 z"
     style="font-style:normal;font-variant:normal;font-weight:normal;font-stretch:normal;letter-spacing:normal;word-spacing:normal;text-anchor:start;fill:#000000;fill-opacity:1;fill-rule:evenodd;stroke:#000000;stroke-width:0;stroke-linecap:butt;stroke-linejoin:miter;stroke-miterlimit:10.43299961;stroke-dasharray:none;stroke-dashoffset:0;stroke-opacity:1"
     id="path3756" />
  <polygon
     points="166.04,616.72 166.04,624.3 165.51,624.3 165.51,616.72 "
     style="font-style:normal;font-variant:normal;font-weight:normal;font-stretch:normal;letter-spacing:normal;word-spacing:normal;text-anchor:start;fill:#000000;fill-opacity:1;fill-rule:evenodd;stroke:#000000;stroke-width:0;stroke-linecap:butt;stroke-linejoin:miter;stroke-miterlimit:10.43299961;stroke-dasharray:none;stroke-dashoffset:0;stroke-opacity:1"
     id="polygon3758"
     transform="matrix(1,0,0,-1,37.838191,726.52716)" />
  <polygon
     points="164.28,616.72 164.28,624.3 163.75,624.3 163.75,616.72 "
     style="font-style:normal;font-variant:normal;font-weight:normal;font-stretch:normal;letter-spacing:normal;word-spacing:normal;text-anchor:start;fill:#000000;fill-opacity:1;fill-rule:evenodd;stroke:#000000;stroke-width:0;stroke-linecap:butt;stroke-linejoin:miter;stroke-miterlimit:10.43299961;stroke-dasharray:none;stroke-dashoffset:0;stroke-opacity:1"
     id="polygon3760"
     transform="matrix(1,0,0,-1,37.838191,726.52716)" />
  <polygon
     points="166.04,609.55 166.04,617.13 165.51,617.13 165.51,609.55 "
     style="font-style:normal;font-variant:normal;font-weight:normal;font-stretch:normal;letter-spacing:normal;word-spacing:normal;text-anchor:start;fill:#000000;fill-opacity:1;fill-rule:evenodd;stroke:#000000;stroke-width:0;stroke-linecap:butt;stroke-linejoin:miter;stroke-miterlimit:10.43299961;stroke-dasharray:none;stroke-dashoffset:0;stroke-opacity:1"
     id="polygon3762"
     transform="matrix(1,0,0,-1,37.838191,726.52716)" />
  <polygon
     points="164.28,609.55 164.28,617.13 163.75,617.13 163.75,609.55 "
     style="font-style:normal;font-variant:normal;font-weight:normal;font-stretch:normal;letter-spacing:normal;word-spacing:normal;text-anchor:start;fill:#000000;fill-opacity:1;fill-rule:evenodd;stroke:#000000;stroke-width:0;stroke-linecap:butt;stroke-linejoin:miter;stroke-miterlimit:10.43299961;stroke-dasharray:none;stroke-dashoffset:0;stroke-opacity:1"
     id="polygon3764"
     transform="matrix(1,0,0,-1,37.838191,726.52716)" />
  <path
     d="m 212.24819,108.22716 h -0.01 -0.02 -0.02 -0.02 -0.01 -0.03 -0.02 -0.02 l -0.02,0.01 h -0.03 -0.02 l -0.02,0.01 -0.03,0.01 -0.02,0.01 h -0.03 l -0.02,0.02 -0.03,0.01 -0.02,0.01 -0.02,0.02 -0.02,0.01 -0.02,0.02 -0.01,0.01 -0.01,0.01 -0.01,0.01 -0.01,0.02 -0.01,0.01 -0.01,0.01 -0.01,0.01 v 0.02 l -0.01,0.01 -0.01,0.02 v 0.01 l -0.01,0.02 v 0.01 l -0.01,0.02 v 0.02 l -0.01,0.02 v 0.01 0.02 l -0.01,0.02 v 0.03 0.02 0.02 c 0,0.28 0.21,0.48 0.49,0.48 0.28,0 0.5,-0.15 0.5,-0.51 0,-0.8 -0.83,-1.36 -1.8,-1.36 -1.39,0 -2.5,1.23 -2.5,2.73 0,1.53 1.14,2.71 2.48,2.71 1.58,0 1.94,-1.44 1.94,-1.55 0,-0.11 -0.09,-0.11 -0.12,-0.11 -0.11,0 -0.13,0.05 -0.16,0.19 -0.26,0.84 -0.91,1.2 -1.55,1.2 -0.73,0 -1.68,-0.64 -1.68,-2.45 0,-1.97 1.01,-2.46 1.61,-2.46 0.45,0 1.11,0.18 1.37,0.65 z"
     style="font-style:normal;font-variant:normal;font-weight:normal;font-stretch:normal;letter-spacing:normal;word-spacing:normal;text-anchor:start;fill:#000000;fill-opacity:1;fill-rule:evenodd;stroke:#000000;stroke-width:0;stroke-linecap:butt;stroke-linejoin:miter;stroke-miterlimit:10.43299961;stroke-dasharray:none;stroke-dashoffset:0;stroke-opacity:1"
     id="path3766" />
  <path
     d="m 218.60819,110.07716 -0.01,-0.14 -0.01,-0.14 -0.01,-0.14 -0.03,-0.14 -0.03,-0.13 -0.03,-0.13 -0.04,-0.13 -0.05,-0.13 -0.05,-0.12 -0.06,-0.12 -0.06,-0.12 -0.07,-0.11 -0.07,-0.11 -0.08,-0.1 -0.08,-0.1 -0.08,-0.1 -0.09,-0.09 -0.09,-0.09 -0.1,-0.08 -0.1,-0.07 -0.1,-0.08 -0.11,-0.06 -0.11,-0.06 -0.11,-0.06 -0.12,-0.05 -0.12,-0.04 -0.12,-0.04 -0.12,-0.03 -0.12,-0.02 -0.13,-0.02 -0.12,-0.01 h -0.13 l -0.02,0.23 c 0.47,0 0.97,0.22 1.3,0.68 0.36,0.56 0.36,1.31 0.36,1.75 0,0.42 0,1.15 -0.31,1.71 -0.33,0.57 -0.88,0.8 -1.33,0.8 v 0 c -0.44,0 -0.99,-0.19 -1.33,-0.78 -0.31,-0.53 -0.33,-1.23 -0.33,-1.73 0,-0.46 0,-1.19 0.38,-1.72 0.33,-0.52 0.84,-0.71 1.26,-0.71 l 0.02,-0.23 c -1.44,0 -2.56,1.26 -2.56,2.76 0,1.52 1.18,2.68 2.54,2.68 1.41,0 2.57,-1.18 2.57,-2.68 z"
     style="font-style:normal;font-variant:normal;font-weight:normal;font-stretch:normal;letter-spacing:normal;word-spacing:normal;text-anchor:start;fill:#000000;fill-opacity:1;fill-rule:evenodd;stroke:#000000;stroke-width:0;stroke-linecap:butt;stroke-linejoin:miter;stroke-miterlimit:10.43299961;stroke-dasharray:none;stroke-dashoffset:0;stroke-opacity:1"
     id="path3768" />
  <path
     d="m 222.88819,107.57716 v -0.01 -0.02 -0.02 -0.01 -0.02 -0.01 -0.02 -0.01 -0.01 -0.02 -0.01 -0.01 -0.01 -0.01 l -0.01,-0.01 v 0 -0.01 -0.01 h -0.01 v -0.01 l -0.01,-0.01 v 0 h -0.01 v -0.01 h -0.01 v 0 l -0.01,-0.01 h -0.01 -0.01 -0.01 -0.01 v 0 c -0.1,0 -0.33,0.26 -0.41,0.36 -0.38,-0.3 -0.75,-0.36 -1.13,-0.36 -1.43,0 -1.87,0.78 -1.87,1.44 0,0.12 0,0.54 0.45,0.97 0.39,0.32 0.8,0.42 1.35,0.51 0.65,0.14 0.79,0.17 1.11,0.41 0.2,0.18 0.35,0.45 0.35,0.78 0,0.51 -0.29,1.08 -1.34,1.08 -0.78,0 -1.36,-0.46 -1.62,-1.64 -0.05,-0.22 -0.05,-0.22 -0.07,-0.24 -0.01,-0.05 -0.06,-0.05 -0.09,-0.05 -0.14,0 -0.14,0.07 -0.14,0.27 v 1.63 c 0,0.21 0,0.28 0.12,0.28 0.07,0 0.07,-0.02 0.27,-0.27 0.06,-0.08 0.06,-0.11 0.25,-0.3 0.45,0.57 1.09,0.57 1.3,0.57 1.25,0 1.87,-0.71 1.87,-1.64 0,-0.64 -0.4,-1.02 -0.5,-1.13 -0.44,-0.37 -0.76,-0.45 -1.55,-0.59 -0.35,-0.07 -1.21,-0.24 -1.21,-0.96 0,-0.36 0.25,-0.92 1.31,-0.92 1.3,0 1.37,1.11 1.39,1.49 0.01,0.09 0.11,0.09 0.14,0.09 0.12,0 0.12,-0.06 0.12,-0.27 z"
     style="font-style:normal;font-variant:normal;font-weight:normal;font-stretch:normal;letter-spacing:normal;word-spacing:normal;text-anchor:start;fill:#000000;fill-opacity:1;fill-rule:evenodd;stroke:#000000;stroke-width:0;stroke-linecap:butt;stroke-linejoin:miter;stroke-miterlimit:10.43299961;stroke-dasharray:none;stroke-dashoffset:0;stroke-opacity:1"
     id="path3770" />
  <path
     d="m 231.40819,106.84716 v -0.15 -0.14 l -0.01,-0.14 -0.01,-0.14 -0.02,-0.14 -0.02,-0.13 -0.02,-0.13 -0.02,-0.13 -0.03,-0.12 -0.03,-0.12 -0.03,-0.12 -0.04,-0.11 -0.04,-0.11 -0.04,-0.1 -0.04,-0.1 -0.05,-0.09 -0.05,-0.09 -0.05,-0.09 -0.06,-0.08 -0.06,-0.08 -0.06,-0.07 -0.06,-0.06 -0.06,-0.06 -0.07,-0.05 -0.07,-0.05 -0.08,-0.05 -0.07,-0.03 -0.08,-0.03 -0.08,-0.02 -0.08,-0.02 -0.08,-0.01 -0.09,-0.01 -0.06,0.36 c 0.61,0.02 0.83,0.55 0.83,1.39 v 0 c 0,0.65 -0.14,1.49 -0.33,2.35 h -2.81 c 0.33,-1.58 1.12,-3.74 2.31,-3.74 l 0.06,-0.36 c -1.06,0 -2.57,1.43 -3.32,4.21 -0.16,0.54 -0.22,1.14 -0.22,1.7 0,1.49 0.5,2.78 1.5,2.78 l 0.12,-0.36 c -0.67,0 -0.89,-0.61 -0.89,-1.45 0,-0.69 0.14,-1.52 0.33,-2.3 h 2.81 c -0.28,1.24 -1.05,3.75 -2.25,3.75 l -0.12,0.36 c 1.34,0 3.54,-2.73 3.54,-5.92 z"
     style="font-style:normal;font-variant:normal;font-weight:normal;font-stretch:normal;letter-spacing:normal;word-spacing:normal;text-anchor:start;fill:#000000;fill-opacity:1;fill-rule:evenodd;stroke:#000000;stroke-width:0;stroke-linecap:butt;stroke-linejoin:miter;stroke-miterlimit:10.43299961;stroke-dasharray:none;stroke-dashoffset:0;stroke-opacity:1"
     id="path3772" />
  <path
     d="m 189.66248,88.26572 v -0.15 -0.14 l -0.01,-0.14 -0.01,-0.14 -0.02,-0.14 -0.02,-0.13 -0.02,-0.13 -0.02,-0.13 -0.03,-0.12 -0.03,-0.12 -0.03,-0.12 -0.04,-0.11 -0.04,-0.11 -0.04,-0.1 -0.04,-0.1 -0.05,-0.09 -0.05,-0.09 -0.05,-0.09 -0.06,-0.08 -0.06,-0.08 -0.06,-0.07 -0.06,-0.06 -0.06,-0.06 -0.07,-0.05 -0.07,-0.05 -0.08,-0.05 -0.07,-0.03 -0.08,-0.03 -0.08,-0.02 -0.08,-0.02 -0.08,-0.01 -0.09,-0.01 -0.06,0.36 c 0.61,0.02 0.83,0.55 0.83,1.39 v 0 c 0,0.65 -0.14,1.49 -0.33,2.35 h -2.81 c 0.33,-1.58 1.12,-3.74 2.31,-3.74 l 0.06,-0.36 c -1.06,0 -2.57,1.43 -3.32,4.21 -0.16,0.54 -0.22,1.14 -0.22,1.7 0,1.49 0.5,2.78 1.5,2.78 l 0.12,-0.36 c -0.67,0 -0.89,-0.61 -0.89,-1.45 0,-0.69 0.14,-1.52 0.33,-2.3 h 2.81 c -0.28,1.24 -1.05,3.75 -2.25,3.75 l -0.12,0.36 c 1.34,0 3.54,-2.73 3.54,-5.92 z"
     style="font-style:normal;font-variant:normal;font-weight:normal;font-stretch:normal;letter-spacing:normal;word-spacing:normal;text-anchor:start;fill:#000000;fill-opacity:1;fill-rule:evenodd;stroke:#000000;stroke-width:0;stroke-linecap:butt;stroke-linejoin:miter;stroke-miterlimit:10.43299961;stroke-dasharray:none;stroke-dashoffset:0;stroke-opacity:1"
     id="path3772-6" />
  <path
     id="path4262"
     d="m 37.67852,137.29267 -0.01,-0.28 v -3.24 c 0,-0.4 0.01,-0.48 0.55,-0.48 h 1.12 c 1.92,0 1.92,1.34 1.92,1.86 0,0.5 0,1.86 -1.93,1.86 h -1.66 l 0.01,0.28 h 2.02 c 1.41,0 2.67,-0.94 2.67,-2.14 0,-1.16 -1.15,-2.21 -2.76,-2.21 h -4.02 v 0.35 h 0.24 c 0.85,0 0.9,0.12 0.9,0.56 v 6.33 c 0,0.44 -0.05,0.56 -0.9,0.56 h -0.24 v 0.35 c 0.28,-0.04 1.27,-0.04 1.61,-0.04 0.36,0 1.33,0 1.63,0.04 v -0.35 h -0.24 c -0.86,0 -0.91,-0.12 -0.91,-0.56 z"
     style="font-style:normal;font-variant:normal;font-weight:normal;font-stretch:normal;letter-spacing:normal;word-spacing:normal;text-anchor:start;fill:#000000;fill-opacity:1;fill-rule:evenodd;stroke:#000000;stroke-width:0;stroke-linecap:butt;stroke-linejoin:miter;stroke-miterlimit:10.43299961;stroke-dasharray:none;stroke-dashoffset:0;stroke-opacity:1" />
  <path
     id="path4264"
     d="m 45.03852,138.30267 v -0.1 -0.11 l 0.01,-0.11 0.01,-0.1 0.01,-0.11 0.02,-0.1 0.02,-0.1 0.02,-0.1 0.02,-0.1 0.03,-0.1 0.03,-0.09 0.03,-0.09 0.03,-0.09 0.04,-0.08 0.04,-0.09 0.04,-0.08 0.05,-0.07 0.05,-0.07 0.05,-0.07 0.05,-0.07 0.06,-0.06 0.06,-0.05 0.06,-0.06 0.06,-0.04 0.07,-0.05 0.07,-0.03 0.07,-0.03 0.08,-0.03 0.08,-0.02 0.08,-0.02 0.08,-0.01 h 0.08 c 0.1,0 0.11,0 0.16,0.02 -0.1,0.04 -0.28,0.11 -0.28,0.43 0,0.35 0.28,0.47 0.47,0.47 0.23,0 0.47,-0.15 0.47,-0.47 0,-0.36 -0.32,-0.68 -0.83,-0.68 -1.02,0 -1.36,1.09 -1.44,1.31 v -1.31 l -1.61,0.12 v 0.34 c 0.81,0 0.91,0.08 0.91,0.68 v 3.23 c 0,0.53 -0.13,0.53 -0.91,0.53 v 0.35 c 0.34,-0.04 1,-0.04 1.36,-0.04 0.31,0 1.16,0 1.44,0.04 v -0.35 h -0.24 c -0.87,0 -0.9,-0.14 -0.9,-0.56 z"
     style="font-style:normal;font-variant:normal;font-weight:normal;font-stretch:normal;letter-spacing:normal;word-spacing:normal;text-anchor:start;fill:#000000;fill-opacity:1;fill-rule:evenodd;stroke:#000000;stroke-width:0;stroke-linecap:butt;stroke-linejoin:miter;stroke-miterlimit:10.43299961;stroke-dasharray:none;stroke-dashoffset:0;stroke-opacity:1" />
  <path
     id="path4266"
     d="m 53.06852,138.54267 v -0.15 l -0.01,-0.14 -0.02,-0.14 -0.02,-0.13 -0.03,-0.14 -0.04,-0.13 -0.04,-0.13 -0.04,-0.13 -0.06,-0.12 -0.05,-0.12 -0.06,-0.11 -0.07,-0.12 -0.07,-0.1 -0.08,-0.11 -0.08,-0.1 -0.09,-0.09 -0.09,-0.1 -0.09,-0.08 -0.1,-0.08 -0.1,-0.08 -0.1,-0.07 -0.11,-0.07 -0.1,-0.06 -0.12,-0.05 -0.11,-0.05 -0.12,-0.04 -0.12,-0.04 -0.12,-0.03 -0.12,-0.03 -0.13,-0.01 -0.13,-0.01 -0.12,-0.01 -0.02,0.24 c 0.47,0 0.97,0.22 1.3,0.67 0.36,0.56 0.36,1.31 0.36,1.75 0,0.42 0,1.16 -0.32,1.72 -0.32,0.56 -0.87,0.79 -1.32,0.79 v 0 c -0.44,0 -0.99,-0.18 -1.33,-0.78 -0.32,-0.53 -0.33,-1.23 -0.33,-1.73 0,-0.45 0,-1.19 0.37,-1.72 0.33,-0.51 0.85,-0.7 1.27,-0.7 l 0.02,-0.24 c -1.44,0 -2.57,1.27 -2.57,2.77 0,1.51 1.19,2.67 2.55,2.67 1.41,0 2.56,-1.17 2.56,-2.67 z"
     style="font-style:normal;font-variant:normal;font-weight:normal;font-stretch:normal;letter-spacing:normal;word-spacing:normal;text-anchor:start;fill:#000000;fill-opacity:1;fill-rule:evenodd;stroke:#000000;stroke-width:0;stroke-linecap:butt;stroke-linejoin:miter;stroke-miterlimit:10.43299961;stroke-dasharray:none;stroke-dashoffset:0;stroke-opacity:1" />
  <path
     id="path4268"
     d="m 57.95852,137.10267 0.02,-0.04 0.01,-0.03 0.02,-0.04 0.02,-0.03 0.01,-0.03 0.02,-0.03 0.02,-0.03 0.01,-0.03 0.04,-0.06 0.04,-0.05 0.03,-0.05 0.04,-0.04 0.04,-0.04 0.04,-0.04 0.04,-0.03 0.04,-0.04 0.03,-0.02 0.04,-0.03 0.04,-0.02 0.04,-0.02 0.04,-0.02 0.04,-0.02 0.04,-0.01 0.03,-0.01 0.04,-0.01 0.04,-0.01 0.03,-0.01 0.04,-0.01 h 0.03 0.03 l 0.03,-0.01 h 0.03 0.03 0.02 0.03 0.02 v -0.35 c -0.34,0.04 -0.51,0.04 -0.89,0.04 -0.28,0 -0.3,0 -0.97,-0.04 v 0.35 c 0.44,0.03 0.55,0.3 0.55,0.51 0,0.11 -0.03,0.18 -0.08,0.29 l -1.2,3.01 -1.33,-3.25 c -0.08,-0.17 -0.08,-0.23 -0.08,-0.25 0,-0.31 0.42,-0.31 0.66,-0.31 v -0.35 c -0.31,0.04 -0.89,0.04 -1.22,0.04 -0.45,0 -0.48,0 -1.16,-0.04 v 0.35 c 0.69,0 0.78,0.06 0.94,0.44 l 1.78,4.36 c -0.53,1.26 -0.53,1.28 -0.58,1.37 -0.2,0.36 -0.53,0.81 -1.06,0.81 -0.36,0 -0.59,-0.2 -0.59,-0.2 0,0 0.42,-0.05 0.42,-0.47 0,-0.28 -0.23,-0.44 -0.45,-0.44 -0.19,0 -0.46,0.11 -0.46,0.46 0,0.45 0.46,0.9 1.08,0.9 0.67,0 1.16,-0.59 1.47,-1.34 z"
     style="font-style:normal;font-variant:normal;font-weight:normal;font-stretch:normal;letter-spacing:normal;word-spacing:normal;text-anchor:start;fill:#000000;fill-opacity:1;fill-rule:evenodd;stroke:#000000;stroke-width:0;stroke-linecap:butt;stroke-linejoin:miter;stroke-miterlimit:10.43299961;stroke-dasharray:none;stroke-dashoffset:0;stroke-opacity:1" />
  <polygon
     transform="matrix(1,0,0,-1,-113.62148,798.32267)"
     id="polygon4270"
     points="176.45,660.54 173.87,660.54 173.87,660.07 176.43,660.07 176.04,659.53 176.04,659.34 177.25,660.25 177.25,660.37 176.04,661.28 176.04,661.09 "
     style="font-style:normal;font-variant:normal;font-weight:normal;font-stretch:normal;letter-spacing:normal;word-spacing:normal;text-anchor:start;fill:#000000;fill-opacity:1;fill-rule:evenodd;stroke:#000000;stroke-width:0;stroke-linecap:butt;stroke-linejoin:miter;stroke-miterlimit:10.43299961;stroke-dasharray:none;stroke-dashoffset:0;stroke-opacity:1" />
  <path
     id="path4272"
     d="m 63.57852,142.90267 -0.22,-0.14 c -0.33,0.42 -0.52,0.61 -0.64,0.61 -0.06,0 -0.06,-0.06 -0.06,-0.14 0,-0.09 0.01,-0.2 0.04,-0.34 l 0.85,-2.99 -0.74,0.11 -0.09,0.31 c -0.13,-0.25 -0.41,-0.4 -0.7,-0.4 l 0.03,0.3 c 0.2,0 0.47,0.1 0.47,0.53 v 0 c 0,0.72 -0.79,2.59 -1.75,2.59 -0.21,0 -0.47,-0.11 -0.47,-0.56 0,-0.75 0.79,-2.56 1.75,-2.56 l -0.03,-0.3 c -1.16,0 -2.55,1.64 -2.55,2.95 0,0.36 0.14,1.03 0.87,1.03 0.57,0 1.16,-0.4 1.61,-0.98 -0.06,0.22 -0.09,0.43 -0.09,0.53 0,0.2 0.11,0.45 0.42,0.45 0.38,0 0.81,-0.31 1.3,-1 z"
     style="font-style:normal;font-variant:normal;font-weight:normal;font-stretch:normal;letter-spacing:normal;word-spacing:normal;text-anchor:start;fill:#000000;fill-opacity:1;fill-rule:evenodd;stroke:#000000;stroke-width:0;stroke-linecap:butt;stroke-linejoin:miter;stroke-miterlimit:10.43299961;stroke-dasharray:none;stroke-dashoffset:0;stroke-opacity:1" />
  <polygon
     transform="matrix(1,0,0,-1,-113.62148,798.32267)"
     id="polygon4274"
     points="183.34,665.66 179.65,665.66 179.65,665.06 183.34,665.06 182.73,664.09 182.73,664 184.27,665.31 184.27,665.41 182.73,666.72 182.73,666.62 "
     style="font-style:normal;font-variant:normal;font-weight:normal;font-stretch:normal;letter-spacing:normal;word-spacing:normal;text-anchor:start;fill:#000000;fill-opacity:1;fill-rule:evenodd;stroke:#000000;stroke-width:0;stroke-linecap:butt;stroke-linejoin:miter;stroke-miterlimit:10.43299961;stroke-dasharray:none;stroke-dashoffset:0;stroke-opacity:1" />
  <path
     id="path4276"
     d="m 69.79852,136.59267 v -0.05 -0.04 l -0.01,-0.04 v -0.05 l -0.01,-0.04 -0.02,-0.04 -0.01,-0.04 -0.01,-0.04 -0.02,-0.05 -0.02,-0.04 -0.03,-0.04 -0.02,-0.04 -0.03,-0.03 -0.03,-0.04 -0.03,-0.04 -0.04,-0.03 -0.03,-0.03 -0.04,-0.04 -0.04,-0.03 -0.05,-0.03 -0.05,-0.02 -0.05,-0.03 -0.05,-0.02 -0.05,-0.02 -0.06,-0.02 -0.06,-0.02 -0.07,-0.01 -0.06,-0.02 -0.07,-0.01 h -0.07 l -0.08,-0.01 h -0.08 c -1.75,0 -3.42,2 -3.42,3.75 0,1.27 0.78,1.85 1.67,1.85 1.14,0 1.88,-0.79 2.32,-1.35 l -0.18,-0.12 c -0.32,0.39 -0.92,1.01 -1.7,1.01 -0.69,0 -1.09,-0.56 -1.09,-1.47 0,-1.12 0.89,-3.42 2.4,-3.42 0.24,0 0.46,0.1 0.46,0.3 0,0.2 -0.3,0.36 -0.3,0.67 0,0.27 0.19,0.44 0.45,0.44 0.36,0 0.58,-0.33 0.58,-0.7 z"
     style="font-style:normal;font-variant:normal;font-weight:normal;font-stretch:normal;letter-spacing:normal;word-spacing:normal;text-anchor:start;fill:#000000;fill-opacity:1;fill-rule:evenodd;stroke:#000000;stroke-width:0;stroke-linecap:butt;stroke-linejoin:miter;stroke-miterlimit:10.43299961;stroke-dasharray:none;stroke-dashoffset:0;stroke-opacity:1" />
  <polygon
     transform="matrix(1,0,0,-1,-90.591541,734.88931)"
     id="polygon4278"
     points="153,652.18 153.61,651.21 149.92,651.21 149.92,650.62 153.61,650.62 153,649.65 153,649.55 154.55,650.87 154.55,650.96 153,652.27 "
     style="font-style:normal;font-variant:normal;font-weight:normal;font-stretch:normal;letter-spacing:normal;word-spacing:normal;text-anchor:start;fill:#000000;fill-opacity:1;fill-rule:evenodd;stroke:#000000;stroke-width:0;stroke-linecap:butt;stroke-linejoin:miter;stroke-miterlimit:10.43299961;stroke-dasharray:none;stroke-dashoffset:0;stroke-opacity:1" />
  <path
     id="path4280"
     d="m 63.108463,87.59931 -0.01,-0.04 v -0.04 -0.05 l -0.01,-0.04 -0.01,-0.04 -0.01,-0.05 -0.02,-0.04 -0.01,-0.04 -0.02,-0.04 -0.02,-0.04 -0.02,-0.04 -0.03,-0.04 -0.03,-0.04 -0.03,-0.03 -0.03,-0.04 -0.03,-0.04 -0.04,-0.03 -0.04,-0.03 -0.04,-0.03 -0.05,-0.03 -0.04,-0.03 -0.05,-0.02 -0.06,-0.03 -0.05,-0.02 -0.06,-0.02 -0.06,-0.01 -0.06,-0.02 -0.07,-0.01 -0.07,-0.01 -0.07,-0.01 h -0.07 -0.08 c -1.75,0 -3.42,2 -3.42,3.75 0,1.26 0.78,1.84 1.67,1.84 1.14,0 1.87,-0.78 2.31,-1.34 l -0.17,-0.13 c -0.33,0.39 -0.92,1.02 -1.7,1.02 -0.69,0 -1.1,-0.56 -1.1,-1.47 0,-1.13 0.89,-3.42 2.41,-3.42 0.23,0 0.45,0.09 0.45,0.29 0,0.21 -0.3,0.36 -0.3,0.68 0,0.26 0.19,0.43 0.46,0.43 0.36,0 0.58,-0.32 0.58,-0.7 z"
     style="font-style:normal;font-variant:normal;font-weight:normal;font-stretch:normal;letter-spacing:normal;word-spacing:normal;text-anchor:start;fill:#000000;fill-opacity:1;fill-rule:evenodd;stroke:#000000;stroke-width:0;stroke-linecap:butt;stroke-linejoin:miter;stroke-miterlimit:10.43299961;stroke-dasharray:none;stroke-dashoffset:0;stroke-opacity:1" />
  <polygon
     transform="matrix(1,0,0,-1,-48.976021,729.63687)"
     id="polygon4282"
     points="153.61,636.77 149.92,636.77 149.92,636.17 153.61,636.17 153,635.2 153,635.11 154.55,636.42 154.55,636.52 153,637.83 153,637.73 "
     style="font-style:normal;font-variant:normal;font-weight:normal;font-stretch:normal;letter-spacing:normal;word-spacing:normal;text-anchor:start;fill:#000000;fill-opacity:1;fill-rule:evenodd;stroke:#000000;stroke-width:0;stroke-linecap:butt;stroke-linejoin:miter;stroke-miterlimit:10.43299961;stroke-dasharray:none;stroke-dashoffset:0;stroke-opacity:1" />
  <path
     id="path4284"
     d="m 104.72397,96.79687 -0.01,-0.05 v -0.04 -0.04 l -0.01,-0.05 -0.01,-0.04 -0.01,-0.04 -0.02,-0.04 -0.01,-0.04 -0.02,-0.05 -0.02,-0.04 -0.02,-0.04 -0.03,-0.03 -0.03,-0.04 -0.03,-0.04 -0.03,-0.04 -0.03,-0.03 -0.04,-0.03 -0.04,-0.04 -0.04,-0.03 -0.05,-0.02 -0.04,-0.03 -0.05,-0.03 -0.06,-0.02 -0.05,-0.02 -0.06,-0.02 -0.06,-0.02 -0.06,-0.01 -0.07,-0.01 -0.07,-0.01 -0.07,-0.01 -0.07,-0.01 h -0.08 c -1.75,0 -3.42,2 -3.42,3.75 0,1.27 0.78,1.85 1.67,1.85 1.14,0 1.87,-0.78 2.31,-1.35 l -0.17,-0.12 c -0.33,0.39 -0.92,1.01 -1.7,1.01 -0.69,0 -1.1,-0.56 -1.1,-1.46 0,-1.13 0.89,-3.43 2.41,-3.43 0.23,0 0.45,0.1 0.45,0.3 0,0.2 -0.3,0.36 -0.3,0.67 0,0.27 0.19,0.44 0.46,0.44 0.36,0 0.58,-0.33 0.58,-0.7 z"
     style="font-style:normal;font-variant:normal;font-weight:normal;font-stretch:normal;letter-spacing:normal;word-spacing:normal;text-anchor:start;fill:#000000;fill-opacity:1;fill-rule:evenodd;stroke:#000000;stroke-width:0;stroke-linecap:butt;stroke-linejoin:miter;stroke-miterlimit:10.43299961;stroke-dasharray:none;stroke-dashoffset:0;stroke-opacity:1" />
  <polygon
     transform="matrix(1,0,0,-1,-48.976021,729.63687)"
     id="polygon4286"
     points="162.64,631.64 162.64,635.33 162.05,635.33 162.05,631.64 158.36,631.64 158.36,631.05 162.05,631.05 162.05,627.36 162.64,627.36 162.64,631.05 166.33,631.05 166.33,631.64 "
     style="font-style:normal;font-variant:normal;font-weight:normal;font-stretch:normal;letter-spacing:normal;word-spacing:normal;text-anchor:start;fill:#000000;fill-opacity:1;fill-rule:evenodd;stroke:#000000;stroke-width:0;stroke-linecap:butt;stroke-linejoin:miter;stroke-miterlimit:10.43299961;stroke-dasharray:none;stroke-dashoffset:0;stroke-opacity:1" />
  <polygon
     transform="matrix(1,0,0,-1,-48.976021,729.63687)"
     id="polygon4288"
     points="175.19,639.88 171.5,639.88 171.5,639.28 175.19,639.28 174.58,638.31 174.58,638.22 176.12,639.53 176.12,639.62 174.58,640.94 174.58,640.84 "
     style="font-style:normal;font-variant:normal;font-weight:normal;font-stretch:normal;letter-spacing:normal;word-spacing:normal;text-anchor:start;fill:#000000;fill-opacity:1;fill-rule:evenodd;stroke:#000000;stroke-width:0;stroke-linecap:butt;stroke-linejoin:miter;stroke-miterlimit:10.43299961;stroke-dasharray:none;stroke-dashoffset:0;stroke-opacity:1" />
  <path
     id="path4290"
     d="m 126.66397,97.40687 -0.01,-0.11 v -0.09 l -0.01,-0.1 -0.01,-0.09 -0.02,-0.09 -0.02,-0.08 -0.03,-0.08 -0.02,-0.08 -0.03,-0.07 -0.04,-0.07 -0.03,-0.06 -0.04,-0.07 -0.05,-0.06 -0.04,-0.05 -0.05,-0.05 -0.05,-0.05 -0.05,-0.05 -0.05,-0.04 -0.06,-0.04 -0.05,-0.04 -0.06,-0.03 -0.06,-0.03 -0.06,-0.02 -0.07,-0.03 -0.06,-0.02 -0.07,-0.02 -0.06,-0.01 -0.07,-0.02 h -0.07 l -0.06,-0.01 -0.07,-0.01 h -0.07 c -1,0 -1.74,0.92 -2.08,1.42 l 1.23,-4.51 c 0,0 -1.6,0.28 -1.92,0.31 v 0.22 c 0.47,0 0.77,0.05 0.77,0.41 0,0.23 -0.11,0.7 -0.2,0.98 l -1.71,6.08 c 0.13,0.22 0.92,0.69 1.69,0.69 l 0.06,-0.27 c -0.36,0 -0.7,-0.12 -0.9,-0.36 0.28,-1.05 1.11,-4.4 2.64,-4.4 0.79,0 0.87,0.67 0.87,1.28 v 0 c 0,2.11 -1.36,3.48 -2.61,3.48 l -0.06,0.27 c 2.25,0 3.66,-2.24 3.66,-4.03 z"
     style="font-style:normal;font-variant:normal;font-weight:normal;font-stretch:normal;letter-spacing:normal;word-spacing:normal;text-anchor:start;fill:#000000;fill-opacity:1;fill-rule:evenodd;stroke:#000000;stroke-width:0;stroke-linecap:butt;stroke-linejoin:miter;stroke-miterlimit:10.43299961;stroke-dasharray:none;stroke-dashoffset:0;stroke-opacity:1" />
  <polygon
     transform="matrix(1,0,0,-1,-28.370291,753.07085)"
     id="polygon4292"
     points="153.89,625.43 150.2,625.43 150.2,624.84 153.89,624.84 153.28,623.87 153.28,623.77 154.83,625.09 154.83,625.18 153.28,626.49 153.28,626.4 "
     style="font-style:normal;font-variant:normal;font-weight:normal;font-stretch:normal;letter-spacing:normal;word-spacing:normal;text-anchor:start;fill:#000000;fill-opacity:1;fill-rule:evenodd;stroke:#000000;stroke-width:0;stroke-linecap:butt;stroke-linejoin:miter;stroke-miterlimit:10.43299961;stroke-dasharray:none;stroke-dashoffset:0;stroke-opacity:1" />
  <path
     id="path4294"
     d="m 125.96971,135.28085 -0.01,-0.1 v -0.1 l -0.01,-0.09 -0.02,-0.09 -0.01,-0.09 -0.02,-0.09 -0.03,-0.07 -0.03,-0.08 -0.03,-0.07 -0.03,-0.07 -0.04,-0.07 -0.04,-0.06 -0.04,-0.06 -0.04,-0.06 -0.05,-0.05 -0.05,-0.05 -0.05,-0.04 -0.05,-0.04 -0.06,-0.04 -0.05,-0.04 -0.06,-0.03 -0.06,-0.03 -0.06,-0.03 -0.07,-0.02 -0.06,-0.02 -0.07,-0.02 -0.06,-0.02 -0.07,-0.01 -0.07,-0.01 -0.06,-0.01 h -0.07 -0.07 c -1,0 -1.74,0.92 -2.08,1.42 l 1.23,-4.52 c 0,0 -1.6,0.29 -1.92,0.32 v 0.22 c 0.47,0 0.77,0.04 0.77,0.4 0,0.24 -0.11,0.71 -0.2,0.99 l -1.71,6.07 c 0.13,0.22 0.92,0.69 1.69,0.69 l 0.06,-0.26 c -0.36,0 -0.7,-0.13 -0.9,-0.36 0.28,-1.05 1.11,-4.41 2.64,-4.41 0.79,0 0.87,0.67 0.87,1.28 v 0 c 0,2.11 -1.36,3.49 -2.61,3.49 l -0.06,0.26 c 2.25,0 3.66,-2.23 3.66,-4.03 z"
     style="font-style:normal;font-variant:normal;font-weight:normal;font-stretch:normal;letter-spacing:normal;word-spacing:normal;text-anchor:start;fill:#000000;fill-opacity:1;fill-rule:evenodd;stroke:#000000;stroke-width:0;stroke-linecap:butt;stroke-linejoin:miter;stroke-miterlimit:10.43299961;stroke-dasharray:none;stroke-dashoffset:0;stroke-opacity:1" />
</svg>
